<svg xmlns="http://www.w3.org/2000/svg" width="47" height="46" viewBox="0 0 47 46">
  <g fill="#CECECE" fill-rule="evenodd">
    <path fill-rule="nonzero" d="M15.1464615,1.06442363 C15.9182769,0.763437558 16.7879542,1.14512007 17.0889403,1.91693539 C17.3899264,2.68875071 17.0082439,3.55842807 16.2364285,3.85941414 C8.61973633,6.829708 3.5,14.1861823 3.5,22.5 C3.5,33.545695 12.454305,42.5 23.5,42.5 C34.545695,42.5 43.5,33.545695 43.5,22.5 C43.5,13.8344438 37.9382933,6.23512923 29.8509288,3.52899052 C29.0653159,3.26611412 28.6415544,2.41614567 28.9044308,1.63053285 C29.1673072,0.844920034 30.0172756,0.42115844 30.8028884,0.684034839 C40.1047138,3.79654818 46.5,12.5348355 46.5,22.5 C46.5,35.2025492 36.2025492,45.5 23.5,45.5 C10.7974508,45.5 0.5,35.2025492 0.5,22.5 C0.5,12.9396943 6.38736772,4.48022171 15.1464615,1.06442363 Z"/>
    <path fill-rule="nonzero" d="M35.5325357,19.1027037 C35.6823458,19.6342819 35.3728616,20.1866562 34.8412834,20.3364663 C34.3097052,20.4862764 33.7573308,20.1767922 33.6075207,19.645214 C32.3429575,15.1581042 28.2321134,12 23.5,12 C17.7010101,12 13,16.7010101 13,22.5 C13,28.2989899 17.7010101,33 23.5,33 C27.9644456,33 31.8960636,30.1879704 33.3830068,26.0555543 C33.5699955,25.5358874 34.1428531,25.2661984 34.66252,25.4531871 C35.1821868,25.6401758 35.4518758,26.2130334 35.2648871,26.7327003 C33.4945515,31.6527023 28.8145523,35 23.5,35 C16.5964406,35 11,29.4035594 11,22.5 C11,15.5964406 16.5964406,10 23.5,10 C29.1335385,10 34.0265684,13.7590086 35.5325357,19.1027037 Z"/>
    <circle cx="23.5" cy="22.5" r="2.5"/>
  </g>
</svg>
