<svg xmlns="http://www.w3.org/2000/svg" width="26" height="26" viewBox="0 0 26 26">
  <g fill="none" fill-rule="evenodd">
    <rect width="26" height="26"/>
    <path fill="#FFF" fill-rule="nonzero" d="M6.42430143,19.2979284 L11.8609455,14.9935123 L11.8609455,15.7170405 L11.8609448,23.5665196 C11.8615696,23.8787255 12.0382101,24.1638883 12.3174602,24.3035031 C12.5967103,24.4431179 12.9308231,24.4133132 13.1804092,24.2268808 L20.2282957,18.9410348 C20.4329253,18.7875535 20.5547815,18.5478307 20.5581834,18.2920294 C20.5616067,18.0363466 20.4461516,17.7935589 20.2456634,17.6348415 L14.385327,12.9954101 L14.7319579,12.720994 L20.2452597,8.35629864 C20.445547,8.19725773 20.5608435,7.9543922 20.5574616,7.69866268 C20.5540798,7.44293316 20.4324013,7.20320146 20.2283028,7.04975625 L13.1809751,1.76422515 C12.9308103,1.57739214 12.5966795,1.54757691 12.3175237,1.68709711 C12.0382812,1.82681269 11.8616405,2.11199844 11.8609455,2.42346246 L11.8609455,10.9971701 L6.42430892,6.69275995 L5.4,7.98593335 L11.7283091,12.995411 L5.40000822,18.0048473 L6.42430143,19.2979284 Z M18.3828123,7.72662709 L13.5102213,11.5844736 L13.5102213,4.0729269 L18.3828123,7.72662709 Z M18.3828043,18.2642022 L13.5102213,21.9178539 L13.5102213,14.4061498 L18.3828043,18.2642022 Z"/>
  </g>
</svg>
