<svg xmlns="http://www.w3.org/2000/svg" width="32" height="32" viewBox="0 0 32 32">
  <g fill="none" fill-rule="evenodd">
    <rect width="32" height="32"/>
    <path fill="#474747" fill-rule="nonzero" d="M21.0888085,28.9134191 L4.82266147,28.9134191 C2.72550111,28.9134191 1.01920935,27.2071273 1.01920935,25.109967 L1.01920935,24.4033968 C1.01920935,20.5849113 4.13112472,17.4729959 7.94961024,17.4729959 L9.38530067,17.4729959 L9.38530067,17.4579625 C6.89727171,16.1425393 5.30373051,13.5267264 5.30373051,10.6778957 C5.30373051,8.55066852 6.15311804,6.58129213 7.69404232,5.11553489 C9.23496659,3.64977765 11.2569599,2.90562397 13.3917038,3.01837453 C15.3836303,3.12360838 17.2402561,3.99554602 18.6082962,5.46881996 C19.9763363,6.94209391 20.7054566,8.85885337 20.6603563,10.8582966 C20.592706,13.6770605 19.0517817,16.1650895 16.6013363,17.4579625 L16.6013363,17.4729959 L17.9618597,17.4729959 C21.7803452,17.4729959 24.8922606,20.5849113 24.8922606,24.4033968 L24.8922606,25.109967 C24.8922606,27.2071273 23.1859688,28.9134191 21.0888085,28.9134191 Z M7.94961024,18.8260026 C4.8752784,18.8260026 2.37221604,21.329065 2.37221604,24.4033968 L2.37221604,25.109967 C2.37221604,26.4629736 3.46965479,27.5604124 4.82266147,27.5604124 L21.0888085,27.5604124 C22.4418151,27.5604124 23.5392539,26.4629736 23.5392539,25.109967 L23.5392539,24.4033968 C23.5392539,21.329065 21.0361915,18.8260026 17.9618597,18.8260026 L15.9323497,18.8260026 C15.5565145,18.8260026 15.2558463,18.5253344 15.2558463,18.1494993 L15.2558463,17.0370271 C15.2558463,16.7739425 15.4136971,16.5334079 15.6542316,16.4206574 C17.8566258,15.4134191 19.2622494,13.2711585 19.3223831,10.8282298 C19.3975501,7.44571306 16.7140869,4.5442654 13.3390869,4.36386451 C11.5801782,4.27366406 9.91898664,4.88251707 8.64114699,6.09270638 C7.37082405,7.29537898 6.6717706,8.92650371 6.6717706,10.6778957 C6.6717706,13.1508912 8.11497773,15.4059024 10.3549555,16.4206574 C10.59549,16.5334079 10.7533408,16.7664258 10.7533408,17.0370271 L10.7533408,18.1494993 C10.7533408,18.5253344 10.4526726,18.8260026 10.0768374,18.8260026 L7.94961024,18.8260026 Z M27.8388085,25.2302342 L26.606069,25.2302342 C26.2302339,25.2302342 25.9295657,24.9295661 25.9295657,24.5537309 C25.9295657,24.1778957 26.2302339,23.8772275 26.606069,23.8772275 L27.8388085,23.8772275 C28.8310134,23.8772275 29.6353007,23.0729402 29.6353007,22.0807353 L29.6353007,21.5244993 C29.6353007,19.171771 27.7260579,17.2625282 25.3733296,17.2625282 L23.764755,17.2625282 C23.3889198,17.2625282 23.0882517,16.9618601 23.0882517,16.5860249 L23.0882517,15.7065705 C23.0882517,15.4434859 23.2461024,15.2029514 23.486637,15.0902008 C25.1778953,14.323497 26.252784,12.6773389 26.2978842,10.8056797 C26.3580178,8.21241685 24.298441,5.98747253 21.7126949,5.85217186 C21.2616927,5.82962175 21.0437082,5.86720527 20.6002227,5.96492241 C20.2394209,6.04760616 19.8786192,5.82210504 19.7959354,5.46130326 C19.7132517,5.10050148 19.9387528,4.7396997 20.2995546,4.65701596 C20.8633073,4.52923199 21.1940423,4.47661506 21.7878619,4.50668188 C23.3964365,4.58936562 24.8922606,5.29593578 25.997216,6.49109168 C27.1021715,7.68624758 27.6884744,9.22717186 27.6508909,10.8432632 C27.6057906,12.9479402 26.5384187,14.8195995 24.8095768,15.9170382 L25.3733296,15.9170382 C28.4702116,15.9170382 30.9807906,18.435134 30.9807906,21.5244993 L30.9807906,22.0807353 C30.9807906,23.8170939 29.5676503,25.2302342 27.8388085,25.2302342 Z"/>
  </g>
</svg>
