<svg xmlns="http://www.w3.org/2000/svg" width="26" height="26" viewBox="0 0 26 26">
  <g fill="none" fill-rule="evenodd">
    <rect width="26" height="26"/>
    <g fill="#474747" fill-rule="nonzero" transform="translate(.5 1.5)">
      <path d="M16.499014,22.3774454 L1.93087291,22.3774454 L1.93087291,0.00150086207 L16.499014,0.00150086207 L16.499014,22.3774454 Z M3.06914455,21.2391738 L15.3607423,21.2391738 L15.3607423,1.1397725 L3.06914455,1.1397725 L3.06914455,21.2391738 Z"/>
      <path d="M23.6823901,22.3774454 L15.3607423,22.3774454 L15.3607423,5.62305453 L23.6823901,5.62305453 L23.6823901,22.3774454 Z M16.499014,21.2391738 L22.5441185,21.2391738 L22.5441185,6.76132617 L16.499014,6.76132617 L16.499014,21.2391738 Z"/>
      <path d="M0.00173014461,21.2391738 L24.9867925,21.2391738 L24.9867925,22.3774454 L0.00173014461,22.3774454 L0.00173014461,21.2391738 Z M8.55410559,7.56229944 L5.30815331,7.56229944 L5.30815331,4.31572111 L8.55410559,4.31572111 L8.55410559,7.56229944 Z M6.44642492,6.42402784 L7.41583395,6.42402784 L7.41583395,5.45399274 L6.44642492,5.45399274 L6.44642492,6.42402784 Z M13.1223596,7.56229944 L9.87626502,7.56229944 L9.87626502,4.31572111 L13.1223596,4.31572111 L13.1223596,7.56229944 Z M11.0145367,6.42402784 L11.984088,6.42402784 L11.984088,5.45399274 L11.0145367,5.45399274 L11.0145367,6.42402784 Z M8.55410559,12.8136303 L5.30815331,12.8136303 L5.30815331,9.56705192 L8.55410559,9.56705192 L8.55410559,12.8136303 Z M6.44642492,11.6753586 L7.41583395,11.6753586 L7.41583395,10.7053236 L6.44642492,10.7053236 L6.44642492,11.6753586 Z M13.1223596,12.8136303 L9.87626502,12.8136303 L9.87626502,9.56705192 L13.1223596,9.56705192 L13.1223596,12.8136303 Z M11.0145367,11.6753586 L11.984088,11.6753586 L11.984088,10.7053236 L11.0145367,10.7053236 L11.0145367,11.6753586 Z M8.55410559,18.064022 L5.30815331,18.064022 L5.30815331,14.8184396 L8.55410559,14.8184396 L8.55410559,18.064022 Z M6.44642492,16.9257504 L7.41583395,16.9257504 L7.41583395,15.9566828 L6.44642492,15.9566828 L6.44642492,16.9257504 Z M13.1223596,18.064022 L9.87626502,18.064022 L9.87626502,14.8184396 L13.1223596,14.8184396 L13.1223596,18.064022 Z M11.0145367,16.9257504 L11.984088,16.9257504 L11.984088,15.9566828 L11.0145367,15.9566828 L11.0145367,16.9257504 Z"/>
    </g>
  </g>
</svg>
