<svg xmlns="http://www.w3.org/2000/svg" width="15" height="15" viewBox="0 0 15 15">
  <g fill="#818386" fill-rule="evenodd">
    <path d="M0.468350508,13.7431936 L14.5190383,13.7431936 C14.8000544,13.7431936 14.9873888,13.9305424 14.9873888,14.2115585 C14.9873888,14.4925745 14.8000544,14.679909 14.5190383,14.679909 L0.468350508,14.679909 C0.187334453,14.679909 0,14.4925745 0,14.2115585 C0,13.9773832 0.187348835,13.7432079 0.468350508,13.7432079 L0.468350508,13.7431936 Z"/>
    <path fill-rule="nonzero" d="M8.43040982,14.7267498 L1.87341641,14.7267498 C1.3113843,14.7267498 0.936715398,14.3520665 0.936715398,13.7900344 L0.936715398,2.92417601 C0.936715398,2.50265192 1.21773145,2.12796864 1.59241474,1.98746061 L8.19623456,0.0203625935 C8.71142587,-0.0733046261 9.13294996,0.160870628 9.3202988,0.629235503 L9.36712522,0.722902737 L9.36712522,13.7900344 C9.36712522,14.3520665 8.99244193,14.7267498 8.43040982,14.7267498 Z M1.87341641,2.92417601 L1.87341641,13.7900344 L8.43040982,13.7900344 L8.43040982,0.957077991 L1.87341641,2.92417601 Z"/>
    <path d="M3.74684721,4.37608273 L6.5569934,4.37608273 C6.83800946,4.37608273 7.02535829,4.56341718 7.02535829,4.84443324 C7.02535829,5.12544929 6.83800946,5.31279813 6.5569934,5.31279813 L3.74684721,5.31279813 C3.46583116,5.31279813 3.2784967,5.12544929 3.2784967,4.84443324 C3.2784967,4.61025798 3.46583116,4.37608273 3.74684721,4.37608273 Z"/>
    <path fill-rule="nonzero" d="M6.5569934,5.37608273 L3.74683283,5.37608273 C3.46581677,5.37608273 3.27848232,5.17607658 3.27848232,4.87607505 C3.27848232,4.57607352 3.46581677,4.37608273 3.74683283,4.37608273 L6.5569934,4.37608273 C6.83800946,4.37608273 7.02535829,4.57607352 7.02535829,4.87607505 C7.02535829,5.17607658 6.83800946,5.37608273 6.5569934,5.37608273 Z M3.74683283,4.91839844 L6.5569934,4.91839844 L3.74684721,4.91839844 L3.74683283,4.91839844 Z"/>
    <path d="M3.74684721,7.18621454 L6.5569934,7.18621454 C6.83800946,7.18621454 7.02535829,7.37356337 7.02535829,7.65457943 C7.02535829,7.93559548 6.83800946,8.12292994 6.5569934,8.12292994 L3.74684721,8.12292994 C3.46583116,8.12292994 3.2784967,7.9355811 3.2784967,7.65457943 C3.2784967,7.42038979 3.46583116,7.18621454 3.74684721,7.18621454 Z"/>
    <path fill-rule="nonzero" d="M6.5569934,8.18621454 L3.74683283,8.18621454 C3.46581677,8.18621454 3.27848232,7.9862084 3.27848232,7.68622222 C3.27848232,7.38623604 3.46581677,7.18621454 3.74683283,7.18621454 L6.5569934,7.18621454 C6.83800946,7.18621454 7.02535829,7.38622068 7.02535829,7.68622222 C7.02535829,7.98622375 6.83800946,8.18621454 6.5569934,8.18621454 Z M3.74683283,7.72854561 L6.5569934,7.72854561 L3.74684721,7.72854561 L3.74683283,7.72854561 Z"/>
    <path d="M3.74684721,9.99636073 L6.5569934,9.99636073 C6.83800946,9.99636073 7.02535829,10.1836952 7.02535829,10.4647112 C7.02535829,10.7457273 6.83800946,10.9330617 6.5569934,10.9330617 L3.74684721,10.9330617 C3.46583116,10.9330617 3.2784967,10.7457273 3.2784967,10.4647112 C3.2784967,10.230536 3.46583116,9.99634635 3.74684721,9.99634635 L3.74684721,9.99636073 Z"/>
    <path fill-rule="nonzero" d="M6.5569934,10.9963464 L3.74683283,10.9963464 C3.46581677,10.9963464 3.27848232,10.7963556 3.27848232,10.496354 C3.27848232,10.1963525 3.46581677,9.99634635 3.74683283,9.99634635 L6.5569934,9.99634635 C6.83800946,9.99634635 7.02535829,10.1963525 7.02535829,10.496354 C7.02535829,10.7963556 6.83800946,10.9963464 6.5569934,10.9963464 Z M3.74683283,10.5386774 L6.5569934,10.5386774 L3.74684721,10.5386774 L3.74683283,10.5386774 Z"/>
    <path d="M10.7721911,9.99636073 L11.7089065,9.99636073 C11.9899226,9.99636073 12.177257,10.1836952 12.177257,10.4647112 C12.177257,10.7457273 11.9899226,10.9330617 11.7089065,10.9330617 L10.7721911,10.9330617 C10.4911751,10.9330617 10.3038406,10.7457273 10.3038406,10.4647112 C10.3038406,10.230536 10.4911751,9.99634635 10.7721911,9.99634635 L10.7721911,9.99636073 Z"/>
    <path fill-rule="nonzero" d="M11.7089065,10.9963464 L10.7721911,10.9963464 C10.4911751,10.9963464 10.3038406,10.7963556 10.3038406,10.496354 C10.3038406,10.1963525 10.4911751,9.99634635 10.7721911,9.99634635 L11.7089065,9.99634635 C11.9899226,9.99634635 12.177257,10.1963525 12.177257,10.496354 C12.177257,10.7963556 11.9899226,10.9963464 11.7089065,10.9963464 Z M10.7721911,10.5386774 L11.7089065,10.5386774 L10.7721911,10.5386774 Z"/>
    <path fill-rule="nonzero" d="M14.0506878,14.7267498 L9.36712522,14.7267498 C8.80509311,14.7267498 8.43040982,14.3520665 8.43040982,13.7900344 L8.43040982,4.42292353 L13.5823229,7.79508745 C13.9101798,7.93559548 14.0506878,8.31027876 14.0506878,8.59129483 L14.0506878,14.7267498 Z M9.36712522,6.10897673 L9.36712522,13.7900487 L13.113958,13.7900487 L13.113958,8.54443963 L9.36712522,6.10897673 Z"/>
  </g>
</svg>
