<svg xmlns="http://www.w3.org/2000/svg" width="32" height="32" viewBox="0 0 32 32">
  <g fill="none" fill-rule="evenodd">
    <rect width="32" height="32"/>
    <path fill="#474747" fill-rule="nonzero" d="M3.50304154,10.7611842 L3.5123933,10.7658606 L15.6002645,17.3468044 C15.8108571,17.4597263 16.0639969,17.4597263 16.2744552,17.3468765 L28.5143723,10.7677748 C28.7288269,10.643667 28.8570813,10.4111543 28.8476628,10.1520785 C28.8568966,9.91238739 28.7105243,9.69408356 28.4686799,9.60436759 L16.3731434,3.43257335 C16.1825293,3.32252222 15.9476829,3.32252222 15.7495653,3.43662556 L3.50443174,9.6065285 C3.29111373,9.70670652 3.15529463,9.92154765 3.15581722,10.1698506 C3.13571566,10.4203615 3.27448175,10.6566844 3.50304154,10.7611842 Z M16.1579311,4.80106128 L26.7704269,10.1801453 L16.0085538,15.9762443 L15.8654914,15.9758055 L5.25722554,10.1782022 L16.0230872,4.80066508 L16.1579311,4.80106128 Z M26.1161943,13.9656625 L24.7007677,14.7572689 L26.7459562,15.7785437 L15.9822282,21.5756416 L15.8391658,21.5752028 L5.22788728,15.775953 L7.42390547,14.7056248 L6.01133086,13.9156135 L3.51832473,15.1600913 C3.28695287,15.2492984 3.13954326,15.4775727 3.15322473,15.7450445 C3.13496987,15.9827142 3.26352548,16.2074792 3.48356968,16.3153126 L15.6352467,22.947642 C15.716163,23.0006279 15.8112198,23.0278868 15.9095048,23.0258096 C16.0280266,23.0245479 16.1445635,22.9952257 16.247744,22.9412167 L28.5103248,16.3056379 C28.7310119,16.2272232 28.8695192,16.0081297 28.8449389,15.7623256 C28.8408406,15.5107054 28.7059254,15.2795226 28.4891407,15.1521357 L26.1161943,13.9656625 Z M26.2714023,19.6862932 L24.8118979,20.4751564 L26.7529127,21.3943073 L15.9820999,27.1817305 L15.8391658,27.1812226 L5.21810419,21.3766262 L7.2601796,20.4570335 L5.8669006,19.6858302 L3.51832473,20.7661111 C3.28695287,20.8553183 3.13954326,21.0835926 3.15322473,21.3510643 C3.13496987,21.588734 3.26352548,21.813499 3.48356968,21.9213325 L15.6352467,28.5536619 C15.716163,28.6066478 15.8112198,28.6339067 15.9095048,28.6318294 C16.0280266,28.6305678 16.1445635,28.6012456 16.2481178,28.5470349 L28.4981352,21.9613545 C28.7259271,21.857125 28.8645448,21.6218949 28.8449567,21.3639969 C28.839362,21.1142586 28.70498,20.8853269 28.4899772,20.7586469 L26.2714023,19.6862932 Z"/>
  </g>
</svg>
