<svg xmlns="http://www.w3.org/2000/svg" width="19" height="19" viewBox="0 0 19 19">
  <path fill="#444" d="M10.2916667,9.975 L12.4291667,12.1125 L11.875,12.6666667 L9.5,10.2916667 L9.5,6.33333333 L10.2916667,6.33333333 L10.2916667,9.975 Z M9.89583333,16.625 C6.175,16.625 3.16666667,13.6166667 3.16666667,9.89583333 C3.16666667,6.17499998 6.175,3.16666667 9.89583333,3.16666667 C13.6166667,3.16666667 16.625,6.175 16.625,9.89583333 C16.625,13.6166667 13.6166667,16.625 9.89583333,16.625 Z M9.89583333,15.8333333 C13.1416667,15.8333333 15.8333333,13.1416667 15.8333333,9.89583333 C15.8333333,6.65 13.1416667,3.95833333 9.89583333,3.95833333 C6.64999998,3.95833333 3.95833333,6.65 3.95833333,9.89583333 C3.95833333,13.1416667 6.65,15.8333333 9.89583333,15.8333333 Z"/>
</svg>
