<svg xmlns="http://www.w3.org/2000/svg" width="19" height="19" viewBox="0 0 19 19">
  <path fill="#444" d="M14.25,15.8333333 L14.25,14.25 L12.6666667,14.25 L13.4583333,13.4583333 L15.0416667,13.4583333 L15.0416667,16.625 L4.75,16.625 L4.75,13.4583333 L6.33333333,13.4583333 L7.125,14.25 L5.54166667,14.25 L5.54166667,15.8333333 L14.25,15.8333333 Z M13.1416667,10.45 C13.8541667,9.65833333 14.25,8.62916667 14.25,7.52083333 C14.25,5.14583333 12.2708333,3.16666665 9.89583333,3.16666667 C7.52083333,3.16666669 5.54166667,5.14583333 5.54166667,7.52083333 C5.54166667,8.62916665 5.9375,9.65833333 6.65,10.45 L9.89583333,13.6958333 L13.1416667,10.45 Z M13.4583333,11.2416667 L9.975,14.725 L6.33333333,11.2416667 C5.38333333,10.2916667 4.75,9.025 4.75,7.52083333 C4.75,4.67083333 7.04583333,2.375 9.89583333,2.375 C12.7458333,2.375 15.0416667,4.67083333 15.0416667,7.52083333 C15.0416667,8.86666665 14.5666667,10.0541667 13.6958333,11.0041667 L13.4583333,11.2416667 Z M9.89583333,9.5 C8.7875,9.5 7.91666665,8.62916667 7.91666667,7.52083333 C7.91666669,6.41249998 8.7875,5.54166667 9.89583333,5.54166667 C11.0041667,5.54166667 11.875,6.4125 11.875,7.52083333 C11.875,8.62916665 11.0041667,9.5 9.89583333,9.5 Z M9.89583333,8.70833333 C10.5291667,8.70833333 11.0833333,8.15416665 11.0833333,7.52083333 C11.0833333,6.8875 10.5291667,6.33333333 9.89583333,6.33333333 C9.26249998,6.33333333 8.70833333,6.8875 8.70833333,7.52083333 C8.70833333,8.15416665 9.2625,8.70833333 9.89583333,8.70833333 Z"/>
</svg>
