<svg xmlns="http://www.w3.org/2000/svg" width="24" height="24" viewBox="0 0 24 24">
  <g fill="none" fill-rule="evenodd">
    <rect width="24" height="24"/>
    <path fill="#1C1C1C" fill-rule="nonzero" d="M22.8887694,10.9509343 C23.276354,11.6247342 23.2755313,12.4572585 22.8863408,13.1286853 L18.4057567,20.890173 C18.0187901,21.5628996 17.2965304,21.9796196 16.5192515,21.9796196 L7.55746482,21.9796196 C6.78018596,21.9796196 6.05792628,21.5628996 5.67126892,20.8907097 L1.1900663,13.1281485 C0.803311885,12.4557909 0.803311885,11.6238287 1.19042251,10.950853 L5.67338831,3.18944657 C6.06035494,2.51671995 6.78261463,2.1 7.55989349,2.1 L16.5216802,2.1 C17.298959,2.1 18.0212187,2.51671995 18.4078761,3.18890985 L22.8887694,10.9509343 Z M20.7982792,12.0419133 L16.4181026,4.45434783 L7.65861809,4.45434783 L3.2796631,12.0397821 L7.66101429,19.6252717 L16.4205269,19.6252717 L20.7982792,12.0419133 Z M12.0189288,6.98890965 C14.81666,6.98890965 17.091687,9.26393664 17.091687,12.0616678 C17.091687,14.859399 14.81666,17.134426 12.0189288,17.134426 C9.22119766,17.134426 6.94617066,14.859399 6.94617066,12.0616678 C6.94617066,9.26393664 9.22119766,6.98890965 12.0189288,6.98890965 Z M12.0189288,14.7825068 C13.5175122,14.7825068 14.7373391,13.5626799 14.7373391,12.0640965 C14.7373391,10.5655131 13.5175122,9.34568614 12.0189288,9.34568614 C10.5203454,9.34568614 9.30051849,10.5655131 9.30051849,12.0640965 C9.30051849,13.5626799 10.5203454,14.7825068 12.0189288,14.7825068 Z"/>
  </g>
</svg>
