<?xml version="1.0" standalone="no"?><!DOCTYPE svg PUBLIC "-//W3C//DTD SVG 1.1//EN" "http://www.w3.org/Graphics/SVG/1.1/DTD/svg11.dtd"><svg t="1548312523083" class="icon" style="" viewBox="0 0 1297 1024" version="1.1" xmlns="http://www.w3.org/2000/svg" p-id="22932" xmlns:xlink="http://www.w3.org/1999/xlink" width="253.3203125" height="200"><defs><style type="text/css"></style></defs><path d="M648.533333 1006.933333c-328.772267 0-576.648533-200.567467-630.5792-485.376v-19.114666C71.8848 217.634133 319.6928 17.066667 648.533333 17.066667c328.772267 0 576.648533 200.567467 630.5792 485.376v19.114666c-53.930667 284.808533-301.738667 485.376-630.5792 485.376z m0-102.4c276.2752 0 479.709867-161.655467 528.042667-392.533333-48.3328-230.877867-251.767467-392.533333-528.042667-392.533333-276.2752 0-479.709867 161.655467-528.042666 392.533333 48.3328 230.877867 251.767467 392.533333 528.042666 392.533333z" fill="#FFFFFF" p-id="22933"></path><path d="M648.533333 512m-170.666666 0a170.666667 170.666667 0 1 0 341.333333 0 170.666667 170.666667 0 1 0-341.333333 0Z" fill="#FFFFFF" p-id="22934"></path></svg>