<?xml version="1.0" encoding="iso-8859-1"?>
<!-- Generator: Adobe Illustrator 16.0.0, SVG Export Plug-In . SVG Version: 6.00 Build 0)  -->
<!DOCTYPE svg PUBLIC "-//W3C//DTD SVG 1.1//EN" "http://www.w3.org/Graphics/SVG/1.1/DTD/svg11.dtd">
<svg version="1.1" id="Capa_1" xmlns="http://www.w3.org/2000/svg" xmlns:xlink="http://www.w3.org/1999/xlink" x="0px" y="0px"
	 width="357.958px" height="357.958px" viewBox="0 0 357.958 357.958" style="enable-background:new 0 0 357.958 357.958;"
	 xml:space="preserve">
<g>
	<path fill="#FFF" d="M316.345,41.472C268.376-6.495,198.05-13.942,159.267,24.839c-29.379,29.381-32.221,76.861-11.021,119.012L5.731,286.363
		c-3.795,3.795-5.816,9.013-5.57,14.371l-0.004,39.027c0.227,4.928,2.311,9.364,5.57,12.625c3.262,3.261,7.699,5.345,12.625,5.571
		l38.727-0.304c5.359,0.246,10.576-1.775,14.373-5.571l14.52-14.521c3.58-3.579,5.592-8.436,5.592-13.5v-19.631h19.631
		c5.064,0,9.92-2.012,13.5-5.592l17.021-17.021c3.58-3.58,5.588-8.436,5.588-13.498v-19.632l19.633-0.001
		c5.064,0,9.922-2.011,13.5-5.592l33.529-33.526c42.149,21.2,89.629,18.358,119.01-11.021
		C371.759,159.766,364.312,89.441,316.345,41.472z M293.448,121.314c-10.412,10.412-31.602,6.105-47.326-9.62
		s-20.034-36.913-9.62-47.325c10.414-10.414,31.604-6.107,47.327,9.617C299.552,89.712,303.862,110.901,293.448,121.314z"/>
</g>
<g>
</g>
<g>
</g>
<g>
</g>
<g>
</g>
<g>
</g>
<g>
</g>
<g>
</g>
<g>
</g>
<g>
</g>
<g>
</g>
<g>
</g>
<g>
</g>
<g>
</g>
<g>
</g>
<g>
</g>
</svg>
