<!--?xml version="1.0" encoding="iso-8859-1"?-->
<!-- Generator: Adobe Illustrator 19.0.0, SVG Export Plug-In . SVG Version: 6.00 Build 0)  -->
<svg version="1.1" id="Layer_1" xmlns="http://www.w3.org/2000/svg" xmlns:xlink="http://www.w3.org/1999/xlink" x="0px" y="0px" viewBox="0 0 512 512" style="enable-background:new 0 0 512 512;" xml:space="preserve" class="">
<path style="fill:#f01d2b;" d="M503.467,256c0,136.67-110.797,247.467-247.467,247.467S8.533,392.67,8.533,256
	S119.33,8.533,256,8.533S503.467,119.33,503.467,256z" data-original="#555656" class="           "></path>
<path style="fill:#f51841;" d="M469.333,273.067c0.034,86.673-45.286,167.049-119.467,211.883
	c-126.455,51.84-271.002-8.644-322.842-135.108C14.822,320.06,8.533,288.188,8.533,256C8.439,169.267,53.769,88.806,128,43.947
	c126.455-51.84,271.002,8.644,322.842,135.108C463.07,208.887,469.35,240.819,469.333,273.067z" data-original="#717272" class="              "></path>
<polygon style="fill:#faf2f6;" points="366.933,213.248 298.667,213.248 298.667,418.048 213.333,418.048 213.333,213.248 
	145.067,213.248 238.933,112.128 256,93.781 " data-original="#AD1457" class="  "></polygon>
<polygon style="fill:#f5f0f2;" points="332.8,213.248 272.384,209.664 272.384,414.464 213.333,418.048 213.333,213.248 
	145.067,213.248 238.933,112.128 " data-original="#D81B60" class="   "></polygon>
<path d="M256,512C114.611,512,0,397.389,0,256S114.611,0,256,0l0,0c141.389,0,256,114.611,256,256S397.389,512,256,512z M256,17.067
	C124.041,17.067,17.067,124.041,17.067,256S124.041,494.933,256,494.933S494.933,387.96,494.933,256
	c0.896-131.063-104.619-238.037-235.682-238.933C258.167,17.058,257.084,17.058,256,17.067z" style="fill:#f7edf7;" data-original="#000000" class=" active-path "></path>
<path d="M298.667,426.667h-85.333c-4.71,0-8.533-3.823-8.533-8.533V221.867h-59.733c-4.71-0.017-8.525-3.849-8.508-8.559
	c0.009-2.142,0.819-4.207,2.278-5.777L249.771,88.064c3.217-3.439,8.619-3.618,12.058-0.401c0.137,0.128,0.273,0.265,0.401,0.401
	l110.933,119.467c3.209,3.456,3.004,8.858-0.452,12.058c-1.57,1.459-3.635,2.27-5.777,2.278H307.2v196.267
	C307.2,422.844,303.377,426.667,298.667,426.667z M221.867,409.6h68.267V213.333c0-4.71,3.823-8.533,8.533-8.533h48.725L256,106.325
	L164.608,204.8h48.725c4.71,0,8.533,3.823,8.533,8.533V409.6z" style="fill:#f7edf7;" data-original="#000000" class=" active-path "></path>
<g>
</g>
<g>
</g>
<g>
</g>
<g>
</g>
<g>
</g>
<g>
</g>
<g>
</g>
<g>
</g>
<g>
</g>
<g>
</g>
<g>
</g>
<g>
</g>
<g>
</g>
<g>
</g>
<g>
</g>
</svg>
