<svg xmlns="http://www.w3.org/2000/svg" width="20" height="20" viewBox="0 0 20 20">
  <g fill="none" fill-rule="evenodd">
    <rect width="20" height="20"/>
    <path fill="#FFF226" d="M7,18 C4.23857625,18 2,16.6568542 2,15 C2,13.3431458 4.23857625,12 7,12 C9.76142375,12 12,13.3431458 12,15 C12,16.6568542 9.76142375,18 7,18 Z M7,8 C5.34314575,8 4,6.65685425 4,5 C4,3.34314575 5.34314575,2 7,2 C8.65685425,2 10,3.34314575 10,5 C10,6.65685425 8.65685425,8 7,8 Z"/>
    <path d="M7.14480875,9.09417814 C8.68056548,9.09417814 10.0651017,8.1690606 10.6528104,6.7502064 C11.240519,5.33135219 10.9156609,3.69818036 9.82971693,2.61223637 C8.74377293,1.52629237 7.1106011,1.2014343 5.69174689,1.78914296 C4.27289269,2.37685163 3.34777517,3.76138786 3.34777518,5.29714458 C3.34777519,7.39418831 5.04776502,9.09417814 7.14480875,9.09417814 Z M7.14480875,3.39862779 C8.19333061,3.39862779 9.04332552,4.24862269 9.04332553,5.29714455 C9.04332553,6.34566641 8.19333063,7.19566133 7.14480877,7.19566134 C6.09628691,7.19566135 5.24629199,6.34566644 5.24629197,5.29714458 C5.24629197,4.79362663 5.44631369,4.31073145 5.80235466,3.95469048 C6.15839562,3.59864952 6.64129079,3.39862779 7.14480875,3.39862779 Z M14.7388759,10.9926949 C16.3116587,10.9926949 17.5866511,9.71770256 17.5866511,8.14491976 C17.5866511,6.57213696 16.3116587,5.29714458 14.7388759,5.29714458 C13.1660931,5.29714458 11.8911007,6.57213696 11.8911007,8.14491976 C11.8911007,9.71770256 13.1660931,10.9926949 14.7388759,10.9926949 Z M14.7388759,7.19566136 C15.1228151,7.19566135 15.4689491,7.42694073 15.6158763,7.78165428 C15.7628035,8.13636783 15.681589,8.5446608 15.410103,8.8161468 C15.138617,9.08763281 14.730324,9.16884733 14.3756104,9.02192017 C14.0208969,8.87499301 13.7896175,8.52885895 13.7896175,8.14491976 C13.7896175,7.62065883 14.2146149,7.19566137 14.7388759,7.19566136 Z M14.7388759,11.9419533 C13.6869318,11.9431185 12.6651809,12.2937193 11.8341452,12.9386746 C9.93285393,11.0448448 7.07903418,10.4805553 4.60006208,11.5082698 C2.12108998,12.5359844 0.503630251,14.9539451 0.5,17.6375037 C0.500000011,18.1617646 0.92499747,18.586762 1.4492584,18.586762 C1.97351933,18.586762 2.39851679,18.1617646 2.3985168,17.6375037 C2.39851684,15.016199 4.52350411,12.8912118 7.14480875,12.8912118 C9.76611339,12.8912118 11.8911007,15.016199 11.8911007,17.6375037 C11.8911007,18.1617646 12.3160982,18.586762 12.8403591,18.586762 C13.36462,18.586762 13.7896175,18.1617646 13.7896175,17.6375037 C13.7918818,16.5253819 13.5109353,15.4309972 12.9732553,14.4574881 C13.8292282,13.7810885 14.9963977,13.6531533 15.9785683,14.1280711 C16.9607388,14.602989 17.5852679,15.5972805 17.5866511,16.6882453 C17.5866511,17.2125062 18.0116485,17.6375036 18.5359095,17.6375036 C19.0601704,17.6375036 19.4851678,17.2125062 19.4851679,16.6882453 C19.4851679,15.4294504 18.9851135,14.2222124 18.0950111,13.33211 C17.2049087,12.4420076 15.9976708,11.9419533 14.7388759,11.9419533 Z"/>
  </g>
</svg>
