<svg xmlns="http://www.w3.org/2000/svg" width="23" height="23" viewBox="0 0 23 23">
  <g fill="none" fill-rule="evenodd">
    <rect width="23" height="23" fill="#000" opacity="0"/>
    <path fill="#444" fill-rule="nonzero" d="M17.2011236,16.1903609 C17.0704342,16.3777989 17.116449,16.635684 17.3039099,16.7663504 C17.4913708,16.8970398 17.749233,16.851002 17.8798994,16.6635641 C18.8601618,15.2574005 19.5789994,13.708021 20.0163929,12.0584294 C20.3658249,10.7405489 20.5371738,9.35677211 20.5256586,7.94552892 C20.5060299,5.54050852 19.9666316,3.90098413 19.9436931,3.83237565 C19.8877261,3.66507208 19.7318228,3.55166696 19.5554174,3.54992015 C15.0801216,3.50565216 12.7973783,1.53607155 12.0227575,0.690015161 C11.9752947,0.637587717 11.766826,0.429578727 11.435,0.410202866 C11.2656279,0.40031956 11.0072141,0.438933393 10.7391238,0.679235461 C10.7294014,0.687946554 10.7200927,0.697117332 10.7112438,0.706724818 C8.38365786,3.22878187 4.67879975,3.53523308 3.19396047,3.54994311 C3.01077468,3.55175887 2.85057328,3.6738291 2.8002604,3.85000466 C2.79148035,3.88071184 2.58379316,4.61621316 2.45073638,5.81742475 C2.32864315,6.91994125 2.2493929,8.64414025 2.56533669,10.5971261 C2.92125037,12.7972634 3.69531957,14.8328783 4.86603083,16.647406 C6.32657557,18.9111872 8.40907863,20.8308227 11.0557112,22.3529886 C11.1088742,22.3835579 11.168174,22.4019454 11.2292895,22.4067722 L11.2862449,22.4112771 C11.2971625,22.4121505 11.3080571,22.4125872 11.3189287,22.4125872 C11.3911458,22.4125872 11.4622826,22.393694 11.5251909,22.3575166 C12.8035612,21.622291 13.9750539,20.7868075 15.0072611,19.8742112 C15.1259756,19.7811473 16.607735,18.6347076 17.6851984,18.4883658 C17.9116179,18.4576127 18.0702104,18.249144 18.0394572,18.0227246 C18.0086811,17.7962821 17.8000745,17.6374598 17.5738159,17.6684658 C16.2296873,17.851008 14.5546059,19.1767721 14.4839289,19.2331299 C14.4783896,19.2375429 14.4729653,19.2421168 14.4676789,19.2468056 C13.5240537,20.0821283 12.457255,20.8511869 11.2943584,21.5346055 C8.85286174,20.0996654 6.92865236,18.3113629 5.57293953,16.216793 C4.46401039,14.5035346 3.72876189,12.579555 3.38758121,10.4983161 C2.91207959,7.59775167 3.34319831,5.18425002 3.52449938,4.37094644 C5.45098423,4.3133245 7.18991624,3.91029276 8.69769395,3.1714357 C9.9890734,2.53862875 10.8260509,1.79892126 11.3042877,1.2841163 C11.377562,1.22157571 11.3968229,1.23476877 11.4150036,1.25154738 C11.887954,1.76754753 12.7235984,2.51566732 14.023574,3.15757609 C15.5415798,3.90716687 17.2948541,4.31500235 19.2394047,4.37136014 C19.3862981,4.91765376 19.684245,6.2326382 19.6982655,7.95228627 C19.7091831,9.2897035 19.54712,10.5998382 19.2166041,11.8463521 C18.8040339,13.4022133 18.1259246,14.8637464 17.2011236,16.1903609 Z M6.23169592,6.25449644 C6.44977206,6.18634764 6.57133665,5.95429698 6.50318785,5.73622084 C6.43503905,5.5181217 6.20303435,5.39660311 5.98488925,5.46472891 C5.53108492,5.60654276 4.91349366,5.66694581 4.90747175,5.66752043 C4.72350447,5.68503455 4.5734622,5.82245838 4.539859,6.00417318 C4.52678087,6.0749422 4.22373134,7.76314759 4.59251631,10.0192749 C4.62568282,10.2221814 4.80119183,10.3663166 5.00030584,10.3663166 C5.02246281,10.3663166 5.04496456,10.3645238 5.06755824,10.3608234 C5.29305835,10.3239564 5.44597367,10.1112816 5.40910667,9.88578143 C5.15138241,8.30911942 5.24683668,7.01033897 5.31227332,6.45073738 C5.56468815,6.41428411 5.921843,6.35132979 6.23169592,6.25449644 Z"/>
  </g>
</svg>
