<?xml version="1.0" encoding="iso-8859-1"?>
<!-- Generator: Adobe Illustrator 16.0.0, SVG Export Plug-In . SVG Version: 6.00 Build 0)  -->
<!DOCTYPE svg PUBLIC "-//W3C//DTD SVG 1.1//EN" "http://www.w3.org/Graphics/SVG/1.1/DTD/svg11.dtd">
<svg version="1.1" id="Capa_1" xmlns="http://www.w3.org/2000/svg" xmlns:xlink="http://www.w3.org/1999/xlink" x="0px" y="0px"
	 width="332.936px" height="332.936px" viewBox="0 0 332.936 332.936" style="enable-background:new 0 0 332.936 332.936;"
	 xml:space="preserve">
<g>
	<g>
		<path fill="#FFF" d="M175.253,188.568h-0.048c-0.15,0-0.559,0.456-0.655,1.579c-0.973,9.788-1.948,20.099-2.765,28.739
			c-0.615,6.449-1.132,11.961-1.501,15.601c-0.061,0.816,0.062,1.093,0.062,1.099c0.43-0.21,0.823-0.265,1.252-0.354
			c9.905-2.582,21.885-9.319,21.885-26.553C193.478,198.692,188.367,193.138,175.253,188.568z"/>
		<path fill="#FFF" d="M156.86,94.671c-0.976,0-1.991,0.27-3.006,0.798c-8.626,4.519-13.388,12.938-13.388,23.698
			c0,10.181,7.455,17.777,19.948,20.611c0.123,0.024,0.252,0.042,0.375,0.054c0.018-0.129,0.042-0.247,0.063-0.325
			c0.465-6.533,1.033-13.738,1.567-20.605c0.405-5.197,0.799-10.189,1.132-14.636c0.219-2.888-0.684-5.723-2.417-7.581
			C160.28,95.764,158.848,94.671,156.86,94.671z"/>
		<path fill="#FFF" d="M167.261,0C75.333,0,0.759,74.507,0.759,166.507c0,91.945,74.574,166.429,166.501,166.429
			c91.933,0,164.915-74.483,164.915-166.429C332.176,74.507,259.193,0,167.261,0z M199.446,243.633
			c-13.787,7.625-18.987,8.959-28.529,11.055c-2.705,0.576-2.78,0.973-3.215,3.182c-3.117,20.549-5.423,22.759-12.211,26.649
			l-2.774,1.622c-0.952,0.576-1.777,1.062-2.711,1.242l-1.748,0.055l-1.069-1.081c-1.366-1.682-0.826-4.468,0.64-11.169
			c0.33-1.525,0.675-3.099,0.952-4.563c0.646-3.387,1.054-7.014,1.237-11.073c0.147-1.729-0.135-2.342-2.065-2.534
			c-23.233-2.534-32.282-7.308-41.728-15.798c-3.405-3.068-6.584-9.025-2.399-19.961c3.66-9.541,13.436-22.182,17.15-22.182h2.48
			l0.246,2.787c0.57,14.441,4.671,20.224,8.473,24.499c3.792,4.27,9.593,7.092,18.254,8.882c0.91-0.013,1.207-0.277,1.297-1.01
			c0.897-7.89,3.173-28.534,4.833-49.329c-0.018-0.402-0.474-2.672-1.954-3.122c-35.726-10.406-47.783-22.194-47.783-46.69
			c0-17.844,9.911-41.346,28.85-51.726c4.564-2.594,9.347-4.831,14.163-6.659c3.429-1.285,6.896-2.318,9.695-3.146
			c2.054-0.609,4.54-1.348,5.473-1.795c0.294-0.991,0.504-3.48,0.64-5.038l0.171-1.955c0.204-1.99,0.387-4.095,0.387-5.539
			c0-2.159,1.729-4.459,5.786-7.675c2.624-2.077,7.374-5.62,9.722-5.989l0.612-0.048c1.237,0,3.314,0.564,3.314,4.341
			c-0.156,4.612-0.408,7.558-0.702,10.944c-0.223,2.588-0.463,5.467-0.715,9.544c-0.072,0.769-0.018,1.162,0.019,1.333
			c0.065-0.024,0.27,0.012,0.63,0.012c12.136,0.639,19.528,3.332,25.185,5.902c8.358,4.029,13.673,16.375,13.673,23.115
			c0,11.607-11.794,22.155-17.18,25.172l-0.589,0.315c-0.889,0.478-2.012,1.075-3.254,1.075c-1.153,0-3.819-0.511-3.819-5.239
			c0.18-9.581-2.522-17.648-7.614-22.737c-1.093-1.096-2.246-1.654-3.429-1.654c-2.792,0-6.022,3.27-6.377,8.134
			c-0.463,6.095-0.931,12.315-1.411,18.356c-0.541,7.059-1.081,13.877-1.514,19.945c0.006,1.444,0.637,1.612,0.973,1.69
			c27.736,8.271,51.594,15.372,51.594,45.87C231.104,213.038,219.268,232.469,199.446,243.633z"/>
	</g>
</g>
<g>
</g>
<g>
</g>
<g>
</g>
<g>
</g>
<g>
</g>
<g>
</g>
<g>
</g>
<g>
</g>
<g>
</g>
<g>
</g>
<g>
</g>
<g>
</g>
<g>
</g>
<g>
</g>
<g>
</g>
</svg>
