<?xml version="1.0" standalone="no"?><!DOCTYPE svg PUBLIC "-//W3C//DTD SVG 1.1//EN" "http://www.w3.org/Graphics/SVG/1.1/DTD/svg11.dtd"><svg t="1548312507779" class="icon" style="" viewBox="0 0 1297 1024" version="1.1" xmlns="http://www.w3.org/2000/svg" p-id="22821" xmlns:xlink="http://www.w3.org/1999/xlink" width="253.3203125" height="200"><defs><style type="text/css"></style></defs><path d="M61.986133 178.312533a51.2 51.2 0 1 1 100.5568-19.114666c41.984 221.525333 234.564267 377.514667 497.732267 377.514666 263.168 0 455.748267-155.989333 497.732267-377.514666a51.2 51.2 0 0 1 100.625066 19.114666c-51.2 270.336-286.446933 460.8-598.357333 460.8-311.842133 0-547.089067-190.464-598.289067-460.8z" fill="#FFFFFF" p-id="22822"></path><path d="M610.850133 587.844267a51.2 51.2 0 0 1 102.4 0v256.887466a51.2 51.2 0 1 1-102.4 0V587.776zM968.635733 528.9984a51.2 51.2 0 0 1 72.362667-72.430933l203.298133 203.298133a51.2 51.2 0 0 1-72.362666 72.362667L968.635733 529.066667zM341.674667 528.9984a51.2 51.2 0 1 0-72.362667-72.430933L66.013867 659.8656a51.2 51.2 0 1 0 72.362666 72.362667L341.742933 529.066667z" fill="#FFFFFF" p-id="22823"></path></svg>