<svg xmlns="http://www.w3.org/2000/svg" width="19" height="18" viewBox="0 0 19 18">
  <path fill="#FFF" d="M11.1033427,9.7185 L17.9254214,16.5405786 C18.3550262,16.9701835 18.3550262,17.6763165 17.9254214,18.1059214 L17.8874214,18.1439214 C17.4578165,18.5735262 16.7516835,18.5735262 16.3220786,18.1439214 L9.5,11.3218427 L2.67792136,18.1439214 C2.2483165,18.5735262 1.5421835,18.5735262 1.11257864,18.1439214 L1.07457864,18.1059214 C0.644973785,17.6763165 0.644973785,16.9701835 1.07457864,16.5405786 L7.89665754,9.71849974 L1.07647666,2.89829424 C0.634841112,2.46828067 0.634841112,1.75921933 1.07457864,1.33107864 L1.11257864,1.29307864 C1.5421835,0.863473785 2.2483165,0.863473785 2.67801773,1.29317508 L9.5,8.12446429 L16.3220786,1.29307864 C16.7516835,0.863473785 17.4578165,0.863473785 17.8874214,1.29307864 L17.9254214,1.33107864 C18.3550262,1.7606835 18.3550262,2.4668165 17.9254214,2.89642136 L11.1033427,9.7185 Z" transform="translate(0 -1)"/>
</svg>
