<svg xmlns="http://www.w3.org/2000/svg" width="20" height="20" viewBox="0 0 20 20">
  <path fill="#FFF" fill-rule="evenodd" d="M18.909631,9.61896564 L12.3735836,9.61896564 L12.3735836,3.08291822 C12.3735836,2.31129613 11.7481832,1.68589571 10.9765611,1.68589571 C10.2049389,1.68589571 9.57953855,2.31129611 9.57953857,3.08291822 L9.57953857,9.61896564 L3.04349115,9.61896564 C2.27200458,9.61906131 1.64664188,10.2445016 1.64664188,11.0159881 C1.64664188,11.7874747 2.27200458,12.412915 3.04349115,12.4130107 L9.57953857,12.4130107 L9.57953857,18.9490581 C9.57953857,19.7206802 10.204939,20.3460806 10.9765611,20.3460806 C11.7481832,20.3460806 12.3735836,19.7206802 12.3735836,18.9490581 L12.3735836,12.4130107 L18.9094758,12.4130107 C19.68103,12.4130106 20.3064983,11.7875424 20.3064983,11.0159882 C20.3065806,10.6454764 20.1594425,10.2901139 19.8974657,10.028108 C19.6354889,9.76610207 19.2801428,9.61892446 18.909631,9.61896564 Z" transform="translate(-1 -1)"/>
</svg>
