<svg xmlns="http://www.w3.org/2000/svg" width="20" height="20" viewBox="0 0 20 20">
  <g fill="none" fill-rule="evenodd">
    <rect width="20" height="20"/>
    <g fill-rule="nonzero" transform="translate(2 1)">
      <path d="M15.6255215,8.98688547 L10.922753,4.18042425 C10.8082234,4.06495168 10.6523209,4 10.4896835,4 C10.3270461,4 10.1711436,4.06495168 10.056614,4.18042425 L5.35384553,8.99298503 C5.12398643,9.22469881 4.99656504,9.53885845 5.00007046,9.86522356 L5.00007046,14.9766633 C4.99908907,15.6250475 5.50548562,16.1609169 6.1528892,16.1965773 L14.8264778,16.1965773 C15.4738814,16.1609169 15.980278,15.6250475 15.9792966,14.9766633 L15.9792966,9.86522356 C15.9797803,9.53763639 15.8529248,9.22268484 15.6255215,8.98688547 Z"/>
      <path fill="#22272E" d="M15.4851149,7.26859125 L8.64069353,0.273255303 C8.47400693,0.105196224 8.24710605,0.010665383 8.01040312,0.010665383 C7.77370019,0.010665383 7.54679931,0.105196224 7.38011271,0.273255303 L0.535691381,7.27746857 C0.201153861,7.61470538 0.0157044402,8.07193413 0.0208062419,8.54692675 L0.0208062419,15.9861292 C0.0193779221,16.9297892 0.756388758,17.7096949 1.69862159,17.7615952 L14.3221847,17.7615952 C15.2644175,17.7096949 16.0014283,16.9297892 16,15.9861292 L16,8.54692675 C16.000704,8.07015554 15.8160782,7.61177425 15.4851149,7.26859125 Z M6.23493715,15.9861292 L6.23493715,10.6597312 L9.78586909,10.6597312 L9.78586909,15.9861292 L6.23493715,15.9861292 Z M14.224534,15.9861292 L11.5613351,15.9861292 L11.5613351,9.77199827 C11.5613351,9.53655684 11.4678063,9.31075848 11.3013241,9.14427625 C11.1348419,8.97779402 10.9090435,8.88426528 10.6736021,8.88426528 L5.34720416,8.88426528 C5.11176273,8.88426528 4.88596437,8.97779402 4.71948214,9.14427625 C4.55299991,9.31075848 4.45947117,9.53655684 4.45947117,9.77199827 L4.45947117,15.9861292 L1.79627221,15.9861292 L1.79627221,8.51141743 L8.01040312,2.16412656 L14.224534,8.54692675 L14.224534,15.9861292 Z"/>
    </g>
  </g>
</svg>
