<svg xmlns="http://www.w3.org/2000/svg" width="23" height="23" viewBox="0 0 23 23">
  <path fill="#444" d="M9.16868788,12.988576 C9.16868788,12.988576 9.16868788,12.988576 9.16868788,12.988576 C5.73373626,12.8760021 3.04590565,11.6917731 3.04590565,10.4118719 L3.04590565,6.64006391 L3.44145541,6.90528426 C4.83563193,7.84009455 7.23472343,8.3950635 9.70321464,8.3950635 C12.169085,8.3950635 14.5695842,7.83843566 15.9649739,6.90281196 L16.3605236,6.63759161 C16.2445355,7.27951403 16.2445355,7.86689382 16.3605236,8.39973097 C16.4617834,8.65277419 16.5839656,8.86335267 16.7270704,9.0314664 L16.7271112,9.03143163 C16.839971,9.16401482 17.0136807,9.2283314 17.18567,9.20121455 L17.4283533,9.16295167 C17.5328347,9.14647851 17.6041796,9.04842542 17.5877064,8.94394397 C17.5805746,8.89871006 17.557471,8.85752872 17.5225844,8.82786578 C17.3354103,8.66875499 17.2418323,8.50580992 17.2418323,8.33905196 C17.2418323,7.58166053 17.2418323,6.44557339 17.2418323,4.93079053 C17.2418323,2.91910245 13.8284008,1.46651756 9.70568694,1.46651756 C5.5781162,1.46651756 2.164597,2.91751327 2.164597,4.93079053 L2.164597,15.8929533 C2.164597,17.809672 5.25621566,19.2164931 9.11351188,19.3472743 C9.37434851,19.3472743 9.59596842,19.4352616 9.77837159,19.6112364 L9.77838525,19.6112223 C9.83639161,19.6671843 9.92878126,19.6655271 9.98474331,19.6075207 C10.010988,19.5803173 10.0256542,19.5439921 10.0256542,19.5061924 L10.0256824,19.1706418 C10.0256824,19.0905545 10.0064454,19.0116388 9.96959029,18.9405355 C9.80592531,18.6247823 9.536139,18.4669057 9.16023136,18.4669057 C5.72806013,18.4669057 3.04590565,17.1693317 3.04590565,15.890481 L3.04590565,12.1236176 L3.44145541,12.3888379 C4.72887861,13.252069 6.86920203,13.7923664 9.12987136,13.8711009 C9.12987136,13.8711009 9.12987136,13.8711009 9.12987136,13.8711009 L9.12987136,13.8711009 C9.30018492,13.8770325 9.4430599,13.7437747 9.44899156,13.5734611 C9.4491162,13.5698824 9.44917854,13.5663018 9.44917854,13.5627209 L9.44915915,13.2783897 C9.44915915,13.1219415 9.32505215,12.9937005 9.16868788,12.988576 Z M9.70321464,2.34782621 C13.3897132,2.34782621 16.3605236,3.58767215 16.3605236,4.93326283 C16.3605236,6.27723036 13.3878164,7.51869945 9.70321464,7.51869945 C6.01671614,7.51869945 3.04590565,6.2788535 3.04590647,4.93390765 C3.04249215,3.58866557 6.01734631,2.34782621 9.70321464,2.34782621 Z M20.932971,12.0485322 C20.932971,10.7609117 18.9810287,9.66465283 15.9309296,9.66465283 C12.8808305,9.66465283 10.9288882,10.7609117 10.9288882,12.0485322 L10.9288882,19.0945773 C10.9288882,20.3816555 12.8824798,21.4784567 15.9309296,21.4784567 C18.9586682,21.4784567 20.9038005,20.3982063 20.930554,19.1164708 L20.932971,19.0006759 L20.932971,12.0485322 Z M20.0516623,12.0510045 C20.0516623,12.7946759 18.1999126,13.5535753 15.9309296,13.5535753 C13.6619466,13.5535753 11.8101968,12.7946759 11.8101968,12.0510045 C11.8101968,11.3056001 13.6624785,10.5459615 15.9309296,10.5459615 C18.2011059,10.5459615 20.0516623,11.3052547 20.0516623,12.0510045 Z M15.9309296,20.5971481 C13.6619466,20.5971481 11.8101968,19.8382487 11.8101968,19.0945773 L11.8101968,16.9856311 L12.1858277,17.1903288 C13.0841206,17.679848 14.3686032,17.9579065 15.9309296,17.9579065 C17.4924333,17.9579065 18.7744954,17.680239 19.6762943,17.1901858 L20.0516623,16.9862043 L20.0516623,19.0945773 C20.0516623,19.8382487 18.1999126,20.5971481 15.9309296,20.5971481 Z M15.9309296,17.0741255 C13.6607533,17.0741255 11.8101968,16.3148323 11.8101968,15.5690825 L11.8101968,13.4601362 L12.1858277,13.6648339 C13.0841206,14.1543531 14.3686032,14.4324116 15.9309296,14.4324116 C17.4924333,14.4324116 18.7744954,14.1547441 19.6762943,13.6646909 L20.0516623,13.4607094 L20.0516623,15.5690825 C20.0516623,16.3148323 18.2011059,17.0741255 15.9309296,17.0741255 Z"/>
</svg>
