<svg xmlns="http://www.w3.org/2000/svg" width="19" height="19" viewBox="0 0 19 19">
  <g fill="none" fill-rule="evenodd">
    <rect width="19" height="19" fill="#000" opacity="0"/>
    <path fill="#FF6635" fill-rule="nonzero" d="M9.5,1.1875 C4.90957031,1.1875 1.1875,4.90957031 1.1875,9.5 C1.1875,14.0904297 4.90957031,17.8125 9.5,17.8125 C14.0904297,17.8125 17.8125,14.0904297 17.8125,9.5 C17.8125,4.90957031 14.0904297,1.1875 9.5,1.1875 Z M9.48886719,14.6953125 C8.91552734,14.6953125 8.45166016,14.2314453 8.45166016,13.65625 C8.45166016,13.0810547 8.91552734,12.6171875 9.48886719,12.6171875 C10.062207,12.6171875 10.5260742,13.0810547 10.5260742,13.65625 C10.5260742,14.2314453 10.062207,14.6953125 9.48886719,14.6953125 Z M10.5260742,10.0195312 C10.5260742,10.3071289 10.2941406,10.5390625 10.006543,10.5390625 L8.96933594,10.5390625 C8.68359375,10.5390625 8.44980469,10.3071289 8.44980469,10.0195312 L8.44980469,4.82421875 C8.44980469,4.53662109 8.68173828,4.3046875 8.96933594,4.3046875 L10.006543,4.3046875 C10.2922852,4.3046875 10.5260742,4.53662109 10.5260742,4.82421875 L10.5260742,10.0195312 Z"/>
  </g>
</svg>
