<!--?xml version="1.0" encoding="iso-8859-1"?-->
<!-- Generator: Adobe Illustrator 16.0.0, SVG Export Plug-In . SVG Version: 6.00 Build 0)  -->

<svg version="1.1" id="Capa_1" xmlns="http://www.w3.org/2000/svg" xmlns:xlink="http://www.w3.org/1999/xlink" x="0px" y="0px" width="469.877px" height="469.877px" viewBox="0 0 469.877 469.877" style="enable-background:new 0 0 469.877 469.877;" xml:space="preserve" class="">
<g>
	<g id="Layer_2_20_">
		<g>
			<path fill="#FFF" d="M133.723,146.216c3.12,40.979,19.418,23.318,22.779,41.27c5.59,29.846,32.016,51.439,48.466,58.893
				c9.585,4.344,19.454,6.535,29.83,6.715l0,0h0.001c0.001,0,0.001,0,0.001,0l0,0c10.376-0.18,20.245-2.371,29.83-6.715
				c16.449-7.453,42.876-29.047,48.466-58.893c3.361-17.951,19.659-0.29,22.779-41.27c0-16.332-8.897-20.393-8.897-20.393
				s4.521-24.17,6.294-42.768C335.468,59.873,319.741,0,235.862,0c-0.367,0-0.708,0.018-1.063,0.021
				C234.443,0.017,234.102,0,233.736,0c-83.879,0-99.606,59.873-97.41,83.055c1.772,18.598,6.294,42.768,6.294,42.768
				S133.723,129.884,133.723,146.216z" style="fill:#f5e9f5;" data-original="#000000" class="    active-path  "></path>
			<path fill="#FFF" d="M365.655,309.986c-18.168-6.553-49.795-25.438-55.214-28.354c-1.404-0.814-3.03-1.292-4.772-1.292
				c-3.801,0-7.074,2.233-8.599,5.458c-14.979,25.08-42.753,83.751-62.131,85.102c-19.38-1.351-47.152-60.021-62.133-85.102
				c-1.524-3.225-4.796-5.458-8.598-5.458c-1.742,0-3.369,0.478-4.773,1.292c-5.417,2.915-37.046,21.801-55.213,28.354
				c-60.987,21.99-88.416,44.418-88.416,59.709c0,15.275,0,100.182,0,100.182h219.133h219.132c0,0,0-84.906,0-100.182
				C454.07,354.404,426.641,331.977,365.655,309.986z" style="fill:#f5e9f5;" data-original="#000000" class="    active-path  "></path>
		</g>
	</g>
</g>
<g>
</g>
<g>
</g>
<g>
</g>
<g>
</g>
<g>
</g>
<g>
</g>
<g>
</g>
<g>
</g>
<g>
</g>
<g>
</g>
<g>
</g>
<g>
</g>
<g>
</g>
<g>
</g>
<g>
</g>
</svg>
