<svg xmlns="http://www.w3.org/2000/svg" width="16" height="16" viewBox="0 0 16 16">
  <g fill="none" fill-rule="evenodd">
    <rect width="16" height="16" fill="#000" opacity="0"/>
    <path fill="#1C1C1C" d="M14.328125,7.146875 C14.8000302,7.146875 15.18125,7.52809479 15.18125,8 L15.18125,13.15625 C15.18125,14.2750302 14.2750302,15.18125 13.15625,15.18125 L2.84375,15.18125 C1.72496979,15.18125 0.81875,14.2750302 0.81875,13.15625 L0.81875,2.84375 C0.81875,1.72496979 1.72496979,0.81875 2.84375,0.81875 L8,0.81875 C8.47190521,0.81875 8.853125,1.19996979 8.853125,1.671875 C8.853125,2.14378021 8.47190521,2.525 8,2.525 L3.3125,2.525 C2.87815521,2.525 2.525,2.87815521 2.525,3.3125 L2.525,12.6875 C2.525,13.1218448 2.87815521,13.475 3.3125,13.475 L12.6875,13.475 C13.1218448,13.475 13.475,13.1218448 13.475,12.6875 L13.475,8 C13.475,7.52809479 13.8562198,7.146875 14.328125,7.146875 Z M5.3888483,10.8455267 C5.01777973,10.4744581 5.01777973,9.86772938 5.38886642,9.49664269 L13.0122858,1.8747858 C13.3833544,1.50371723 13.9885206,1.50371723 14.3595892,1.8747858 C14.7306578,2.24585438 14.7306578,2.85102062 14.3595892,3.2220892 L6.7361517,10.8455267 C6.36508312,11.2165953 5.75991688,11.2165953 5.3888483,10.8455267 Z"/>
  </g>
</svg>
