<?xml version="1.0" encoding="iso-8859-1"?>
<!-- Generator: Adobe Illustrator 16.0.0, SVG Export Plug-In . SVG Version: 6.00 Build 0)  -->
<!DOCTYPE svg PUBLIC "-//W3C//DTD SVG 1.1//EN" "http://www.w3.org/Graphics/SVG/1.1/DTD/svg11.dtd">
<svg version="1.1" id="Capa_1" xmlns="http://www.w3.org/2000/svg" xmlns:xlink="http://www.w3.org/1999/xlink" x="0px" y="0px"
	 width="487.724px" height="487.724px" viewBox="0 0 487.724 487.724" style="enable-background:new 0 0 487.724 487.724;"
	 xml:space="preserve">
<g>
	<g>
		<path fill="#FFF" d="M430.9,190.953H56.824c-14.874,0-26.975,12.101-26.975,26.975v242.82c0,14.874,12.101,26.976,26.975,26.976H430.9
			c14.875,0,26.975-12.102,26.975-26.976v-242.82C457.875,203.053,445.775,190.953,430.9,190.953z M76.303,329.615v-81.613
			c0-9.932,8.052-17.983,17.982-17.983h31.365v117.579H94.285C84.355,347.597,76.303,339.546,76.303,329.615z M130.383,441.289
			c0,3.531-2.862,6.395-6.394,6.395h-21.095c-3.531,0-6.394-2.862-6.394-6.395v-40.643c0-3.53,2.862-6.394,6.394-6.394h21.095
			c3.531,0,6.394,2.862,6.394,6.394V441.289z M181.528,441.289c0,3.531-2.862,6.395-6.393,6.395h-21.096
			c-3.531,0-6.394-2.862-6.394-6.395v-40.643c0-3.53,2.862-6.394,6.394-6.394h21.096c3.53,0,6.393,2.862,6.393,6.394V441.289
			L181.528,441.289z M193.883,329.615c0,9.931-8.052,17.981-17.983,17.981h-31.365v-49.349h49.349L193.883,329.615L193.883,329.615z
			 M193.883,279.367h-49.349v-49.35h31.365c9.932,0,17.983,8.053,17.983,17.983L193.883,279.367L193.883,279.367z M288.932,441.289
			c0,3.531-2.862,6.395-6.394,6.395h-21.096c-3.531,0-6.394-2.862-6.394-6.395v-40.643c0-3.53,2.862-6.394,6.394-6.394h21.096
			c3.531,0,6.394,2.862,6.394,6.394V441.289z M340.078,441.289c0,3.531-2.861,6.395-6.393,6.395h-21.098
			c-3.529,0-6.393-2.862-6.393-6.395v-40.643c0-3.53,2.861-6.394,6.393-6.394h21.098c3.529,0,6.393,2.862,6.393,6.394V441.289z
			 M391.222,441.289c0,3.531-2.861,6.395-6.395,6.395h-21.096c-3.531,0-6.393-2.862-6.393-6.395v-40.643
			c0-3.53,2.861-6.394,6.393-6.394h21.096c3.531,0,6.395,2.862,6.395,6.394V441.289z"/>
		<path fill="#FFF" d="M281.865,22.095c0.006-0.001,0.014,0,0.021,0l29.688,29.688L187.053,176.304h87.497l80.771-80.771l67.188,67.188v0.02
			l-13.562,13.564h30.986c6.76-8.662,6.174-21.234-1.789-29.198L297.5,6.461c-8.614-8.615-22.633-8.615-31.248,0L96.406,176.304
			h31.249L281.865,22.095z"/>
	</g>
</g>
<g>
</g>
<g>
</g>
<g>
</g>
<g>
</g>
<g>
</g>
<g>
</g>
<g>
</g>
<g>
</g>
<g>
</g>
<g>
</g>
<g>
</g>
<g>
</g>
<g>
</g>
<g>
</g>
<g>
</g>
</svg>
