<svg xmlns="http://www.w3.org/2000/svg" width="19" height="19" viewBox="0 0 19 19">
  <g fill="none" fill-rule="evenodd">
    <path fill="#1C1C1C" d="M17.9683984,11.3828924 C17.4064223,11.3828924 16.9413386,11.8479761 16.9413386,12.4099522 L16.9413386,14.3090438 C16.9413386,15.6267809 15.8755219,16.6925976 14.5577849,16.6925976 L4.44221514,16.6925976 C3.12447809,16.6925976 2.05866135,15.6267809 2.05866135,14.3090438 L2.05866135,4.44539442 C2.05866135,3.12765737 3.12447809,2.06184064 4.44221514,2.06184064 L6.28317131,2.06184064 C6.84514741,2.06184064 7.31023108,1.59675697 7.31023108,1.03478088 C7.31023108,0.472804781 6.84514741,0.00772111554 6.28317131,0.00772111554 L4.44221514,0.00772111554 C2.0005259,-0.0116573705 0.00454183267,1.98432669 0.00454183267,4.44539442 L0.00454183267,14.3090438 C0.00454183267,16.7507331 2.0005259,18.7467171 4.44221514,18.7467171 L14.5384064,18.7467171 C16.9994741,18.7467171 18.9954582,16.7507331 18.9954582,14.3090438 L18.9954582,12.4099522 C18.9954582,11.8479761 18.5303745,11.3828924 17.9683984,11.3828924 Z"/>
    <path fill="#1C1C1C" d="M9.96508367,9.67758566 C10.2363825,9.67758566 10.4883028,9.58069323 10.6820876,9.36752988 L16.2437131,3.80590438 L16.2437131,6.11194422 C16.2437131,6.67392032 16.7087968,7.13900398 17.2707729,7.13900398 C17.832749,7.13900398 18.2978327,6.67392032 18.2978327,6.11194422 L18.2978327,2.93387251 C18.2978327,2.23624701 18.0265339,1.57737849 17.5420717,1.09291633 C17.0576096,0.608454183 16.3793625,0.375912351 15.7011155,0.337155378 L12.5424223,0.337155378 C11.9804462,0.337155378 11.5153625,0.802239044 11.5153625,1.36421514 C11.5153625,1.92619124 11.9804462,2.3912749 12.5424223,2.3912749 L14.7903267,2.3912749 L9.24807968,7.91414343 C8.84113147,8.32109163 8.84113147,8.96058167 9.24807968,9.36752988 C9.44186454,9.58069323 9.71316335,9.67758566 9.96508367,9.67758566 Z"/>
  </g>
</svg>
