<svg fill="#FFF" height="511pt" viewBox="1 -18 511.99889 511" width="511pt" xmlns="http://www.w3.org/2000/svg"><path d="m442.972656 70.082031c-44.539062-44.871093-103.769531-69.582031-166.773437-69.582031-63.003907 0-122.234375 24.710938-166.777344 69.582031-44.511719 44.839844-69.023437 104.453125-69.023437 167.855469 0 36.703125 8.523437 73.144531 24.667968 105.792969-7.734375 29.085937-28.371094 53.253906-56.035156 65.261719-7.597656 3.296874-11.085938 12.132812-7.789062 19.730468.628906 1.445313 1.460937 2.742188 2.441406 3.871094 19.945312 22.9375 48.746094 36.09375 79.011718 36.09375 26.507813 0 51.734376-10.015625 70.996094-27.835938 36.859375 22.621094 78.945313 34.523438 122.507813 34.523438 63.003906 0 122.234375-24.710938 166.773437-69.582031 44.511719-44.839844 69.027344-104.453125 69.027344-167.855469s-24.515625-123.015625-69.027344-167.855469zm-166.773437 375.292969c-41.746094 0-81.929688-12.523438-116.214844-36.214844l-.003906.003906c-6.300781-4.363281-15-3.289062-20.019531 2.699219-14.292969 17.046875-35.164063 26.824219-57.265626 26.824219-15.078124 0-29.644531-4.601562-41.917968-12.949219 27.871094-18.507812 47.804687-47.464843 54.839844-80.8125.777343-3.691406.113281-7.347656-1.59375-10.40625-15.453126-29.546875-23.625-62.9375-23.625-96.582031 0-114.382812 92.320312-207.4375 205.800781-207.4375s205.800781 93.054688 205.800781 207.4375-92.324219 207.4375-205.800781 207.4375zm0 0"/><path d="m376.265625 255.554688c-7.855469-2.625-16.355469 1.613281-18.984375 9.46875-11.648438 34.84375-44.183594 58.25-80.949219 58.25-29.28125 0-55.859375-14.851563-71.363281-38.492188h8.746094c8.285156 0 15-6.71875 15-15 0-8.285156-6.714844-15-15-15h-40.75c-10.75 0-19.492188 8.742188-19.492188 19.492188v36.929687c0 8.285156 6.714844 15 15 15s15-6.714844 15-15v-4.785156c21.324219 28.9375 55.46875 46.855469 92.859375 46.855469 49.6875 0 93.652344-31.640626 109.402344-78.734376 2.628906-7.855468-1.613281-16.355468-9.46875-18.984374zm0 0"/><path d="m385.472656 151.871094c-8.285156 0-15 6.714844-15 15v4.492187c-6.941406-9.800781-15.394531-18.550781-25.035156-25.773437-20.070312-15.039063-43.964844-22.988282-69.105469-22.988282s-49.039062 7.949219-69.109375 22.988282c-19.390625 14.53125-33.992187 35.226562-41.109375 58.277344-2.445312 7.914062 1.992188 16.3125 9.90625 18.757812 1.476563.453125 2.964844.671875 4.429688.671875 6.40625 0 12.339843-4.136719 14.328125-10.578125 5.265625-17.042969 16.074218-32.359375 30.4375-43.125 14.835937-11.117188 32.511718-16.996094 51.117187-16.996094 18.601563 0 36.277344 5.878906 51.113281 16.996094 8.621094 6.460938 15.949219 14.570312 21.578126 23.699219h-8.796876c-8.28125 0-15 6.714843-15 15 0 8.28125 6.71875 15 15 15h40.753907c10.746093 0 19.492187-8.746094 19.492187-19.492188v-36.929687c0-8.285156-6.71875-15-15-15zm0 0"/></svg>