<!--?xml version="1.0" encoding="iso-8859-1"?-->
<!-- Generator: Adobe Illustrator 19.0.0, SVG Export Plug-In . SVG Version: 6.00 Build 0)  -->
<svg version="1.1" id="Capa_1" xmlns="http://www.w3.org/2000/svg" xmlns:xlink="http://www.w3.org/1999/xlink" x="0px" y="0px" viewBox="0 0 512 512" style="enable-background:new 0 0 512 512;" xml:space="preserve">
<g>
	<g>
		<g>
			<path d="M10.667,128c5.888,0,10.667-4.779,10.667-10.667v-96h96c5.888,0,10.667-4.779,10.667-10.667S123.221,0,117.333,0H10.667
				C4.779,0,0,4.779,0,10.667v106.667C0,123.221,4.779,128,10.667,128z" style="fill:#fcf5fc;" data-original="#000000" class="active-path"></path>
			<path d="M501.333,0H394.667C388.779,0,384,4.779,384,10.667s4.779,10.667,10.667,10.667h96v96
				c0,5.888,4.779,10.667,10.667,10.667c5.888,0,10.667-4.779,10.667-10.667V10.667C512,4.779,507.221,0,501.333,0z" style="fill:#fcf5fc;" data-original="#000000" class="active-path"></path>
			<path d="M501.333,384c-5.888,0-10.667,4.779-10.667,10.667v96h-96c-5.888,0-10.667,4.779-10.667,10.667
				c0,5.888,4.779,10.667,10.667,10.667h106.667c5.888,0,10.667-4.779,10.667-10.667V394.667C512,388.779,507.221,384,501.333,384z" style="fill:#fcf5fc;" data-original="#000000" class="active-path"></path>
			<path d="M117.333,490.667h-96v-96c0-5.888-4.779-10.667-10.667-10.667S0,388.779,0,394.667v106.667
				C0,507.221,4.779,512,10.667,512h106.667c5.888,0,10.667-4.779,10.667-10.667C128,495.445,123.221,490.667,117.333,490.667z" style="fill:#fcf5fc;" data-original="#000000" class="active-path"></path>
			<path d="M501.333,234.667H448v-96c0-5.888-4.779-10.667-10.667-10.667c-5.888,0-10.667,4.779-10.667,10.667v96h-21.333v-96
				c0-5.888-4.779-10.667-10.667-10.667S384,132.779,384,138.667v96h-21.333v-96c0-5.888-4.779-10.667-10.667-10.667
				c-5.888,0-10.667,4.779-10.667,10.667v96h-42.667v-96c0-5.888-4.779-10.667-10.667-10.667s-10.667,4.779-10.667,10.667v96H256
				v-96c0-5.888-4.779-10.667-10.667-10.667s-10.667,4.779-10.667,10.667v96H192v-96c0-5.888-4.779-10.667-10.667-10.667
				s-10.667,4.779-10.667,10.667v96h-21.333v-96c0-5.888-4.779-10.667-10.667-10.667S128,132.779,128,138.667v96H85.333v-96
				c0-5.888-4.779-10.667-10.667-10.667S64,132.779,64,138.667v96H10.667C4.779,234.667,0,239.445,0,245.333S4.779,256,10.667,256
				H64v117.333C64,379.221,68.779,384,74.667,384s10.667-4.779,10.667-10.667V256H128v96c0,5.888,4.779,10.667,10.667,10.667
				s10.667-4.779,10.667-10.667v-96h21.333v96c0,5.888,4.779,10.667,10.667,10.667S192,357.888,192,352v-96h42.667v117.333
				c0,5.888,4.779,10.667,10.667,10.667S256,379.221,256,373.333V256h21.333v117.333c0,5.888,4.779,10.667,10.667,10.667
				s10.667-4.779,10.667-10.667V256h42.667v96c0,5.888,4.779,10.667,10.667,10.667c5.888,0,10.667-4.779,10.667-10.667v-96H384v96
				c0,5.888,4.779,10.667,10.667,10.667s10.667-4.779,10.667-10.667v-96h21.333v117.333c0,5.888,4.779,10.667,10.667,10.667
				c5.888,0,10.667-4.779,10.667-10.667V256h53.333c5.888,0,10.667-4.779,10.667-10.667S507.221,234.667,501.333,234.667z" style="fill:#fcf5fc;" data-original="#000000" class="active-path"></path>
		</g>
	</g>
</g>
<g>
</g>
<g>
</g>
<g>
</g>
<g>
</g>
<g>
</g>
<g>
</g>
<g>
</g>
<g>
</g>
<g>
</g>
<g>
</g>
<g>
</g>
<g>
</g>
<g>
</g>
<g>
</g>
<g>
</g>
</svg>
