<?xml version="1.0" encoding="iso-8859-1"?>
<!-- Generator: Adobe Illustrator 19.0.0, SVG Export Plug-In . SVG Version: 6.00 Build 0)  -->
<svg version="1.1" id="Capa_1" xmlns="http://www.w3.org/2000/svg" xmlns:xlink="http://www.w3.org/1999/xlink" x="0px" y="0px"
	 viewBox="0 0 384 384" style="enable-background:new 0 0 384 384;" xml:space="preserve">
<g>
	<g>
		<path fill="#FFF" d="M144.399,266.271L147.684,256h-23.368l3.285,10.271l-15.497,48.465L136,361.616l23.896-46.88L144.399,266.271z
			 M136,326.385l-6.651-13.047L136,292.539l6.651,20.799L136,326.385z"/>
	</g>
</g>
<g>
	<g>
		<rect fill="#FFF" x="32" y="112" width="64" height="16"/>
	</g>
</g>
<g>
	<g>
		<rect fill="#FFF" x="32" y="144" width="64" height="16"/>
	</g>
</g>
<g>
	<g>
		<path fill="#FFF" d="M0,80v112h98.374l17.81,15.267l5.159-4.021c0.854-0.666,1.732-1.259,2.682-1.812l3.975-2.315V80H0z M112,182.606
			L104.292,176H16V96h96V182.606z"/>
	</g>
</g>
<g>
	<g>
		<path fill="#FFF" d="M136,182.082c-22.056,0-40,17.944-40,40c0,22.057,17.944,40,40,40c22.056,0,40-17.943,40-40S158.056,182.082,136,182.082z
			 M136,246.081c-13.233,0-24-10.767-24-24c0-13.232,10.767-24,24-24c13.233,0,24,10.768,24,24
			C160,235.314,149.233,246.081,136,246.081z"/>
	</g>
</g>
<g>
	<g>
		<path fill="#FFF" d="M256.399,186.272L259.684,176h-23.367l3.284,10.272l-15.497,48.464L248,281.616l23.896-46.88L256.399,186.272z
			 M248,246.385l-6.651-13.047L248,212.539l6.651,20.799L248,246.385z"/>
	</g>
</g>
<g>
	<g>
		<rect fill="#FFF"  x="288" y="32" width="64" height="16"/>
	</g>
</g>
<g>
	<g>
		<rect fill="#FFF" x="288" y="64" width="64" height="16"/>
	</g>
</g>
<g>
	<g>
		<path fill="#FFF" d="M256,0v119.119l3.975,2.314c0.95,0.553,1.828,1.146,2.683,1.813l5.159,4.02L285.626,112H384V0H256z M368,96h-88.292
			L272,102.606V16h96V96z"/>
	</g>
</g>
<g>
	<g>
		<path fill="#FFF" d="M248,102.082c-22.056,0-40,17.944-40,40c0,22.056,17.944,40,40,40c22.056,0,40-17.944,40-40
			C288,120.026,270.056,102.082,248,102.082z M248,166.082c-13.233,0-24-10.767-24-24c0-13.233,10.767-24,24-24
			c13.233,0,24,10.767,24,24C272,155.315,261.233,166.082,248,166.082z"/>
	</g>
</g>
<g>
	<g>
		<path fill="#FFF" d="M265.186,162.269l-3.024-0.745l-2.731,1.497c-7.412,4.062-15.447,4.062-22.859,0l-2.731-1.497l-3.024,0.745
			C198.541,170.214,176,198.888,176,232v41.105l1.998,2.268c5.744,6.52,9.78,14.139,11.997,22.644l1.559,5.983H320v-72
			C320,198.888,297.459,170.214,265.186,162.269z M304,288H203.646c-2.688-7.596-6.589-14.576-11.646-20.837V232
			c0-24.779,16.264-46.365,39.89-53.445c5.186,2.341,10.591,3.526,16.11,3.526s10.925-1.185,16.11-3.526
			C287.736,185.635,304,207.221,304,232V288z"/>
	</g>
</g>
<g>
	<g>
		<path fill="#FFF" d="M153.186,242.269l-3.025-0.744l-2.731,1.497c-7.412,4.062-15.448,4.062-22.86,0l-2.731-1.497l-3.025,0.744
			C86.541,250.214,64,278.888,64,312v72h144v-72C208,278.888,185.459,250.214,153.186,242.269z M192,368H80v-56
			c0-24.779,16.264-46.365,39.89-53.445c5.185,2.342,10.59,3.526,16.11,3.526s10.925-1.185,16.11-3.526
			C175.736,265.635,192,287.221,192,312V368z"/>
	</g>
</g>
<g>
	<g>
		<path fill="#FFF" d="M16,192H0c0,55.942,24.33,108.984,66.751,145.526l10.443-12.122C38.304,291.904,16,243.28,16,192z"/>
	</g>
</g>
<g>
	<g>
		<path fill="#FFF" d="M360.654,100.168l-14.046,7.663C360.603,133.48,368,162.585,368,192c0,45.681-17.422,88.975-49.056,121.906
			c-31.543,32.838-73.908,51.991-119.294,53.931l0.685,15.985c49.518-2.117,95.739-23.01,130.147-58.832
			C364.994,289.063,384,241.833,384,192C384,159.916,375.927,128.161,360.654,100.168z"/>
	</g>
</g>
<g>
	<g>
		<path fill="#FFF" d="M192,0C128.119,0,68.603,31.643,32.795,84.646l13.258,8.957C78.881,45.01,133.441,16,192,16
			c23.899,0,47.07,4.704,68.867,13.981l6.266-14.721C243.343,5.134,218.065,0,192,0z"/>
	</g>
</g>
<g>
</g>
<g>
</g>
<g>
</g>
<g>
</g>
<g>
</g>
<g>
</g>
<g>
</g>
<g>
</g>
<g>
</g>
<g>
</g>
<g>
</g>
<g>
</g>
<g>
</g>
<g>
</g>
<g>
</g>
</svg>
