<svg xmlns="http://www.w3.org/2000/svg" width="23" height="23" viewBox="0 0 23 23">
  <g fill="none" fill-rule="evenodd">
    <rect width="23" height="23" fill="#000" opacity="0"/>
    <path fill="#444" fill-rule="nonzero" d="M19.3043703,5.82466991 L16.5871491,5.83086191 C17.1365586,5.445698 17.4424019,5.14718025 17.4988016,5.09054959 C18.0114789,4.60872738 18.305295,4.03717353 18.34866,3.43707348 C18.3889815,2.87945691 18.2073983,2.33256614 17.837368,1.8971735 C17.4182426,1.40401677 16.8146582,1.10923521 16.1377772,1.06717154 C15.4080228,1.0217285 14.6572995,1.27612558 13.9652639,1.80276114 C13.7991082,1.90246296 13.0886015,2.36625488 12.1420848,3.52111689 C11.0374935,4.79616683 11.0662706,6.92959706 11.0703006,7.0960886 L11.0703006,12.3663482 L3.11755807,12.3663482 L3.11755807,7.35407494 C3.11755807,7.00776327 3.39928396,6.7260164 3.74551168,6.7260164 L8.11198998,6.72685599 C8.11203196,6.72685599 8.11203196,6.72685599 8.11207393,6.72685599 C8.33473435,6.72685599 8.52798797,6.56546497 8.56152978,6.34532332 C8.59496663,6.12585335 8.46747422,5.91608071 8.25608535,5.84908109 C8.21427355,5.83356959 7.49020739,5.55463536 6.15827493,4.42397465 C5.82638327,4.14224877 5.63665596,3.80712468 5.60962101,3.4548519 C5.58558761,3.14176718 5.69030602,2.82364488 5.90448653,2.55904672 C6.40177825,1.94467357 7.44438651,1.67489091 8.5585282,2.53438363 C8.58436672,2.554324 8.58812391,2.55946651 8.61419331,2.57166162 C8.65403206,2.59842369 8.84535462,2.73506768 9.3094194,3.17906615 C9.41659361,3.29006052 10.0952797,3.96912442 10.7868746,4.11471009 C11.0302939,4.16590436 11.2694524,4.01011762 11.3207516,3.7665513 C11.3720088,3.52298499 11.2161591,3.28397346 10.9725718,3.23269524 C10.6417507,3.16305089 10.1718927,2.7759769 9.95382906,2.54878267 C9.94919029,2.54391303 9.94442561,2.53914832 9.93955596,2.53448857 C9.43579935,2.05203667 9.19376529,1.87171279 9.08910987,1.80536386 C7.57292842,0.64968324 5.98880281,1.02219026 5.20388706,1.99194272 C4.84426781,2.43623505 4.6691914,2.9802502 4.71089824,3.52382458 C4.75676108,4.12132188 5.05553072,4.67020668 5.57494578,5.11114065 C5.90992294,5.39549027 6.21037177,5.63080758 6.47599842,5.82517366 L3.74557465,5.8246489 C2.90224412,5.8246489 2.21614861,6.51074442 2.21614861,7.35407494 L2.21614861,20.0889789 C2.21614861,20.9323095 2.90224412,21.618384 3.74557465,21.618384 L19.3053568,21.618384 C20.1486873,21.618384 20.8347618,20.9322885 20.8347618,20.0889789 L20.8347618,7.35407494 C20.8348038,6.51074442 20.1487083,5.8246489 19.3043703,5.82466991 Z M11.9714582,7.07692485 C11.9713113,7.07211818 11.9585285,6.58954033 12.062953,5.96836645 C12.1564209,5.41236609 12.3648082,4.63819715 12.8266061,4.1076155 C12.8295866,4.10419416 12.8324832,4.10073084 12.8353588,4.09724652 C13.753959,2.97533859 14.4022098,2.59109822 14.4344922,2.57241726 C14.4564266,2.56070491 14.4725468,2.5497482 14.4924452,2.53440461 C15.6144371,1.6688878 16.6568145,1.89994417 17.1505379,2.48090148 C17.5222263,2.91824617 17.6735002,3.69333868 16.8765993,4.43835271 C16.8719395,4.4426976 16.8666501,4.44788211 16.8621792,4.4524369 C16.8549377,4.45980433 16.1220139,5.19722005 14.7293157,5.8807338 C14.5409318,5.97319413 14.4412929,6.18340755 14.4890028,6.38774383 C14.5366078,6.59176525 14.718464,6.73602856 14.9278798,6.73600755 C14.9282156,6.73600755 14.9285725,6.73600755 14.9289083,6.73600755 L19.3053988,6.72603738 C19.6517104,6.72603738 19.9334363,7.00778425 19.9334363,7.35409593 L19.9334363,12.3663902 L11.9716681,12.3663902 L11.9716681,7.09016947 C11.9716681,7.0857406 11.9716052,7.08133274 11.9714582,7.07692485 Z M3.11755807,20.0889789 L3.11755807,13.2677577 L11.0703006,13.2677577 L11.0703006,20.7170165 L3.74559564,20.7170165 C3.39928396,20.7170165 3.11755807,20.4352696 3.11755807,20.0889789 Z M19.3053988,20.7170165 L11.9716681,20.7170165 L11.9716681,13.2677577 L19.9334153,13.2677577 L19.9334153,20.089 C19.9334153,20.4352696 19.6517104,20.7170165 19.3053988,20.7170165 Z"/>
  </g>
</svg>
