<?xml version="1.0" encoding="iso-8859-1"?>
<!-- Generator: Adobe Illustrator 19.0.0, SVG Export Plug-In . SVG Version: 6.00 Build 0)  -->
<svg version="1.1" id="Capa_1" xmlns="http://www.w3.org/2000/svg" xmlns:xlink="http://www.w3.org/1999/xlink" x="0px" y="0px"
	 viewBox="0 0 469.333 469.333" style="enable-background:new 0 0 469.333 469.333;" xml:space="preserve">
<g>
	<g>
		<g>
			<path fill="#FFF" d="M192.043,341.333C192.043,258.99,259.057,192,341.409,192c16.545,0,33.091,2.854,49.198,8.479
				c1.146,0.396,2.334,0.594,3.522,0.594c0.167,0.01,0.313,0,0.417,0c5.897,0,10.669-4.771,10.669-10.667
				c0-1.302-0.229-2.552-0.646-3.708C396.338,81.76,308.256,0,202.712,0C90.937,0,0,90.917,0,202.667
				c0,106.552,83.352,195.292,189.771,202.031c0.208,0.01,0.438,0.021,0.667,0.021c3.334,0,6.481-1.552,8.502-4.219
				c2.167-2.844,2.751-6.583,1.563-9.958C194.897,374.448,192.043,357.885,192.043,341.333z M146.208,274.208
				c-2.083,2.083-4.813,3.125-7.542,3.125s-5.458-1.042-7.542-3.125c-4.167-4.167-4.167-10.917,0-15.083L192,198.25V74.667
				C192,68.771,196.771,64,202.667,64s10.667,4.771,10.667,10.667v128c0,2.833-1.125,5.542-3.125,7.542L146.208,274.208z"/>
			<path fill="#FFF" d="M341.333,213.333c-70.583,0-128,57.417-128,128s57.417,128,128,128s128-57.417,128-128S411.917,213.333,341.333,213.333z
				 M336,330.667h10.667C367.25,330.667,384,347.417,384,368c0,18.758-13.954,34.18-32,36.794V416
				c0,5.896-4.771,10.667-10.667,10.667s-10.667-4.771-10.667-10.667v-10.667h-21.333c-5.896,0-10.667-4.771-10.667-10.667
				c0-5.896,4.771-10.667,10.667-10.667h37.333c8.813,0,16-7.177,16-16c0-8.823-7.188-16-16-16H336
				c-20.583,0-37.333-16.75-37.333-37.333c0-18.758,13.954-34.18,32-36.794v-11.206c0-5.896,4.771-10.667,10.667-10.667
				S352,260.771,352,266.667v10.667h21.333c5.896,0,10.667,4.771,10.667,10.667c0,5.896-4.771,10.667-10.667,10.667H336
				c-8.813,0-16,7.177-16,16S327.188,330.667,336,330.667z"/>
		</g>
	</g>
</g>
<g>
</g>
<g>
</g>
<g>
</g>
<g>
</g>
<g>
</g>
<g>
</g>
<g>
</g>
<g>
</g>
<g>
</g>
<g>
</g>
<g>
</g>
<g>
</g>
<g>
</g>
<g>
</g>
<g>
</g>
</svg>
