<svg xmlns="http://www.w3.org/2000/svg" width="20" height="20" viewBox="0 0 20 20">
  <g fill="none" fill-rule="evenodd">
    <rect width="20" height="20"/>
    <rect width="12" height="12" x="3" y="4" rx="3"/>
    <g fill="#1C1C1C" transform="translate(2 1)">
      <path fill-rule="nonzero" d="M13.3333333,1.78472223 L12.4444444,1.78472223 L12.4444444,0.895833333 C12.4443693,0.4049667 12.0464222,0.00708052027 11.5555556,0.00708052027 C11.0646889,0.00708052027 10.6667418,0.4049667 10.6666667,0.895833333 L10.6666667,1.78472223 L5.33333333,1.78472223 L5.33333333,0.895833333 C5.33325819,0.4049667 4.93531109,0.00708052027 4.44444445,0.00708052027 C3.95357781,0.00708052027 3.55563071,0.4049667 3.55555556,0.895833333 L3.55555556,1.78472223 L2.66666667,1.78472223 C1.19390733,1.78472223 0,2.97862956 0,4.4513889 L0,15.1180556 C0,16.5908149 1.19390733,17.7847222 2.66666667,17.7847222 L13.3333333,17.7847222 C14.8060927,17.7847222 16,16.5908149 16,15.1180556 L16,4.4513889 C16,2.97862956 14.8060927,1.78472223 13.3333333,1.78472223 Z M2.66666667,3.5625 L3.55555556,3.5625 L3.55555556,4.4513889 C3.55563071,4.94225553 3.95357781,5.34014171 4.44444445,5.34014171 C4.93531109,5.34014171 5.33325819,4.94225553 5.33333333,4.4513889 L5.33333333,3.5625 L10.6666667,3.5625 L10.6666667,4.4513889 C10.6667418,4.94225553 11.0646889,5.34014171 11.5555556,5.34014171 C12.0464222,5.34014171 12.4443693,4.94225553 12.4444444,4.4513889 L12.4444444,3.5625 L13.3333333,3.5625 C13.8242531,3.5625 14.2222222,3.96046911 14.2222222,4.4513889 L14.2222222,8.00694444 L1.77777777,8.00694444 L1.77777777,4.4513889 C1.77777777,3.96046911 2.17574689,3.5625 2.66666667,3.5625 Z M13.3333333,16.0069444 L2.66666667,16.0069444 C2.17574689,16.0069444 1.77777778,15.6089753 1.77777777,15.1180556 L1.77777777,9.78472223 L14.2222222,9.78472223 L14.2222222,15.1180556 C14.2222222,15.6089753 13.8242531,16.0069444 13.3333333,16.0069444 Z"/>
      <path d="M3.55555556 12.4513889C3.55550694 12.7689907 3.72491757 13.0624877 3.99996072 13.2213027 4.27500386 13.3801176 4.61388503 13.3801176 4.88892818 13.2213027 5.16397133 13.0624877 5.33338196 12.7689907 5.33333333 12.4513889 5.33338196 12.1337871 5.16397133 11.8402901 4.88892818 11.6814751 4.61388503 11.5226602 4.27500386 11.5226602 3.99996072 11.6814751 3.72491757 11.8402901 3.55550694 12.1337871 3.55555556 12.4513889zM11.5555556 11.5625L8 11.5625C7.50913337 11.5625751 7.11124719 11.9605222 7.11124719 12.4513889 7.11124719 12.9422555 7.50913337 13.3402026 8 13.3402778L11.5555556 13.3402778C12.0464222 13.3402026 12.4443084 12.9422555 12.4443084 12.4513889 12.4443084 11.9605222 12.0464222 11.5625751 11.5555556 11.5625z"/>
    </g>
  </g>
</svg>
