<?xml version="1.0" encoding="iso-8859-1"?>
<!-- Generator: Adobe Illustrator 19.0.0, SVG Export Plug-In . SVG Version: 6.00 Build 0)  -->
<svg version="1.1" id="Capa_1" xmlns="http://www.w3.org/2000/svg" xmlns:xlink="http://www.w3.org/1999/xlink" x="0px" y="0px"
	 viewBox="0 0 420.282 420.282" style="enable-background:new 0 0 420.282 420.282;" xml:space="preserve">
<g>
	<g>
		<path fill="#FFF" d="M338.461,1.876c-5.668-2.84-12.421-2.433-17.707,1.067l-147.84,101.76v78.08c-0.797,5.361-5.789,9.061-11.15,8.264
			c-4.273-0.635-7.628-3.99-8.264-8.264v-75.947h-64c-9.426,0-17.067,7.641-17.067,17.067v172.8
			c0.115,9.378,7.689,16.952,17.067,17.067h77.013c1.794,0.126,3.54,0.635,5.12,1.493l149.333,102.613
			c5.466,3.208,12.24,3.208,17.707,0c5.578-3.118,9.073-8.971,9.173-15.36V17.236C347.618,10.827,344.059,5.004,338.461,1.876z
			 M156.487,211.369c3.784-3.32,9.443-3.32,13.227,0c2.03,1.956,3.184,4.648,3.2,7.467c-0.386,1.996-1.439,3.802-2.987,5.12v0.213
			c-1.712,1.996-4.198,3.161-6.827,3.2c-2.56-0.072-4.968-1.237-6.613-3.2c-1.93-1.65-3.025-4.074-2.987-6.613
			C153.737,215.206,154.794,213.015,156.487,211.369z M170.972,285.631c-0.377,0.46-0.798,0.881-1.258,1.258l0.213-0.213
			c-1.75,1.763-4.129,2.761-6.613,2.773c-2.539,0.038-4.963-1.057-6.613-2.987c-1.964-1.716-3.059-4.22-2.987-6.827
			c0.114-2.505,1.183-4.871,2.987-6.613c3.676-3.389,9.337-3.389,13.013,0C173.543,276.157,174.107,281.802,170.972,285.631z
			 M169.714,255.316h0.213c-3.66,3.634-9.566,3.634-13.227,0c-1.906-1.668-2.996-4.08-2.987-6.613
			c-0.022-2.659,1.059-5.208,2.987-7.04c3.747-3.418,9.48-3.418,13.227,0c2.018,1.875,3.175,4.499,3.2,7.253
			C172.893,251.421,171.664,253.726,169.714,255.316z"/>
	</g>
</g>
<g>
</g>
<g>
</g>
<g>
</g>
<g>
</g>
<g>
</g>
<g>
</g>
<g>
</g>
<g>
</g>
<g>
</g>
<g>
</g>
<g>
</g>
<g>
</g>
<g>
</g>
<g>
</g>
<g>
</g>
</svg>
