<svg xmlns="http://www.w3.org/2000/svg" width="20" height="20" viewBox="0 0 20 20">
  <g fill="none" fill-rule="evenodd">
    <rect width="20" height="20" fill="#000" opacity="0"/>
    <path fill="#FFF" fill-rule="nonzero" d="M14.27125,6.428125 L8.4375,12.261875 L5.729375,9.553125 C5.49125,9.315 5.104375,9.315 4.86625,9.553125 C4.628125,9.79125 4.628125,10.178125 4.86625,10.41625 L7.931875,13.481875 C7.9525,13.51125 7.965,13.545 7.99125,13.57125 C8.114375,13.694375 8.27625,13.75125 8.4375,13.746875 C8.59875,13.750625 8.76125,13.694375 8.884375,13.57125 C8.910625,13.545 8.923125,13.51125 8.94375,13.481875 L15.134375,7.29125 C15.3725,7.053125 15.3725,6.66625 15.134375,6.428125 C14.895625,6.19 14.509375,6.19 14.27125,6.428125 Z M10,0 C4.476875,0 0,4.476875 0,10 C0,15.523125 4.476875,20 10,20 C15.5225,20 20,15.523125 20,10 C20,4.476875 15.523125,0 10,0 Z M10,18.75 C5.1675,18.75 1.25,14.8325 1.25,10 C1.25,5.1675 5.1675,1.25 10,1.25 C14.8325,1.25 18.75,5.1675 18.75,10 C18.75,14.8325 14.8325,18.75 10,18.75 Z"/>
  </g>
</svg>
