<!--?xml version="1.0" encoding="iso-8859-1"?-->
<!-- Generator: Adobe Illustrator 19.0.0, SVG Export Plug-In . SVG Version: 6.00 Build 0)  -->
<svg version="1.1" id="Layer_1" xmlns="http://www.w3.org/2000/svg" xmlns:xlink="http://www.w3.org/1999/xlink" x="0px" y="0px" viewBox="0 0 512 512" style="enable-background:new 0 0 512 512;" xml:space="preserve" class="">
<path style="fill:#11fa63;" d="M503.467,256c-0.06,126.063-94.865,231.936-220.16,245.845c-9.062,1.058-18.185,1.596-27.307,1.621
	C119.33,503.586,8.431,392.892,8.311,256.222C8.218,146.27,80.683,49.434,186.197,18.517C208.862,11.836,232.371,8.474,256,8.533
	C392.67,8.533,503.467,119.33,503.467,256z" data-original="#555656" class="                      "></path>
<path style="fill:#11fa63;" d="M460.8,264.533c-0.026,109.705-72.269,206.293-177.493,237.312
	c-9.062,1.058-18.185,1.596-27.307,1.621C119.33,503.586,8.431,392.892,8.311,256.222C8.218,146.27,80.683,49.434,186.197,18.517
	c9.011-0.998,18.074-1.485,27.136-1.451C350.003,17.067,460.8,127.863,460.8,264.533z" data-original="#717272" class="              "></path>
<polygon style="fill:#fcfafb;" points="366.933,298.581 256,418.048 244.395,405.589 150.101,303.957 145.067,298.581 
	213.333,298.581 213.333,93.781 298.667,93.781 298.667,298.581 " data-original="#AD1457" class=" active-path"></polygon>
<polygon style="fill:#faf7f8;" points="332.8,303.957 244.395,405.589 150.101,303.957 185.088,303.957 185.088,298.581 
	213.333,298.581 213.333,93.781 273.067,93.781 273.067,307.115 " data-original="#D81B60" class="   "></polygon>
<path d="M256,512L256,512C114.611,512,0,397.389,0,256S114.611,0,256,0l0,0c141.389,0,256,114.611,256,256S397.389,512,256,512z
	 M256,17.067C124.041,17.067,17.067,124.041,17.067,256S124.041,494.933,256,494.933S494.933,387.96,494.933,256
	c0.896-131.063-104.619-238.037-235.682-238.933C258.167,17.058,257.084,17.058,256,17.067z" style="fill:#fcfafc;" data-original="#000000" class="   "></path>
<path d="M256,426.667c-2.364-0.009-4.625-0.998-6.229-2.731L138.837,304.469c-3.209-3.456-3.004-8.858,0.452-12.058
	c1.57-1.459,3.635-2.27,5.777-2.278H204.8V93.867c0-4.71,3.823-8.533,8.533-8.533h85.333c4.71,0,8.533,3.823,8.533,8.533v196.267
	h59.733c4.71,0.017,8.525,3.849,8.508,8.559c-0.009,2.142-0.819,4.207-2.278,5.777L262.229,423.936
	C260.625,425.668,258.364,426.658,256,426.667z M164.608,307.2L256,405.504l91.392-98.304h-48.725c-4.71,0-8.533-3.823-8.533-8.533
	V102.4h-68.267v196.267c0,4.71-3.823,8.533-8.533,8.533H164.608z" style="fill:#fcfafc;" data-original="#000000" class="   "></path>
<g>
</g>
<g>
</g>
<g>
</g>
<g>
</g>
<g>
</g>
<g>
</g>
<g>
</g>
<g>
</g>
<g>
</g>
<g>
</g>
<g>
</g>
<g>
</g>
<g>
</g>
<g>
</g>
<g>
</g>
</svg>
