<?xml version="1.0" encoding="iso-8859-1"?>
<!-- Generator: Adobe Illustrator 16.0.0, SVG Export Plug-In . SVG Version: 6.00 Build 0)  -->
<!DOCTYPE svg PUBLIC "-//W3C//DTD SVG 1.1//EN" "http://www.w3.org/Graphics/SVG/1.1/DTD/svg11.dtd">
<svg version="1.1" id="Capa_1" xmlns="http://www.w3.org/2000/svg" xmlns:xlink="http://www.w3.org/1999/xlink" x="0px" y="0px"
	 width="71.68px" height="71.68px" viewBox="0 0 71.68 71.68" style="enable-background:new 0 0 71.68 71.68;" xml:space="preserve"
	>
<g>
	<g>
		<path fill="#FFF" d="M64.96,0H6.72C2.911,0,0,2.912,0,6.72v58.239c0,3.809,2.911,6.721,6.72,6.721h58.24c3.808,0,6.72-2.912,6.72-6.721V6.72
			C71.68,2.912,68.768,0,64.96,0z M67.198,64.959c0,1.346-0.896,2.24-2.238,2.24H6.72c-1.344,0-2.24-0.896-2.24-2.24V6.72
			c0-1.345,0.896-2.24,2.24-2.24h58.24c1.345,0,2.238,0.896,2.238,2.24V64.959z"/>
		<path fill="#FFF" d="M54.432,27.776l0.226-1.119c0.225-0.672-0.226-1.344-0.896-1.567c-0.672-0.225-1.345,0.225-1.568,0.896l-0.225,1.119
			c-1.344-0.224-2.464,0-2.688,0.672L43.904,48.16l6.943,1.791l5.375-20.383C56.447,29.119,55.775,28.224,54.432,27.776z"/>
		<path fill="#FFF" d="M57.792,29.344c-0.226,0-0.674,0.225-0.674,0.447l-2.688,10.08l1.12,0.225l2.688-10.08
			C58.24,29.792,58.24,29.344,57.792,29.344z"/>
		<path fill="#FFF" d="M45.92,54.881c0,0,1.792-1.568,3.137-2.912l-4.479-1.121C45.023,52.641,45.92,54.881,45.92,54.881z"/>
		<path fill="#FFF" d="M44.575,53.76h-0.447c-1.12,0-2.239,0.225-6.721,0.225c-0.447,0-0.896-0.225-1.345-0.672
			c-0.671-0.448-1.12-0.896-2.016-0.896l0,0c-0.672,0-1.345,0.447-2.912,1.119c-0.672,0.448-1.792,0.896-2.24,1.121
			c0-0.226,0-0.896,0.224-1.121c0.225-0.896,0.225-1.791,0-2.238c-0.224-0.225-0.447-0.225-0.672-0.225l0,0
			c-1.344,0-2.688,1.567-4.256,2.911C23.296,54.881,22.176,56,21.728,56l0,0c-0.448-0.672,1.12-3.809,1.568-5.15
			c0.896-2.24,1.344-2.688,0.672-3.137c-0.225-0.225-0.448-0.225-1.12,0c-0.896,0.672-2.016,1.566-2.912,2.688
			c-2.016,1.791-4.032,3.81-5.6,3.136c-0.225-0.224-0.672,0-0.896,0.228c-0.224,0.225,0,0.672,0.225,0.895
			c2.239,1.119,4.479-1.121,6.943-3.359c0.672-0.447,1.12-1.119,1.792-1.566c-0.224,0.224-0.224,0.447-0.448,0.672
			c-1.344,2.912-2.239,5.15-1.567,6.271c0.224,0.225,0.448,0.445,0.896,0.445l0,0c0.896,0,2.017-1.119,3.36-2.463
			c1.12-1.121,2.24-2.24,3.136-2.465c0,0.225,0,0.672-0.224,1.121c-0.225,0.896-0.225,1.791,0,2.24C27.776,55.775,28,56,28.224,56
			c0.672,0,1.568-0.447,2.912-1.344c0.672-0.449,2.016-1.121,2.24-1.121l0,0c0.447,0,0.896,0.225,1.344,0.672
			c0.448,0.449,1.12,0.896,2.016,0.896c4.703,0,5.602,0,6.943-0.224h0.448c0.224,0,0.447-0.225,0.447-0.674
			C44.575,53.76,45.023,53.76,44.575,53.76z"/>
		<rect fill="#FFF" x="13.44" y="14.784" width="44.8" height="4.48"/>
		<rect fill="#FFF" x="13.44" y="23.744" width="28.225" height="4.479"/>
		<rect fill="#FFF" x="13.44" y="34.944" width="28.225" height="4.48"/>
	</g>
</g>
<g>
</g>
<g>
</g>
<g>
</g>
<g>
</g>
<g>
</g>
<g>
</g>
<g>
</g>
<g>
</g>
<g>
</g>
<g>
</g>
<g>
</g>
<g>
</g>
<g>
</g>
<g>
</g>
<g>
</g>
</svg>
