<svg xmlns="http://www.w3.org/2000/svg" width="64" height="64" viewBox="0 0 64 64">
  <path fill="#FFF" fill-rule="evenodd" d="M32,0 C49.673112,-3.24649801e-15 64,14.326888 64,32 C64,49.673112 49.673112,64 32,64 C14.326888,64 2.164332e-15,49.673112 0,32 C-2.164332e-15,14.326888 14.326888,3.24649801e-15 32,0 Z M38.5721348,32.5721348 C38.9934869,32.1507827 38.9934869,31.4660855 38.5721348,31.0447334 L28.8434155,21.3160141 C28.4220634,20.894662 27.7373662,20.894662 27.3160141,21.3160141 C26.894662,21.7373662 26.894662,22.4220634 27.3160141,22.8434155 L36.2810327,31.8084341 L27.3160141,40.7734527 C26.894662,41.1948048 26.894662,41.879502 27.3160141,42.3008541 C27.5266901,42.5115302 27.8025755,42.6168682 28.0809688,42.6168682 C28.3568541,42.6168682 28.6352475,42.5115301 28.8459235,42.3008541 L38.5721348,32.5721348 Z"/>
</svg>
