<svg xmlns="http://www.w3.org/2000/svg" width="23" height="23" viewBox="0 0 23 23">
  <g fill="none" fill-rule="evenodd">
    <rect width="23" height="23" fill="#000" opacity="0"/>
    <path fill="#444" fill-rule="nonzero" d="M20.9523598,19.4308136 L20.0823536,19.4308136 L20.0823536,9.29766857 C20.0823536,9.07655847 19.9030982,8.89730301 19.6819881,8.89730301 L14.4164863,8.89730301 C14.1953762,8.89730301 14.0161207,9.07655847 14.0161207,9.29766857 C14.0161207,9.51877866 14.1953762,9.69803413 14.4164863,9.69803413 L19.2816225,9.69803413 L19.2816225,19.4308366 L13.6773075,19.4308366 L13.6773075,3.18765215 C13.6773075,2.69840585 13.2792863,2.30036174 12.7900171,2.30036174 L2.57286929,2.30036174 C2.08362299,2.30036174 1.68557888,2.69838288 1.68557888,3.18765215 L1.68557888,19.4308136 L1.68557888,20.2315447 L9.91216123,20.2315447 C9.91547098,20.2315447 9.91926342,20.2314758 9.92255017,20.2314068 C10.2142454,20.2240748 11.054073,20.2751002 11.4352006,20.5927448 C11.5100379,20.6551245 11.6009183,20.6855559 11.691293,20.6855559 C11.8060082,20.6855559 11.919896,20.6365072 11.9990773,20.5414896 C12.1406383,20.3716347 12.1176999,20.1191969 11.947845,19.9776359 C11.2761944,19.4178734 10.0703859,19.4269292 9.90705869,19.4308136 L2.48630996,19.4308136 L2.48630996,3.18765215 C2.48630996,3.13991352 2.52513063,3.10109284 2.57286927,3.10109284 L12.790017,3.10109284 C12.8377327,3.10109284 12.8765764,3.13991352 12.8765764,3.18765215 L12.8765764,19.8311791 C12.8765764,20.0522892 13.0558318,20.2315447 13.2769419,20.2315447 L20.9523598,20.2315447 C21.1734699,20.2315447 21.3527253,20.0522892 21.3527253,19.8311791 C21.3527253,19.610069 21.1734699,19.4308136 20.9523598,19.4308136 Z M11.3615356,8.81740918 L3.59137773,8.81740918 C3.37026763,8.81740918 3.19103517,8.99666465 3.19103517,9.21777474 C3.19103517,9.43888484 3.37026766,9.6181403 3.59137773,9.6181403 L11.3615356,9.6181403 C11.5826457,9.6181403 11.7619011,9.43888484 11.7619011,9.21777474 C11.7619011,8.99666465 11.5826457,8.81740918 11.3615356,8.81740918 Z M11.3615356,6.69231598 L3.59137773,6.69231598 C3.37026763,6.69231598 3.19103517,6.87154847 3.19103517,7.09265854 C3.19103517,7.31376862 3.37026766,7.4930011 3.59137773,7.4930011 L11.3615356,7.4930011 C11.5826457,7.4930011 11.7619011,7.31376862 11.7619011,7.09265854 C11.7619011,6.87154847 11.5826457,6.69231598 11.3615356,6.69231598 Z M11.3615356,4.56722281 L3.59137773,4.56722281 C3.37026763,4.56722281 3.19103517,4.7464553 3.19103517,4.96756537 C3.19103517,5.18867544 3.37026766,5.36790793 3.59137773,5.36790793 L11.3615356,5.36790793 C11.5826457,5.36790793 11.7619011,5.18867544 11.7619011,4.96756537 C11.7619011,4.7464553 11.5826457,4.56722281 11.3615356,4.56722281 Z"/>
  </g>
</svg>
