<svg xmlns="http://www.w3.org/2000/svg" width="19" height="19" viewBox="0 0 19 19">
  <path fill="#444" d="M14.25,13.6166667 L12.5083333,11.875 L7.28333333,11.875 L5.54166667,13.6166667 L5.54166667,15.0416667 L14.25,15.0416667 L14.25,13.6166667 Z M15.0416667,13.3 L15.0416667,15.8333333 L4.75,15.8333333 L4.75,13.3 L6.96666667,11.0833333 L12.7458333,11.0833333 L15.0416667,13.3 Z M13.4583333,6.72916667 C13.4583333,8.70833335 11.875,10.2916667 9.89583333,10.2916667 C7.91666665,10.2916667 6.33333333,8.70833333 6.33333333,6.72916667 C6.33333333,4.75000002 7.91666667,3.16666667 9.89583333,3.16666667 C11.875,3.16666667 13.4583333,4.75 13.4583333,6.72916667 Z M12.6666667,6.72916667 C12.6666667,5.225 11.4,3.95833333 9.89583333,3.95833333 C8.39166665,3.95833333 7.125,5.225 7.125,6.72916667 C7.125,8.23333335 8.39166667,9.5 9.89583333,9.5 C11.4,9.5 12.6666667,8.23333333 12.6666667,6.72916667 Z"/>
</svg>
