<svg xmlns="http://www.w3.org/2000/svg" width="16" height="16" viewBox="0 0 16 16">
  <g fill="none" fill-rule="evenodd" transform="translate(1 1)">
    <rect width="14" height="14" fill="#000" opacity="0"/>
    <path fill="#BAC0C7" fill-rule="nonzero" d="M11.4090283,10.3167171 L13.9117884,12.777414 C14.232124,13.097742 14.215264,13.6119724 13.890816,13.909191 C13.7346028,14.0654042 13.5231134,14.15 13.2848948,14.1488417 C13.055469,14.1201635 12.8572489,14.0313062 12.738954,13.8882036 L10.2045181,11.3960083 C7.61964199,13.2358954 4.05898453,12.9728608 1.75680898,10.759191 L1.62411611,10.6264782 C-0.793943701,8.1412501 -0.731510813,4.15248226 1.75821988,1.73004161 C4.33216473,-0.776756858 8.42846943,-0.776756858 10.9794213,1.72945197 C13.3687686,4.03030499 13.5490481,7.7878319 11.4090283,10.3167171 Z M6.39219996,10.9843798 C9.04672731,11.005616 11.2298773,8.88147011 11.2722932,6.23797396 C11.2085043,3.58010223 9.03932586,1.46319319 6.38980956,1.48437028 C3.71745264,1.46316109 1.53161261,3.58277198 1.48789462,6.23438504 C1.53160903,8.90765163 3.71697409,11.026801 6.39219996,10.9843798 Z"/>
  </g>
</svg>
