<svg xmlns="http://www.w3.org/2000/svg" width="11" height="11" viewBox="0 0 11 11">
  <g fill="none" fill-rule="evenodd">
    <rect width="11" height="11" fill="#000" opacity="0"/>
    <path fill="#E4E6E8" d="M10.1265447,4.41750801 C10.0755886,4.26071979 9.93970543,4.14574177 9.77638438,4.12222354 L7.09007959,3.73155956 L5.8880366,1.29742249 C5.81486877,1.14978025 5.66461339,1.05570732 5.49998577,1.05570732 C5.33535813,1.05570732 5.18510276,1.14978025 5.11193493,1.29742249 L3.90989194,3.73155956 L1.22358715,4.12222354 C1.06026609,4.14574178 0.92438297,4.25941323 0.873426802,4.41750801 C0.822470634,4.57429624 0.86558739,4.74676327 0.98317855,4.8617413 L2.92735244,6.75626558 L2.47005346,9.43211783 C2.44261552,9.59413231 2.50925051,9.75875995 2.64252049,9.85544601 C2.77579048,9.95213208 2.95217722,9.96519776 3.09851289,9.88811022 L5.50129232,8.62465851 L7.90407174,9.88811022 C7.96678703,9.92077443 8.03603515,9.93775983 8.10528329,9.93775983 C8.19543652,9.93775983 8.28428318,9.91032189 8.36006414,9.85544601 C8.49333413,9.75875995 8.55996912,9.59413232 8.53253118,9.43211783 L8.07392564,6.75626558 L10.0180995,4.8617413 C10.1343841,4.74676327 10.1775009,4.57429624 10.1265447,4.41750801 Z"/>
  </g>
</svg>
