<?xml version="1.0" encoding="iso-8859-1"?>
<!-- Generator: Adobe Illustrator 19.0.0, SVG Export Plug-In . SVG Version: 6.00 Build 0)  -->
<svg version="1.1" id="Capa_1" xmlns="http://www.w3.org/2000/svg" xmlns:xlink="http://www.w3.org/1999/xlink" x="0px" y="0px"
	 viewBox="0 0 480 480" style="enable-background:new 0 0 480 480;" xml:space="preserve">
<g>
	<g>
		<path fill="#FFF" d="M456,215.992c4.418,0,8-3.582,8-8v-24h8c4.418,0,8-3.582,8-8v-32c-0.007-3.143-1.853-5.991-4.72-7.28l-232-104
			c-2.086-0.938-4.474-0.938-6.56,0l-232,104C1.853,138,0.007,140.848,0,143.992v32c0,4.418,3.582,8,8,8h8v24c0,4.418,3.582,8,8,8h8
			v152h-8c-4.418,0-8,3.582-8,8v24H8c-4.418,0-8,3.582-8,8v32c0,4.418,3.582,8,8,8h464c4.418,0,8-3.582,8-8v-32c0-4.418-3.582-8-8-8
			h-8v-24c0-4.418-3.582-8-8-8h-8v-152H456z M16,167.992v-18.8l224-100.4l224,100.4v18.8H16z M32,383.992h416v16H32V383.992z
			 M48,367.992v-152h48v152H48z M112,367.992v-152h32v152H112z M160,367.992v-152h48v152H160z M224,367.992v-152h32v152H224z
			 M272,367.992v-152h48v152H272z M336,367.992v-152h32v152H336z M384,367.992v-152h48v152H384z M464,415.992v16H16v-16H464z
			 M32,199.992v-16h416v16H32z"/>
	</g>
</g>
<g>
	<g>
		<path fill="#FFF" d="M240,71.992c-22.091,0-40,17.909-40,40s17.909,40,40,40c22.091,0,40-17.909,40-40S262.091,71.992,240,71.992z
			 M240,135.992c-13.255,0-24-10.745-24-24s10.745-24,24-24s24,10.745,24,24S253.255,135.992,240,135.992z"/>
	</g>
</g>
<g>
	<g>
		<rect fill="#FFF" x="64" y="231.992" width="16" height="120"/>
	</g>
</g>
<g>
	<g>
		<rect fill="#FFF" x="400" y="231.992" width="16" height="120"/>
	</g>
</g>
<g>
	<g>
		<rect fill="#FFF" x="176" y="231.992" width="16" height="120"/>
	</g>
</g>
<g>
	<g>
		<rect fill="#FFF" x="288" y="231.992" width="16" height="120"/>
	</g>
</g>
<g>
</g>
<g>
</g>
<g>
</g>
<g>
</g>
<g>
</g>
<g>
</g>
<g>
</g>
<g>
</g>
<g>
</g>
<g>
</g>
<g>
</g>
<g>
</g>
<g>
</g>
<g>
</g>
<g>
</g>
</svg>
