<svg xmlns="http://www.w3.org/2000/svg" width="20" height="20" viewBox="0 0 20 20">
  <g fill="none" fill-rule="evenodd">
    <rect width="20" height="20"/>
    <g fill="#1C1C1C" transform="translate(1.5 1.5)">
      <path d="M7.63480963 8.48018648C7.63480963 8.94707522 8.01329774 9.32556333 8.48018648 9.32556333 8.94707522 9.32556333 9.32556333 8.94707522 9.32556333 8.48018648 9.32556333 8.01329774 8.94707522 7.63480963 8.48018648 7.63480963 8.01329774 7.63480963 7.63480963 8.01329774 7.63480963 8.48018648zM11.016317 8.48018648C11.0162708 8.78224136 11.1773886 9.06137137 11.4389681 9.21241216 11.7005476 9.36345295 12.0228401 9.36345295 12.2844196 9.21241216 12.5459991 9.06137137 12.7071169 8.78224136 12.7070707 8.48018648 12.7071169 8.1781316 12.5459991 7.89900159 12.2844196 7.7479608 12.0228401 7.59692001 11.7005476 7.59692001 11.4389681 7.7479608 11.1773886 7.89900159 11.0162708 8.1781316 11.016317 8.48018648zM4.25330226 8.48018648C4.25325602 8.78224136 4.41437382 9.06137137 4.67595332 9.21241216 4.93753281 9.36345295 5.25982539 9.36345295 5.52140489 9.21241216 5.78298438 9.06137137 5.94410219 8.78224136 5.94405594 8.48018648 5.94410219 8.1781316 5.78298438 7.89900159 5.52140489 7.7479608 5.25982539 7.59692001 4.93753281 7.59692001 4.67595332 7.7479608 4.41437382 7.89900159 4.25325602 8.1781316 4.25330226 8.48018648z"/>
      <path fill-rule="nonzero" d="M14.4570008,2.50337219 C11.5956047,-0.376707108 7.09091192,-0.816035007 3.72695863,1.4569064 C0.36300535,3.72984781 -0.910181613,8.07314849 0.694265734,11.8025175 C0.775329273,11.9705474 0.80192726,12.1596886 0.77034965,12.3435587 L0.0264180198,15.9195027 C-0.0318039803,16.1980052 0.0539756558,16.4871144 0.254669768,16.6887956 C0.418328889,16.8512678 0.641258502,16.9398289 0.871794872,16.9339549 L1.04087023,16.9339549 L4.65908315,16.2069308 C4.84297783,16.184821 5.02945956,16.211045 5.20012431,16.2830148 C8.92949331,17.8874621 13.272794,16.6142752 15.5457354,13.2503219 C17.8186768,9.88636859 17.3793489,5.38167581 14.4992696,2.52027972 L14.4570008,2.50337219 Z M15.1586636,9.57072261 C14.8237859,11.6157618 13.5698173,13.394394 11.7561486,14.3968581 C9.94247993,15.3993223 7.76932577,15.5149543 5.85951825,14.7106138 C5.52520825,14.5684137 5.16608174,14.4937154 4.8027972,14.4908159 C4.64410272,14.4919268 4.48576727,14.5060638 4.32938618,14.5330847 L1.94542347,15.0149495 L2.42728827,12.6309868 C2.52325966,12.114693 2.4613928,11.5814595 2.24975914,11.1008547 C1.44541865,9.19104719 1.5610507,7.01789303 2.56351484,5.20422436 C3.56597897,3.39055569 5.34461115,2.13658705 7.38965035,1.8017094 C9.5390982,1.44894675 11.7268806,2.1530484 13.2671026,3.69327039 C14.8073246,5.23349237 15.5114262,7.42127476 15.1586636,9.57072261 Z"/>
    </g>
  </g>
</svg>
