<svg xmlns="http://www.w3.org/2000/svg" width="23" height="23" viewBox="0 0 23 23">
  <g fill="none" fill-rule="evenodd">
    <rect width="23" height="23" fill="#000" opacity="0"/>
    <path fill="#444" fill-rule="nonzero" d="M4.97693065,15.0233272 C4.74844256,15.0233272 4.56321114,15.2085586 4.56321114,15.4370467 C4.56321114,15.6655348 4.74844256,15.8507662 4.97693065,15.8507662 L10.181407,15.8507662 C10.4098951,15.8507662 10.5951265,15.6655348 10.5951265,15.4370467 L10.5951265,7.25054913 C10.5951265,7.02206104 10.4098951,6.83682962 10.181407,6.83682962 L4.97693065,6.83682962 C4.74844256,6.83682962 4.56321114,7.02206104 4.56321114,7.25054913 C4.56321114,7.47903722 4.74844256,7.66426864 4.97693065,7.66426864 L9.7676875,7.66426864 L9.7676875,10.9057149 L4.97693065,10.9057149 C4.74844256,10.9057149 4.56321114,11.0909463 4.56321114,11.3194344 C4.56321114,11.5479225 4.74844256,11.7331539 4.97693065,11.7331539 L9.7676875,11.7331539 L9.7676875,15.0233272 L4.97693065,15.0233272 Z M18.8779747,15.4370467 L18.8779747,7.25054913 C18.8779747,7.02206104 18.6927433,6.83682962 18.4642552,6.83682962 L13.2597789,6.83682962 C13.0312908,6.83682962 12.8460594,7.02206104 12.8460594,7.25054913 L12.8460594,15.4370467 C12.8460594,15.6655348 13.0312908,15.8507662 13.2597789,15.8507662 L18.4642552,15.8507662 C18.6927433,15.8507662 18.8779747,15.6655578 18.8779747,15.4370467 Z M18.0505357,15.0233272 L13.6734984,15.0233272 L13.6734984,7.66426862 L18.0505357,7.66426862 L18.0505357,15.0233272 Z M19.69029,1.74015017 L17.0773985,1.74015017 L17.0773985,1.26782042 C17.0773985,1.03933233 16.8921671,0.854100912 16.663679,0.854100912 C16.4351909,0.854100912 16.2499595,1.03933233 16.2499595,1.26782042 L16.2499595,1.74012719 L7.19122636,1.74012719 L7.19122636,1.26782042 C7.19122636,1.03933233 7.00599494,0.854100912 6.77750685,0.854100912 C6.54901876,0.854100912 6.36378734,1.03933233 6.36378734,1.26782042 L6.36378734,1.74012719 L3.75089588,1.74012719 C2.34110073,1.74012719 1.19413237,2.88707257 1.19413237,4.2968907 L1.19413237,17.511827 C1.19413237,18.9216221 2.34107775,20.0685675 3.75089588,20.0685675 L14.681365,20.0685675 C14.6856172,20.0685675 14.6898463,20.0684985 14.6940754,20.0683606 C14.6977759,20.0684066 15.0673653,20.0600633 15.5292372,20.1584366 C16.2876769,20.320017 16.706522,20.6383052 16.9243223,20.8768605 C17.0059629,20.9662699 17.1177591,21.0116181 17.2299691,21.0116181 C17.3295605,21.0116181 17.4294738,20.9758544 17.508816,20.9034305 C17.6775676,20.7493659 17.6894505,20.4876653 17.535386,20.3189367 C16.5342078,19.2224422 14.8203748,19.2376578 14.6760096,19.2411055 L3.75089588,19.2411055 C2.7973414,19.2411055 2.02157137,18.4653355 2.02157137,17.511804 L2.02157137,4.2968907 C2.02157137,3.34333622 2.7973414,2.56756619 3.75089588,2.56756619 L6.36378734,2.56756619 L6.36378734,3.1701946 C6.36378734,3.39868269 6.54901876,3.58391411 6.77750685,3.58391411 C7.00599494,3.58391411 7.19122636,3.39868269 7.19122636,3.1701946 L7.19122636,2.56758917 L16.2499595,2.56758917 L16.2499595,3.17021758 C16.2499595,3.39870567 16.4351909,3.58393709 16.663679,3.58393709 C16.8921671,3.58393709 17.0773985,3.39870567 17.0773985,3.17021758 L17.0773985,2.56758917 L19.69029,2.56758917 C20.6438215,2.56758917 21.4195915,3.3433592 21.4195915,4.29691368 L21.4195915,17.5118499 C21.4195915,18.4653815 20.6438215,19.2411515 19.69029,19.2411515 L18.8280296,19.2411515 C18.5995415,19.2411515 18.4143101,19.4263829 18.4143101,19.654871 C18.4143101,19.8833591 18.5995415,20.0685905 18.8280296,20.0685905 L19.69029,20.0685905 C21.1000851,20.0685905 22.2470305,18.9216451 22.2470305,17.51185 L22.2470305,4.2968907 C22.2470305,2.88709555 21.1000851,1.74015017 19.69029,1.74015017 Z"/>
  </g>
</svg>
