<svg xmlns="http://www.w3.org/2000/svg" width="23" height="23" viewBox="0 0 23 23">
  <g fill="none" fill-rule="evenodd">
    <rect width="23" height="23" fill="#000" opacity="0"/>
    <path fill="#474747" fill-rule="nonzero" d="M22.5906935,4.65034859 C22.4368128,4.57679845 22.2533742,4.60828712 22.1328209,4.72884038 L20.328843,6.53281829 C19.420384,7.44123139 17.9421872,7.44125437 17.0337281,6.53281829 L15.2297502,4.7288174 C15.2221194,4.72118657 15.2140518,4.71422231 15.2059843,4.70732698 L13.7463819,3.24774756 C13.1543723,2.65566899 12.3672709,2.32961207 11.5300406,2.32961207 C10.6928102,2.32961207 9.90568589,2.65566901 9.31369926,3.24772459 L7.84262764,4.71879621 C7.83897311,4.7221979 7.83508876,4.72525483 7.83152617,4.72881743 L6.02754825,6.53281832 C5.11911218,7.44130037 3.64091539,7.44127737 2.73245633,6.53281832 L0.928455442,4.72881743 C0.80774129,4.6080803 0.623934903,4.57672954 0.470008279,4.65060146 C0.316081633,4.72445039 0.225569019,4.88745586 0.244209373,5.05714982 L1.31946636,19.2679337 C1.34187617,19.4718514 1.51414438,19.6262377 1.71930328,19.6262377 L14.6038615,19.6262377 C15.1405247,19.6303749 16.6806415,19.7577086 17.3740584,20.291039 C17.4471488,20.3472589 17.5334093,20.3744724 17.6189803,20.3744724 C17.7395795,20.3744724 17.8588916,20.3204361 17.9380959,20.2174429 C18.0735431,20.0413823 18.0405834,19.7888525 17.8644998,19.6534053 C16.8134684,18.8449974 14.6975231,18.8223808 14.6079528,18.8217832 L2.07974492,18.8217831 L1.16882653,6.1068481 L2.16361508,7.10163664 C3.38574247,8.32374106 5.37426225,8.32374106 6.59638965,7.10163664 L8.06748425,5.63051906 C8.07113877,5.62711738 8.07497717,5.62408342 8.07853974,5.62052085 L9.88254063,3.81651996 C10.3226003,3.37643733 10.9076916,3.13404367 11.5300406,3.13404367 C12.1523667,3.13404367 12.737458,3.37641435 13.1775406,3.81654293 L14.9815415,5.62052085 C14.9891493,5.62812868 14.9971709,5.63504701 15.0052155,5.64191934 L16.4649098,7.10161366 C17.6869912,8.32362614 19.675511,8.3236721 20.8976614,7.10161366 L21.8963573,6.10289479 L21.0105838,18.8217372 L18.9426299,18.8217372 C18.7204855,18.8217372 18.5404026,19.0018201 18.5404026,19.2239645 C18.5404026,19.4461088 18.7204855,19.6261917 18.9426299,19.6261917 L21.3721287,19.6261917 C21.5777243,19.6261917 21.7502453,19.4711159 21.7720805,19.2666695 L22.817182,5.05588562 C22.8352937,4.88642153 22.7445282,4.72389873 22.5906935,4.65034859 Z M9.93579554,6.24512234 C9.93579554,7.12450612 10.6512315,7.83996503 11.5306382,7.83996503 C12.410045,7.83996503 13.1254809,7.1245291 13.1254809,6.24512234 C13.1254809,5.36566961 12.410045,4.6501877 11.5306382,4.6501877 C10.6512315,4.6501877 9.93579554,5.36566961 9.93579554,6.24512234 Z M12.3210264,6.24512234 C12.3210264,6.68092987 11.9664688,7.03551047 11.5306382,7.03551047 C11.0948307,7.03551047 10.7402501,6.68095287 10.7402501,6.24512234 C10.7402501,5.80926886 11.0948077,5.45464228 11.5306382,5.45464228 C11.9664687,5.45464228 12.3210264,5.80926886 12.3210264,6.24512234 Z"/>
  </g>
</svg>
