<svg xmlns="http://www.w3.org/2000/svg" width="23" height="23" viewBox="0 0 23 23">
  <g fill="none" fill-rule="evenodd">
    <rect width="23" height="23" fill="#000" opacity="0"/>
    <path fill="#444" fill-rule="nonzero" d="M1.78471696,20.7106372 L0.94541801,20.7106372 C0.713482259,20.7106372 0.525469725,20.5226247 0.525469725,20.2906889 L0.525469725,19.4691569 C0.5026462,19.156385 0.507266056,18.1483344 1.33796885,17.0981305 C1.70024921,16.640097 2.1662123,16.249201 2.72287189,15.9363142 C3.35365621,15.5817566 4.10336192,15.3272501 4.95111915,15.179851 C4.95617571,15.1789776 4.96125527,15.1781962 4.96635781,15.1774836 C5.89619238,15.0507705 6.66759538,14.8210413 6.99707698,14.6782391 C6.99418093,14.5941161 6.98781427,14.4819292 6.97512687,14.3359092 C6.88114359,13.2731558 6.33558548,12.6541624 5.80797819,12.0555563 C5.60254347,11.8225173 5.42101256,11.6130373 5.27864707,11.4075336 C4.60387058,10.4332702 4.5343657,9.35810517 4.52864257,9.23872409 C4.52834377,9.23228845 4.5281599,9.22582983 4.5281599,9.21939419 C4.52751633,8.83709439 4.62784332,8.51011808 4.83389861,8.22603068 C4.71559782,7.41058956 4.71523007,6.32625372 4.83766805,5.5551955 C4.91820545,4.35621341 5.81041453,3.47825467 6.01152817,3.29477008 C5.98989984,3.13433886 5.99426687,2.97478103 6.02469823,2.81795836 C6.1019029,2.41246728 6.41655954,1.72045247 7.65312116,1.65837156 C7.72133892,1.65474003 7.78068467,1.65126937 7.83458312,1.64809752 L7.89491722,1.6445809 C8.12637029,1.63134189 8.32495566,1.80816099 8.3383096,2.03970601 C8.35164058,2.27125103 8.17472952,2.46974445 7.9431845,2.4830984 L7.88381575,2.48654606 C7.82853823,2.48978686 7.76762952,2.49334946 7.69646976,2.49714187 C6.93350206,2.53545688 6.87247843,2.85590562 6.849517,2.97655084 C6.82795762,3.08768048 6.83588723,3.19483384 6.87424822,3.31520324 C6.92212476,3.46542938 6.8818101,3.62979096 6.76989897,3.74082867 C6.70804791,3.80219707 6.63939345,3.86186459 6.59232136,3.90204137 C6.53957212,3.94851586 5.73042873,4.67673112 5.67476046,5.62644723 C5.67391005,5.64083549 5.6723471,5.65515476 5.67002568,5.66938213 C5.54942643,6.40977915 5.55887303,7.52854562 5.69197578,8.27174673 C5.71525899,8.40174659 5.67602459,8.53514814 5.58604061,8.63184358 C5.48541483,8.73998527 5.37014799,8.90299074 5.36814834,9.20781007 C5.37437712,9.31112502 5.44119281,10.1670647 5.96914485,10.9293429 C6.08562988,11.0975198 6.25035918,11.2872792 6.43791203,11.500023 C6.99744467,12.1348525 7.69352772,12.9246201 7.81185151,14.2626349 C7.84510996,14.6456932 7.84207602,14.8509211 7.83370968,14.955707 C7.82463084,15.0693649 7.76972108,15.1744497 7.68159883,15.2467817 C7.2953457,15.5639666 6.05869216,15.8755204 5.08764652,16.0086231 C3.70812183,16.2497756 2.63948438,16.8065961 1.99674814,17.6191642 C1.47472608,18.2791617 1.32760283,18.9811518 1.36396417,19.4180166 C1.36492952,19.4296237 1.36541218,19.4412538 1.36541218,19.4528839 L1.36541218,19.8707866 L1.78478585,19.8707866 C2.0167216,19.8707866 2.20473413,20.0587991 2.20473413,20.2907349 C2.20473413,20.5226706 2.01665271,20.7106372 1.78471696,20.7106372 Z M16.8704009,21.9303972 C16.7913345,21.9303972 16.7114176,21.9081253 16.6403728,21.8615129 C15.8947124,21.3721517 14.6733894,21.3236775 14.594415,21.3210573 L14.1264523,21.3210573 L13.379022,21.3267575 C13.3779648,21.3267575 13.3768845,21.3267575 13.3758272,21.3267575 L3.55819454,21.3267575 C3.32625879,21.3267575 3.13824625,21.1387449 3.13824625,20.9068092 L3.13824625,20.4310318 C3.13141988,20.2936079 3.12024945,19.5613474 3.5866952,18.7588925 C3.8793098,18.2554648 4.29974075,17.8232888 4.83631195,17.4743854 C5.4853689,17.0523225 6.30701582,16.7527207 7.2784292,16.5838541 C7.28366965,16.5829578 7.2889101,16.5821533 7.29417353,16.5814408 C7.30134468,16.5804754 8.02774418,16.4810449 8.77365745,16.2865507 C10.0715185,15.9481052 10.2104823,15.6436996 10.2115166,15.6407116 C10.2193772,15.6098665 10.2306166,15.5803315 10.2449589,15.5525434 C10.2555088,15.4928069 10.2801251,15.2771211 10.2303638,14.7134742 C10.101766,13.2557796 9.34121167,12.3929905 8.730102,11.6996886 C8.53613651,11.4796588 8.35292772,11.2718107 8.21141267,11.0673873 C7.60055583,10.1850155 7.54383029,9.181355 7.54171572,9.13908666 C7.54137095,9.1320994 7.54118708,9.12508916 7.54118708,9.11810187 C7.54118708,8.70957686 7.75262074,8.51462302 7.92249856,8.35796124 L7.93166933,8.34947999 C7.93314035,8.34812391 7.93445045,8.34688274 7.93557668,8.34575651 C7.93484118,8.3153941 7.92277435,8.25317528 7.91445401,8.21026337 C7.91084546,8.19169197 7.90723691,8.17302862 7.90378925,8.15427333 C7.75128763,7.32625972 7.74080675,6.04742978 7.87859832,5.22582881 C7.93091085,4.13967721 8.86612378,3.3093192 8.90627756,3.27419901 C8.90786348,3.27281995 8.9094494,3.27144087 8.91105832,3.27008479 C9.04296588,3.15812771 9.17664325,3.0360115 9.26083518,2.90169056 C9.26777646,2.89061206 9.27322378,2.88139533 9.2774529,2.87378747 C9.27166083,2.85953713 9.26453566,2.84312627 9.25860568,2.82942754 C9.20900531,2.71505708 9.1259856,2.52368884 9.17177055,2.28515655 C9.19960469,2.14005593 9.30526404,1.88090665 9.69999842,1.77559205 C9.85629244,1.73389833 10.022217,1.72541708 10.1433908,1.71921128 L10.1673406,1.71797011 C10.6427502,1.69294009 11.1498554,1.67177144 11.6633043,1.71116671 C15.3763448,1.99582871 16.6582547,3.3865698 16.7110039,3.44563975 C16.7141298,3.44913339 16.7171867,3.45267299 16.7201517,3.45625854 C17.0189032,3.81410292 17.2401512,4.25970179 17.3777129,4.78066659 C17.4205559,4.94272972 17.4481372,5.07914222 17.4642722,5.2086824 C17.5941112,5.96323781 17.5723909,6.73689328 17.5446487,7.25413459 C17.5291572,7.54435881 17.4967722,7.84933904 17.4427358,8.21375697 C17.4387825,8.24032695 17.4311287,8.30371796 17.4450573,8.32035869 C17.4606866,8.33904502 17.4801315,8.359708 17.5007715,8.38156618 C17.5841819,8.47010214 17.6984604,8.59134496 17.7596679,8.78733308 C17.7903521,8.88579833 17.8046025,8.9908371 17.8046025,9.11812481 C17.8046025,9.12511207 17.8044186,9.13212231 17.8040968,9.13910959 C17.8019823,9.18140091 17.7452337,10.1850614 17.1343769,11.0674332 C16.9928618,11.2718336 16.809676,11.4796357 16.6157565,11.6996425 C16.0046009,12.3929215 15.2440006,13.2557565 15.1153798,14.7134742 C15.0654806,15.2788908 15.0904187,15.4941628 15.1009456,15.5530949 C15.1154028,15.5811589 15.1267341,15.6109007 15.1346177,15.6418377 C15.1353302,15.6436995 15.2748227,15.9491853 16.5789355,16.2882974 C17.3247339,16.4822399 18.0444679,16.5804753 18.051639,16.5814406 C18.0584654,16.58236 18.0652688,16.5834403 18.0720492,16.5847044 C19.0521966,16.7664882 19.8787852,17.0737209 20.5289454,17.4979442 C21.0673323,17.8492151 21.4869818,18.2805866 21.7762407,18.780084 C22.2338604,19.5702652 22.216783,20.2865976 22.2075203,20.4340426 L22.2075203,20.906809 C22.2075203,21.1387448 22.0195078,21.3267573 21.787572,21.3267573 L19.1167828,21.3267575 C19.0931548,21.3267575 19.0700095,21.3248038 19.0474388,21.3210573 L18.4333642,21.3210573 C18.2014284,21.3210573 18.0134159,21.1330448 18.0134159,20.901109 C18.0134159,20.6691733 18.2014284,20.4811608 18.4333642,20.4811608 L19.5375355,20.4811608 C19.5611635,20.4811608 19.5843088,20.4831144 19.6068795,20.4868609 L21.3675778,20.4868609 L21.3675778,20.4191948 C21.3675778,20.4036573 21.3677617,20.3944865 21.3694165,20.3795007 C21.371715,20.345116 21.4019625,19.783101 21.0246733,19.159235 C20.7969437,18.7826354 20.4650717,18.4534985 20.038343,18.1809033 C19.4880501,17.8294027 18.7782224,17.570805 17.9283965,17.4122815 C17.827403,17.398284 17.0989809,17.2937738 16.334772,17.0925682 C15.1572344,16.7825544 14.5207959,16.4110113 14.345149,15.9284535 C14.258061,15.7593112 14.2092881,15.4265888 14.278701,14.6396483 C14.4315704,12.9072209 15.3298014,11.8882758 15.9856847,11.1442472 C16.1705943,10.9344914 16.33029,10.7533282 16.443833,10.5893574 C16.8861681,9.95041363 16.9576727,9.19480094 16.9646369,9.1057823 C16.9639244,9.06041107 16.9593735,9.04223038 16.9578795,9.03749559 C16.9544548,9.02648605 16.9137954,8.98336729 16.8895009,8.95757876 C16.862724,8.92914704 16.8323616,8.89692289 16.800735,8.85911352 C16.6276394,8.6520699 16.5658803,8.40064336 16.611964,8.09044568 C16.6620471,7.75275862 16.6919268,7.47271651 16.7059703,7.20926912 C16.7316669,6.73031984 16.7522379,6.01575732 16.6349714,5.34196915 C16.6336843,5.33461414 16.632581,5.32719017 16.6317076,5.3197892 C16.6205832,5.22661038 16.5996214,5.1234793 16.5656964,4.99522625 C16.4609794,4.59872208 16.2986864,4.26531013 16.0832305,4.00395433 C16.0459038,3.96600704 15.7569897,3.68470078 15.1145753,3.37873223 C14.4746202,3.07393589 13.3452349,2.68248829 11.5990628,2.54862704 C11.135605,2.51304716 10.6594369,2.53313555 10.2114476,2.55674053 L10.1862337,2.55802766 C10.1557793,2.5595906 10.1078798,2.56202694 10.058946,2.56616413 C10.109098,2.6923256 10.1603303,2.87201777 10.0962727,3.08517524 C10.0625545,3.19738516 10.0094605,3.28881717 9.97245563,3.34786414 C9.82818245,3.57798413 9.63182657,3.75979086 9.45813333,3.90741975 C9.42489786,3.93743741 8.740353,4.5653027 8.71683992,5.28370364 C8.71619635,5.30324039 8.71419672,5.3227082 8.71084099,5.34196913 C8.58467952,6.06689762 8.59318377,7.26024853 8.72982612,8.00218549 C8.73279109,8.01829758 8.73591698,8.03431771 8.73899689,8.05029188 C8.77910469,8.25696775 8.85375809,8.64165793 8.5012231,8.96681848 L8.49189143,8.97541466 C8.44978398,9.01423533 8.3978392,9.06213486 8.38340499,9.08282084 C8.38276142,9.08647537 8.38170414,9.0940832 8.38129043,9.10690851 C8.38859946,9.20079986 8.45971326,9.95048257 8.90202536,10.5893804 C9.01554539,10.7533742 9.17526411,10.9345603 9.36019673,11.1443621 C10.0160341,11.8883677 10.9142191,12.9073358 11.0670425,14.6396713 C11.1365244,15.4266118 11.0877744,15.7593342 11.0006865,15.9284765 C10.8250396,16.4110573 10.1886241,16.7825774 9.01106345,17.0925912 C8.24021209,17.2955436 7.50576803,17.4000997 7.41493361,17.4126492 C6.55938467,17.5621399 5.84590241,17.8197951 5.29423045,18.1785129 C4.86894978,18.4550385 4.53877865,18.7923348 4.31286481,19.1809783 C3.94276974,19.8176696 3.97637295,20.3799374 3.97680965,20.3854307 C3.97772903,20.39667 3.97816573,20.4079324 3.97816573,20.4192178 L3.97816573,20.4868839 L13.3744941,20.4868839 L14.1219243,20.4811838 C14.1229816,20.4811838 14.1240619,20.4811838 14.1251192,20.4811838 L14.6004139,20.4811838 C14.6035858,20.4811838 14.6067117,20.4812067 14.6098835,20.4812757 C14.6715507,20.4827007 16.1310841,20.5226936 17.1012104,21.159316 C17.2951299,21.2865577 17.3491433,21.5469022 17.2219015,21.7408217 C17.1412262,21.8636734 17.0071352,21.9303972 16.8704009,21.9303972 Z M14.991172,15.4184983 C15.0261365,15.4500105 15.0595407,15.4833439 15.091172,15.5184983 C15.0613138,15.4852441 15.0280515,15.4516733 14.991172,15.4184983 Z"/>
  </g>
</svg>
