<svg xmlns="http://www.w3.org/2000/svg" width="20" height="20" viewBox="0 0 20 20">
  <g fill="none" fill-rule="evenodd">
    <rect width="20" height="20"/>
    <path fill="#1C1C1C" fill-rule="nonzero" d="M9.9999998,9.78695606 C11.731477,9.78695606 13.2924618,8.74393937 13.9550694,7.14426305 C14.617677,5.54458673 14.2514183,3.70327963 13.027079,2.47894038 C11.8027397,1.25460114 9.96143265,0.888342389 8.36175633,1.55095002 C6.76208001,2.21355766 5.71906333,3.77454245 5.71906334,5.50601962 C5.71906335,7.87031553 7.63570389,9.78695606 9.9999998,9.78695606 Z M9.9999998,3.36555138 C11.1821478,3.36555138 12.140468,4.32387163 12.140468,5.50601959 C12.140468,6.68816754 11.1821478,7.6464878 9.99999982,7.64648781 C8.81785187,7.64648782 7.8595316,6.68816757 7.85953159,5.50601962 C7.85953158,4.93833215 8.08504454,4.39389567 8.4864602,3.99248001 C8.88787586,3.59106435 9.43231233,3.36555138 9.9999998,3.36555138 Z M9.9999998,10.1627184 C5.86248195,10.1627184 2.50836101,13.5168393 2.508361,17.6543572 C2.508361,18.2454312 2.98752114,18.7245913 3.57859512,18.7245913 C4.16966911,18.7245913 4.64882924,18.2454312 4.64882924,17.6543572 C4.64882924,14.6989873 7.04462991,12.3031866 9.9999998,12.3031866 C12.9553697,12.3031866 15.3511704,14.6989873 15.3511704,17.6543572 C15.3511704,18.2454312 15.8303305,18.7245913 16.4214045,18.7245913 C17.0124785,18.7245913 17.4916386,18.2454312 17.4916386,17.6543572 C17.4916386,13.5168393 14.1375177,10.1627184 9.9999998,10.1627184 Z"/>
  </g>
</svg>
