<svg xmlns="http://www.w3.org/2000/svg" width="22" height="22" viewBox="0 0 22 22">
  <g fill="none" fill-rule="evenodd">
    <rect width="22" height="22" fill="#000" opacity="0"/>
    <path fill="#1C1C1C" fill-rule="nonzero" d="M1.38144531,11.0042969 C1.38144531,12.1908461 2.34333355,13.1527344 3.52988281,13.1527344 C4.71643208,13.1527344 5.67832031,12.1908461 5.67832031,11.0042969 C5.67832031,9.81774761 4.71643208,8.85585938 3.52988281,8.85585938 C2.34333355,8.85585938 1.38144531,9.81774761 1.38144531,11.0042969 Z M8.85800781,11.0042969 C8.85800781,12.1908461 9.81989605,13.1527344 11.0064453,13.1527344 C12.1929946,13.1527344 13.1548828,12.1908461 13.1548828,11.0042969 C13.1548828,9.81774761 12.1929946,8.85585938 11.0064453,8.85585938 C9.81989605,8.85585938 8.85800781,9.81774761 8.85800781,11.0042969 Z M16.3367187,11.0042969 C16.3367187,11.7718597 16.7462086,12.481117 17.4109375,12.8648984 C18.0756664,13.2486798 18.8946461,13.2486798 19.559375,12.8648984 C20.2241039,12.481117 20.6335938,11.7718597 20.6335938,11.0042969 C20.6335938,9.81774761 19.6717055,8.85585938 18.4851562,8.85585938 C17.298607,8.85585938 16.3367187,9.81774761 16.3367187,11.0042969 Z"/>
  </g>
</svg>
