<svg xmlns="http://www.w3.org/2000/svg" width="22" height="22" viewBox="0 0 22 22">
  <path fill="#1C1C1C" d="M17.4125463,21.4804878 L14.0581854,21.4804878 L14.0581854,19.0533073 L17.4125463,19.0533073 C18.3188235,19.0533073 19.0533073,18.3188235 19.0533073,17.4125463 L19.0533073,14.0581854 L21.4804878,14.0581854 L21.4804878,17.4125463 C21.4804878,19.6589131 19.6589131,21.4804878 17.4125463,21.4804878 Z M20.2669268,12.2038244 L1.71356098,12.2038244 C1.0435403,12.2038244 0.5,11.6602738 0.5,10.9902439 C0.5,10.3202088 1.04354543,9.77666341 1.71358049,9.77666341 L20.2669268,9.77666341 C20.9369619,9.77666341 21.4805073,10.3202088 21.4805073,10.9902439 C21.4805073,11.660279 20.9369619,12.2038244 20.2669268,12.2038244 Z M17.4125463,2.92718049 L14.0581854,2.92718049 L14.0581854,0.5 L17.4125463,0.5 C19.6589131,0.5 21.4804878,2.3215747 21.4804878,4.56794146 L21.4804878,7.92230244 L19.0533073,7.92230244 L19.0533073,4.56794146 C19.0533073,3.66166433 18.3188235,2.92718049 17.4125463,2.92718049 Z M2.92718049,4.56794146 L2.92718049,7.92230244 L0.5,7.92230244 L0.5,4.56794146 C0.5,2.3215747 2.3215747,0.5 4.56794146,0.5 L7.92230244,0.5 L7.92230244,2.92718049 L4.56794146,2.92718049 C3.66166433,2.92718049 2.92718049,3.66166433 2.92718049,4.56794146 Z M2.92718049,17.4125463 C2.92718049,18.3188235 3.66166433,19.0533073 4.56794146,19.0533073 L7.92230244,19.0533073 L7.92230244,21.4804878 L4.56794146,21.4804878 C2.3215747,21.4804878 0.5,19.6589131 0.5,17.4125463 L0.5,14.0581854 L2.92718049,14.0581854 L2.92718049,17.4125463 Z"/>
</svg>
