<?xml version="1.0" encoding="iso-8859-1"?>
<!-- Generator: Adobe Illustrator 18.1.1, SVG Export Plug-In . SVG Version: 6.00 Build 0)  -->
<svg version="1.1" id="Capa_1" xmlns="http://www.w3.org/2000/svg" xmlns:xlink="http://www.w3.org/1999/xlink" x="0px" y="0px"
	 viewBox="0 0 439.167 439.167" style="enable-background:new 0 0 439.167 439.167;" xml:space="preserve">
<g>
	<g>
		<path fill="#FFF" d="M36.833,439.167h365.5c9.35,0,17-7.65,17-17v-153c0-9.35-7.65-17-17-17s-17,7.65-17,17v136h-331.5v-136
			c0-9.35-7.65-17-17-17s-17,7.65-17,17v153C19.833,431.517,27.483,439.167,36.833,439.167z"/>
		<path fill="#FFF" d="M221,0c-9.35,0-17,7.65-17,17v258.967l-107.95-100.3c-6.8-6.517-17.567-5.95-24.083,0.85
			c-6.517,6.8-5.95,17.567,0.85,24.083l136,126.083c1.7,1.7,3.967,2.833,6.233,3.683c1.983,0.567,3.967,1.133,5.95,1.133
			c5.95,0,11.05-3.117,14.167-7.65L369.183,200.6c6.8-6.233,7.367-17,1.133-24.083c-6.233-6.8-17-7.367-24.083-1.133L238,275.117V17
			C238,7.65,230.35,0,221,0z"/>
	</g>
</g>
<g>
</g>
<g>
</g>
<g>
</g>
<g>
</g>
<g>
</g>
<g>
</g>
<g>
</g>
<g>
</g>
<g>
</g>
<g>
</g>
<g>
</g>
<g>
</g>
<g>
</g>
<g>
</g>
<g>
</g>
</svg>
