<svg xmlns="http://www.w3.org/2000/svg" width="16" height="16" viewBox="0 0 16 16">
  <g fill="none" fill-rule="evenodd">
    <rect width="16" height="16" fill="#000" opacity="0"/>
    <path fill="#1C1C1C" fill-rule="nonzero" d="M8.00161144,5.0018903 C8.79268671,5.00304164 9.47300031,5.56235131 9.62711146,6.33827087 C9.7812226,7.11419043 9.36629244,7.8910346 8.63570251,8.19441517 C7.90511258,8.49779573 7.06194772,8.24338085 6.62109559,7.5865317 C6.18024345,6.92968256 6.26424937,6.05298596 6.82181422,5.49180609 C7.13396397,5.17763249 7.5587321,5.00124573 8.00161144,5.0018903 Z M8.00161144,4.00206214 C6.72815509,4.00399326 5.63336768,4.9051417 5.3866837,6.15447825 C5.13999972,7.4038148 5.81011141,8.65344608 6.98726262,9.13925451 C8.16441382,9.62506295 9.52081207,9.21176912 10.2270545,8.15209163 C10.933297,7.09241414 10.7927216,5.68143342 9.89128666,4.78192811 C9.39107901,4.27965668 8.71046503,3.99876837 8.00161144,4.00206214 Z"/>
    <path fill="#1C1C1C" fill-rule="nonzero" d="M12.5808244,1.94241614 C11.380815,0.70100239 9.72820655,-4.81038964e-06 8.00161145,-4.81038964e-06 C6.27501634,-4.81038964e-06 4.6224079,0.70100239 3.4223985,1.94241614 C0.896764453,4.55454649 0.896764453,8.6986756 3.4223985,11.310806 L8.00161144,16 L12.5808244,11.310806 C15.1064584,8.6986756 15.1064584,4.55454649 12.5808244,1.94241614 Z M11.890943,10.6509194 L8.00161144,14.650232 L4.11227992,10.6509194 C1.96492126,8.43646361 1.96492126,4.91674131 4.11227992,2.70228555 C5.13285484,1.6503868 6.53598388,1.05673053 8.00161145,1.05673053 C9.46723901,1.05673053 10.870368,1.6503868 11.890943,2.70228555 C14.0383016,4.91674131 14.0383016,8.43646361 11.890943,10.6509194 Z"/>
  </g>
</svg>
