<svg xmlns="http://www.w3.org/2000/svg" width="25" height="25" viewBox="0 0 25 25">
  <path fill="#FFF" d="M15.7537849,4.86872498 L15.7537849,23.8216947 C15.7537811,24.0627279 15.6406381,24.2897821 15.4482063,24.4349268 C15.2557744,24.5800715 15.0063715,24.6264732 14.7746143,24.5602493 L5.55708446,21.9267242 C5.22734148,21.8325012 5.00000538,21.5311104 5,21.1881696 L5,3.91183016 C5.00000538,3.56888935 5.22734148,3.26749857 5.55708446,3.17327558 L14.7746143,0.539750483 C15.0063715,0.473526614 15.2557744,0.519928299 15.4482063,0.665073004 C15.6406381,0.810217708 15.7537811,1.03727188 15.7537849,1.27830506 L15.7537849,3.33247 L19.5944223,3.33247 C20.0186474,3.33247 20.3625498,3.6763724 20.3625498,4.10059749 L20.3625498,21.7675298 L18.8262948,21.7675298 L18.8262948,4.86872498 L15.7537849,4.86872498 Z M6.53625498,4.49128634 L6.53625498,20.6086174 L14.2175299,22.8032537 L14.2175299,2.29665008 L6.53625498,4.49128634 Z M11.1450199,11.0137449 L12.6812749,11.0137449 L12.6812749,14.0862549 L11.1450199,14.0862549 L11.1450199,11.0137449 Z"/>
</svg>
