<svg xmlns="http://www.w3.org/2000/svg" width="32" height="32" viewBox="0 0 32 32">
  <g fill="none" fill-rule="evenodd">
    <rect width="32" height="32"/>
    <path fill="#474747" fill-rule="nonzero" d="M8.14279427,8.97453198 L6.83327824,9.00891552 L6.83327824,22.9923566 L8.90764358,22.9923566 L9.00764358,23.0923566 L9.00764358,25.1668047 L22.9945947,25.1668047 L23.0218114,23.8536018 L8.14279427,8.97453198 Z M9.00764358,8.12833573 L23.8302708,22.992329 L25.1668047,22.992329 L25.1668047,9.00745043 L23.0925222,9.00745043 L22.9925222,8.90745043 L22.9925222,6.83319546 L9.00764358,6.83319546 L9.00764358,8.12833573 Z M28.4763522,22.9923566 L28.5763522,23.0923566 L28.5763522,28.4763798 L28.4763522,28.5763798 L23.0925222,28.5763522 L22.9925222,28.4763522 L22.9925222,26.4019869 L9.00764358,26.4019869 L9.00764358,28.4763522 L8.9076441,28.5763522 L3.52364851,28.5763798 L3.423648,28.4763798 L3.423648,23.092329 L3.523648,22.992329 L5.59801334,22.992329 L5.59801334,9.00745043 L3.523648,9.00745043 L3.423648,8.90745043 L3.423648,3.523648 L3.523648,3.423648 L8.90764358,3.423648 L9.00764358,3.523648 L9.00764358,5.59782019 L22.9925222,5.59782019 L22.9925222,3.523648 L23.0925222,3.423648 L28.4763522,3.423648 L28.5763522,3.523648 L28.5763522,8.90745043 L28.4763522,9.00745043 L26.4020972,9.00745043 L26.4020972,22.9923566 L28.4763522,22.9923566 Z M27.3411425,27.3409493 L27.3411425,24.2277595 L24.2277595,24.2277595 L24.2277595,27.3409493 L27.3411425,27.3409493 Z M7.77224072,27.3409493 L7.77224072,24.2277595 L4.65902328,24.2277595 L4.65902328,27.3409493 L7.77224072,27.3409493 Z M27.3411425,7.77224072 L27.3411425,4.65883012 L24.2277595,4.65883012 L24.2277595,7.77224072 L27.3411425,7.77224072 Z M7.77224072,7.77224072 L7.77224072,4.65883012 L4.65902328,4.65883012 L4.65902328,7.77224072 L7.77224072,7.77224072 Z"/>
  </g>
</svg>
