<svg xmlns="http://www.w3.org/2000/svg" width="20" height="20" viewBox="0 0 20 20">
  <path fill="#FFF" d="M11.6033423,10.0185 L18.425421,16.8405786 C18.8550259,17.2701835 18.8550259,17.9763165 18.425421,18.4059214 L18.387421,18.4439214 C17.9578161,18.8735262 17.2516831,18.8735262 16.8220783,18.4439214 L9.99999964,11.6218427 L3.17792099,18.4439214 C2.74831613,18.8735262 2.04218314,18.8735262 1.61257828,18.4439214 L1.57457828,18.4059214 C1.14497342,17.9763165 1.14497342,17.2701835 1.57457828,16.8405786 L8.39665718,10.0184997 L1.5764763,3.19829424 C1.13484075,2.76828067 1.13484075,2.05921933 1.57457828,1.63107864 L1.61257828,1.59307864 C2.04218314,1.16347379 2.74831613,1.16347379 3.17801736,1.59317508 L9.99999964,8.42446429 L16.8220783,1.59307864 C17.2516831,1.16347379 17.9578161,1.16347379 18.387421,1.59307864 L18.425421,1.63107864 C18.8550259,2.0606835 18.8550259,2.7668165 18.425421,3.19642136 L11.6033423,10.0185 Z"/>
</svg>
