<svg xmlns="http://www.w3.org/2000/svg" width="26" height="26" viewBox="0 0 26 26">
  <g fill="none" fill-rule="evenodd">
    <rect width="26" height="26"/>
    <path fill="#FFF" fill-rule="nonzero" d="M7.61923077,7.60384613 L7.61923077,10.0884615 L7.46923077,10.2384615 L4.91153847,10.2384615 C4.1901103,10.2384615 3.6,10.8287569 3.6,11.55 L3.6,22.5115384 C3.6,23.2327815 4.1901103,23.8230769 4.91153847,23.8230769 L20.9884615,23.8230769 C21.709465,23.8230769 22.3,23.2325419 22.3,22.5115384 L22.3,11.55 C22.3,10.8289965 21.709465,10.2384615 20.9884615,10.2384615 L18.4307692,10.2384615 L18.2807692,10.0884615 L18.2807692,7.60384613 C18.2807692,4.61565355 15.8980564,2.20000002 12.95,2.2 C10.0019436,2.19999998 7.61923077,4.61565353 7.61923077,7.60384613 Z M16.7538461,7.60384613 L16.7538461,10.0884615 L16.6038461,10.2384615 L9.29615386,10.2384615 L9.14615386,10.0884615 L9.14615386,7.60384613 C9.14615386,5.46219786 10.8523363,3.72692307 12.95,3.72692307 C15.0476637,3.72692307 16.7538461,5.46219786 16.7538461,7.60384613 Z M20.6230769,11.7653846 L20.7730769,11.9153846 L20.7730769,22.1461538 L20.6230769,22.2961538 L5.27692309,22.2961538 L5.12692309,22.1461538 L5.12692309,11.9153846 L5.27692309,11.7653846 L20.6230769,11.7653846 Z M8.675,18.05 C9.37916306,18.05 9.95,17.4791631 9.95,16.775 C9.95,16.0708369 9.37916306,15.5 8.675,15.5 C7.97083694,15.5 7.4,16.0708369 7.4,16.775 C7.4,17.4791631 7.97083694,18.05 8.675,18.05 Z M12.95,18.05 C13.6541631,18.05 14.225,17.4791631 14.225,16.775 C14.225,16.0708369 13.6541631,15.5 12.95,15.5 C12.2458369,15.5 11.675,16.0708369 11.675,16.775 C11.675,17.4791631 12.2458369,18.05 12.95,18.05 Z M17.225,18.05 C17.9291631,18.05 18.5,17.4791631 18.5,16.775 C18.5,16.0708369 17.9291631,15.5 17.225,15.5 C16.5208369,15.5 15.95,16.0708369 15.95,16.775 C15.95,17.4791631 16.5208369,18.05 17.225,18.05 Z"/>
  </g>
</svg>
