<svg xmlns="http://www.w3.org/2000/svg" width="26" height="26" viewBox="0 0 26 26">
  <g fill="none" fill-rule="evenodd">
    <rect width="26" height="26"/>
    <path fill="#474747" fill-rule="nonzero" d="M23.3557278,21.0462212 L23.3557278,20.4279723 C23.3557278,17.1144117 20.6551876,14.4138715 17.341627,14.4138715 L16.1011691,14.3638715 L16.127837,14.306495 C18.2609518,13.1810479 19.5942033,11.0174223 19.6528243,8.5748821 C19.6920058,6.83783707 19.0584329,5.17342403 17.8706193,3.89424015 C16.682507,2.61473453 15.0701921,1.85740915 13.3401035,1.76600824 C11.4858371,1.66807164 9.73003445,2.31431642 8.39174753,3.58732105 C7.05165923,4.86203919 6.31576401,6.57286752 6.31576401,8.41815885 C6.31576401,10.8824896 7.69110988,13.1595523 9.8871379,14.3507173 L9.8371379,14.4138715 L8.58090878,14.4138715 C5.26734818,14.4138715 2.566808,17.1144117 2.566808,20.4279723 L2.566808,21.0462212 C2.566808,22.8536223 4.03742753,24.3242418 5.8448286,24.3242418 L20.0777072,24.3242418 C21.8851083,24.3242418 23.3557278,22.8536223 23.3557278,21.0462212 Z M8.58090878,15.4977524 L10.4422326,15.4977524 C10.7434741,15.4977524 10.984173,15.2570535 10.984173,14.955812 L10.984173,13.9823988 C10.984173,13.7687987 10.8608215,13.5804377 10.6649533,13.4886198 C8.68840236,12.5932024 7.41279909,10.6031117 7.41279909,8.41815885 C7.41279909,6.87082307 8.03094011,5.43081569 9.15162213,4.36981496 C10.2783037,3.30278125 11.7446758,2.76372484 13.2993696,2.84345285 C16.2788289,3.00271125 18.648458,5.56347263 18.5820699,8.55093157 C18.5289897,10.7073145 17.2879976,12.5991379 15.3436742,13.4883483 C15.1495246,13.5793559 15.0238653,13.7729391 15.0238653,13.9823988 L15.0238653,14.955812 C15.0238653,15.2570535 15.2645642,15.4977524 15.5658058,15.4977524 L17.341627,15.4977524 C20.0592816,15.4977524 22.271847,17.7103177 22.271847,20.4279723 L22.271847,21.0462212 C22.271847,22.2577163 21.2892023,23.240361 20.0777072,23.240361 L5.8448286,23.240361 C4.63333352,23.240361 3.65068885,22.2577163 3.65068885,21.0462212 L3.65068885,20.4279723 C3.65068885,17.7103177 5.86325417,15.4977524 8.58090878,15.4977524 Z"/>
  </g>
</svg>
