<svg xmlns="http://www.w3.org/2000/svg" width="26" height="26" viewBox="0 0 26 26">
  <g fill="none" fill-rule="evenodd">
    <rect width="26" height="26"/>
    <path fill="#FFF" fill-rule="nonzero" d="M22.688793,23.0832433 L22.1010678,23.0832433 C21.8836272,23.0832433 21.7072052,22.9068213 21.7072052,22.6893807 L21.7072052,15.0489536 C21.7072052,14.831513 21.8836272,14.655091 22.1010678,14.655091 L22.688793,14.655091 C22.9062336,14.655091 23.0826556,14.831513 23.0826556,15.0489536 L23.0826556,22.6893807 C23.0826556,22.9068213 22.9062336,23.0832433 22.688793,23.0832433 Z M22.688793,13.6790529 L3.29386259,13.6790529 C3.07637146,13.6790529 2.9,13.5031687 2.9,13.2857781 L2.9,12.6974652 C2.9,12.4800246 3.07642196,12.3036026 3.29386259,12.3036026 L22.688793,12.3036026 C22.9062336,12.3036026 23.0826556,12.4800246 23.0826556,12.6974652 L23.0826556,13.2857781 C23.0826556,13.5031687 22.9062841,13.6790529 22.688793,13.6790529 Z M21.8072052,11.3281523 L15.9299536,11.3281523 C15.2252888,11.3281523 14.6545033,10.7573667 14.6545033,10.052702 L14.6545033,4.17545032 C14.6545033,3.47117799 15.225484,2.9 15.9299536,2.9 L21.8072052,2.9 C22.5112823,2.9 23.0826556,3.47137328 23.0826556,4.17545032 L23.0826556,10.052702 C23.0826556,10.7571715 22.5114776,11.3281523 21.8072052,11.3281523 Z M21.7072052,4.27545032 L16.0299536,4.27545032 L16.0299536,9.95270197 L21.7072052,9.95270197 L21.7072052,4.27545032 Z M13.2851904,11.3281523 L12.6974652,11.3281523 C12.4800246,11.3281523 12.3036026,11.1517303 12.3036026,10.9342897 L12.3036026,3.29386259 C12.3036026,3.07642197 12.4800246,2.9 12.6974652,2.9 L13.2851904,2.9 C13.502631,2.9 13.6790529,3.07642197 13.6790529,3.29386259 L13.6790529,10.9342897 C13.6790529,11.1517303 13.502631,11.3281523 13.2851904,11.3281523 Z M10.052702,11.3281523 L4.17545032,11.3281523 C3.47078554,11.3281523 2.9,10.7573667 2.9,10.052702 L2.9,4.17545032 C2.9,3.47117799 3.47098076,2.9 4.17545032,2.9 L10.052702,2.9 C10.756779,2.9 11.3281523,3.47137328 11.3281523,4.17545032 L11.3281523,10.052702 C11.3281523,10.7571715 10.7569743,11.3281523 10.052702,11.3281523 Z M9.95270197,4.27545032 L4.27545032,4.27545032 L4.27545032,9.95270197 L9.95270197,9.95270197 L9.95270197,4.27545032 Z M4.17545032,14.655091 L10.052702,14.655091 C10.7569743,14.655091 11.3281523,15.2260718 11.3281523,15.9305413 L11.3281523,21.807793 C11.3281523,22.51187 10.756779,23.0832433 10.052702,23.0832433 L4.17545032,23.0832433 C3.47098076,23.0832433 2.9,22.5120653 2.9,21.807793 L2.9,15.9305413 C2.9,15.2258765 3.47078554,14.655091 4.17545032,14.655091 Z M9.95270197,21.7072052 L9.95270197,16.0299536 L4.27545032,16.0299536 L4.27545032,21.7072052 L9.95270197,21.7072052 Z M12.6974652,14.655091 L13.2851904,14.655091 C13.502631,14.655091 13.6790529,14.831513 13.6790529,15.0489536 L13.6790529,20.9256175 C13.6790529,21.1434739 13.5028033,21.3194801 13.2851904,21.3194801 L12.6974652,21.3194801 C12.4798523,21.3194801 12.3036026,21.1434739 12.3036026,20.9256175 L12.3036026,15.0489536 C12.3036026,14.831513 12.4800246,14.655091 12.6974652,14.655091 Z M16.2238162,17.0059916 L16.8115413,17.0059916 C17.028982,17.0059916 17.2054039,17.1824136 17.2054039,17.3998542 L17.2054039,22.6893807 C17.2054039,22.9068213 17.028982,23.0832433 16.8115413,23.0832433 L16.2238162,23.0832433 C16.0063756,23.0832433 15.8299536,22.9068213 15.8299536,22.6893807 L15.8299536,17.3998542 C15.8299536,17.1824136 16.0063756,17.0059916 16.2238162,17.0059916 Z M19.162442,15.8299536 L19.7501672,15.8299536 C19.9676078,15.8299536 20.1440297,16.0063756 20.1440297,16.2238162 L20.1440297,22.6893807 C20.1440297,22.9068213 19.9676078,23.0832433 19.7501672,23.0832433 L19.162442,23.0832433 C18.9450014,23.0832433 18.7685794,22.9068213 18.7685794,22.6893807 L18.7685794,16.2238162 C18.7685794,16.0063756 18.9450014,15.8299536 19.162442,15.8299536 Z"/>
  </g>
</svg>
