<!--?xml version="1.0" encoding="iso-8859-1"?-->
<!-- Generator: Adobe Illustrator 16.0.0, SVG Export Plug-In . SVG Version: 6.00 Build 0)  -->

<svg version="1.1" id="Capa_1" xmlns="http://www.w3.org/2000/svg" xmlns:xlink="http://www.w3.org/1999/xlink" x="0px" y="0px" width="452.193px" height="452.193px" viewBox="0 0 452.193 452.193" style="enable-background:new 0 0 452.193 452.193;" xml:space="preserve">
<g>
	<path d="M226.089,176.8c48.824,0,88.4-39.576,88.4-88.4S274.913,0,226.089,0c-48.824,0-88.4,39.576-88.4,88.4
		S177.272,176.8,226.089,176.8z M195.578,109.562c1.013-2.033,2.761-3.55,4.917-4.271c0.877-0.299,1.782-0.442,2.7-0.442
		c3.665,0,6.902,2.339,8.071,5.807c1.299,3.876,6.106,8.405,15.389,8.405c7.365,0,11.724-4.835,12.212-9.615
		c0.477-4.604-2.938-10.343-13.96-12.641c-22.12-4.638-28.58-19.625-27.39-31.049c1.17-11.295,9.323-20.522,20.631-23.698v-6.352
		c0-4.685,3.815-8.507,8.507-8.507c4.693,0,8.507,3.822,8.507,8.507v6.052c13.09,2.727,20.447,11.479,23.018,19.135
		c1.488,4.454-0.926,9.282-5.373,10.771c-0.877,0.299-1.787,0.442-2.705,0.442c-3.658,0-6.896-2.332-8.064-5.807
		c-1.299-3.883-6.107-8.412-15.389-8.412c-7.364,0-11.723,4.835-12.213,9.615c-0.476,4.597,2.944,10.343,13.961,12.641
		c22.113,4.638,28.58,19.625,27.396,31.049c-1.17,11.295-9.322,20.522-20.631,23.698v6.351c0,4.685-3.814,8.507-8.507,8.507
		c-4.692,0-8.507-3.822-8.507-8.507v-6.052c-13.097-2.727-20.455-11.485-23.018-19.149
		C194.401,113.907,194.564,111.595,195.578,109.562z M407.663,260.895c-4.924-21.984-22.883-38.657-45.172-41.935L283.89,207.4
		l-38.93,89.311l-5.025-44.023c-0.137-1.395-1.307-2.455-2.707-2.455h-22.243c-1.407,0-2.584,1.074-2.706,2.482l-4.563,45.111
		l-39.419-90.433l-78.602,11.56c-22.29,3.278-40.249,19.951-45.172,41.936L1.696,452.193h74.8l23.8-102l6.8,102h119h119l6.799-102
		l23.801,102h74.801L407.663,260.895z M273.688,329.801l40.801-27.201l13.6,27.201H273.688z M226.089,199.92
		c10.595,0,27.234,1.36,27.201,10.88c-0.035,8.16-6.768,19.04-10.848,23.12C238.364,238,231.53,238,226.089,238
		c-5.44,0-12.274,0-16.354-4.08s-10.812-14.96-10.846-23.12C198.855,201.28,215.495,199.92,226.089,199.92z" data-original="#000000" class="active-path" style="fill: rgb(255, 255, 255);"></path>
</g>
<g>
</g>
<g>
</g>
<g>
</g>
<g>
</g>
<g>
</g>
<g>
</g>
<g>
</g>
<g>
</g>
<g>
</g>
<g>
</g>
<g>
</g>
<g>
</g>
<g>
</g>
<g>
</g>
<g>
</g>
</svg>
