<?xml version="1.0" encoding="iso-8859-1"?>
<!-- Generator: Adobe Illustrator 19.0.0, SVG Export Plug-In . SVG Version: 6.00 Build 0)  -->
<svg version="1.1" id="Capa_1" xmlns="http://www.w3.org/2000/svg" xmlns:xlink="http://www.w3.org/1999/xlink" x="0px" y="0px"
	 viewBox="0 0 511.997 511.997" style="enable-background:new 0 0 511.997 511.997;" xml:space="preserve">
<g>
	<g>
		<g>
			<path fill="#FFF" d="M249.488,275.674c2.778,1.828,5.902,2.707,8.99,2.707c5.334,0,10.552-2.6,13.694-7.384
				c4.979-7.561,2.893-17.723-4.668-22.702c-21.921-14.43-51.819-38.419-58.449-79.917c-2.325-14.821,0.763-37.336,13.081-51.722
				c7.987-9.336,18.522-13.88,32.215-13.88c26.846,0,37.833,19.063,42.004,30.414c10.046,27.414,1.757,61.528-19.285,79.349
				c-6.913,5.857-7.765,16.196-1.917,23.101c5.857,6.905,16.196,7.748,23.092,1.917c31.514-26.695,43.655-75.32,28.869-115.638
				c-11.91-32.499-39.111-51.899-72.764-51.899c-23.181,0-42.945,8.759-57.127,25.337c-20.456,23.944-23.846,57.047-20.527,78.16
				C185.368,227.839,222.393,257.836,249.488,275.674z"/>
			<path fill="#FFF" d="M381.659,409.22H147.712c0.612-52.663,4.136-74.521,7.135-83.538c4.473-13.374,22.852-27.148,38.942-36.147
				c14.537,22.897,37.62,36.537,63.268,36.537h0.009c25.346,0,48.225-13.632,62.7-36.493c14.705,8.227,34.159,21.814,38.925,36.085
				c5.653,16.977,5.458,28.239,5.192,43.832c-0.062,3.55-0.124,7.233-0.124,11.138c0,9.052,7.33,16.383,16.383,16.383
				c9.052,0,16.392-7.331,16.392-16.383c0-3.71,0.062-7.206,0.115-10.57c0.293-16.702,0.559-32.464-6.869-54.757
				c-12.371-37.061-64.865-60.171-70.811-62.682c-4.056-1.731-8.626-1.731-12.691-0.036c-4.056,1.704-7.259,4.961-8.901,9.043
				c-7.934,19.835-23.003,31.674-40.309,31.674c-17.394,0.009-33.049-12.132-40.877-31.674c-1.633-4.091-4.846-7.348-8.901-9.043
				c-4.056-1.686-8.635-1.686-12.691,0.036c-5.937,2.512-58.431,25.612-70.82,62.691c-7.597,22.817-8.804,69.56-8.901,104.917
				c-0.595,1.677-0.905,3.479-0.905,5.36c0,9.052,7.331,16.383,16.383,16.383h251.314c9.043,0,16.383-7.322,16.383-16.374
				S390.711,409.22,381.659,409.22z"/>
			<path fill="#FFF" d="M484.179,217.828c0-47.276-33.182-85.73-73.98-85.73c-23.039,0-44.595,12.203-57.677,32.65
				c-14.776,23.092-15.895,52.254-3.088,80.006c3.79,8.218,13.534,11.821,21.734,8.005c8.209-3.79,11.803-13.516,8.014-21.734
				c-11.013-23.837-4.144-40.691,0.932-48.616c6.922-10.827,18.442-17.554,30.076-17.554c22.728,0,41.214,23.766,41.214,52.973
				c0,29.216-18.486,52.991-41.214,52.991c-9.052,0-16.383,7.331-16.383,16.383c0,9.052,7.331,16.383,16.383,16.383
				C450.979,303.585,484.171,265.122,484.179,217.828z"/>
			<path fill="#FFF" d="M505.958,350.816c-5.742-30.786-24.015-47.781-34.39-55.165c-7.375-5.245-17.599-3.523-22.852,3.852
				c-5.236,7.366-3.523,17.599,3.852,22.844c7.757,5.52,17.732,15.992,21.193,34.514c2.236,11.892,3.63,25.967,4.455,36.732h-47.329
				c-9.052,0-16.383,7.331-16.383,16.383c0,9.052,7.331,16.383,16.383,16.383h64.732c4.455,0,8.706-1.81,11.795-5.023
				s4.748-7.535,4.57-11.981C511.931,407.996,510.688,375.949,505.958,350.816z"/>
			<path fill="#FFF" d="M101.812,270.837c-22.719,0-41.205-23.775-41.205-52.991c0-29.207,18.486-52.973,41.205-52.973
				c11.652,0,23.19,6.727,30.112,17.545c5.068,7.925,11.937,24.769,0.95,48.625c-3.798,8.218-0.204,17.945,8.014,21.734
				c8.218,3.781,17.945,0.195,21.734-8.023c12.797-27.76,11.661-56.922-3.115-80.006c-13.081-20.438-34.647-32.641-57.703-32.641
				c-40.788,0-73.971,38.454-73.971,85.73c0,47.284,33.183,85.747,73.971,85.747c9.043,0,16.401-7.313,16.401-16.365
				C118.204,278.168,110.865,270.837,101.812,270.837z"/>
			<path fill="#FFF" d="M81.134,393.601H33.788c0.825-10.765,2.228-24.858,4.482-36.786c3.301-17.856,12.771-28.159,20.128-33.662
				c7.242-5.422,8.715-15.69,3.301-22.932c-5.422-7.26-15.69-8.733-22.932-3.31c-12.043,8.999-27.485,25.675-32.703,53.878
				c-4.757,25.169-5.999,57.233-6.053,58.582c-0.16,4.446,1.491,8.777,4.579,11.981c3.088,3.195,7.348,5.005,11.794,5.005h64.75
				c9.043,0,16.392-7.322,16.392-16.374C97.526,400.931,90.187,393.601,81.134,393.601z"/>
		</g>
	</g>
</g>
<g>
</g>
<g>
</g>
<g>
</g>
<g>
</g>
<g>
</g>
<g>
</g>
<g>
</g>
<g>
</g>
<g>
</g>
<g>
</g>
<g>
</g>
<g>
</g>
<g>
</g>
<g>
</g>
<g>
</g>
</svg>
