<!--?xml version="1.0" encoding="iso-8859-1"?-->
<!-- Generator: Adobe Illustrator 19.0.0, SVG Export Plug-In . SVG Version: 6.00 Build 0)  -->
<svg xmlns="http://www.w3.org/2000/svg" xmlns:xlink="http://www.w3.org/1999/xlink" version="1.1" id="Layer_1" x="0px" y="0px" viewBox="0 0 512.002 512.002" style="enable-background:new 0 0 512.002 512.002;" xml:space="preserve" width="512" height="512">
<g id="XMLID_1025_">
	<g id="XMLID_285_">
		<path id="XMLID_373_" d="M437.001,183.948V10c0-5.523-4.477-10-10-10H235.716c-5.523,0-10,4.477-10,10s4.477,10,10,10h181.285v184    h-322V20h60.715c5.523,0,10-4.477,10-10s-4.477-10-10-10H85.001c-5.523,0-10,4.477-10,10v173.948    c-16.458,2.917-29,17.316-29,34.598v33.468c0,73.982,45.522,140.321,114,167.285V502c0,5.523,4.477,10,10,10H230.8    c0.01,0,0.02,0.002,0.029,0.002c0.011,0,0.022-0.002,0.032-0.002h50.279c0.011,0,0.022,0.002,0.032,0.002    c0.01,0,0.019-0.002,0.029-0.002h60.799c5.523,0,10-4.477,10-10v-82.705c15.765-6.212,30.556-14.625,44.051-25.066    c4.369-3.379,5.17-9.66,1.791-14.028s-9.66-5.17-14.028-1.791c-11.992,9.277-25.129,16.751-39.129,22.27    c-0.236-2.187-1.183-4.292-2.804-5.941l-18.42-18.735c53.3-16.023,92.244-65.541,92.244-123.991V224h11.294    c5.523,0,10-4.477,10-10v-9.286c5.295,2.363,9,7.668,9,13.831v33.468c0,23.327-4.937,45.82-14.674,66.855    c-2.32,5.012-0.138,10.956,4.874,13.275c1.36,0.63,2.788,0.928,4.194,0.928c3.776,0,7.391-2.15,9.081-5.802    c10.965-23.688,16.525-49.007,16.525-75.256v-33.468C466.001,201.263,453.459,186.865,437.001,183.948z M116.295,224h89.77    c-6.298,8.367-10.037,18.764-10.037,30.019v30.154v37.69c0,14.669,5.345,28.106,14.176,38.492    c-53.016-7.569-93.909-53.266-93.909-108.34V224z M211.945,380.726c3.012,0.321,6.056,0.533,9.125,0.643v81.167l-31.536-59.017    L211.945,380.726z M241.071,381.462h30.111V492h-30.111V381.462z M255.546,361.379c-21.79,0-39.517-17.728-39.517-39.517v-27.69    h68.142c3.745,0,7.387-0.438,10.893-1.241v28.931C295.063,343.652,277.336,361.379,255.546,361.379z M312.973,224v21.37    c0,9.803-4.927,18.474-12.431,23.678c-0.612,0.311-1.189,0.68-1.721,1.106c-4.296,2.549-9.304,4.019-14.651,4.019h-68.142v-20.154    c0-16.552,13.466-30.019,30.019-30.019H312.973z M66.001,252.014v-33.468c0-6.163,3.705-11.468,9-13.831V214    c0,5.523,4.477,10,10,10h11.294v28.014c0,58.45,38.944,107.968,92.244,123.991l-18.42,18.735c-1.622,1.649-2.57,3.756-2.805,5.944    C106.455,376.714,66.001,317.759,66.001,252.014z M180.001,428.115L214.139,492h-34.138V428.115z M297.863,492l34.138-63.885V492    H297.863z M322.467,403.52l-31.286,58.548v-80.708c2.985-0.112,5.945-0.322,8.875-0.633L322.467,403.52z M395.707,252.014    c0,55.433-41.426,101.368-94.945,108.486c8.905-10.406,14.302-23.899,14.302-38.637v-38.744    c10.925-8.957,17.91-22.552,17.91-37.749V224h62.733V252.014z" data-original="#000000" class="active-path" style="fill: rgb(255, 255, 255);"></path>
		<path id="XMLID_838_" d="M418.491,348.31c-2.63,0-5.21,1.07-7.07,2.93s-2.93,4.44-2.93,7.07c0,2.63,1.07,5.21,2.93,7.07    s4.44,2.93,7.07,2.93s5.21-1.07,7.07-2.93c1.86-1.86,2.93-4.44,2.93-7.07c0-2.63-1.07-5.21-2.93-7.07    C423.701,349.38,421.121,348.31,418.491,348.31z" data-original="#000000" class="active-path" style="fill: rgb(255, 255, 255);"></path>
		<path id="XMLID_839_" d="M147.055,70.587c-5.198,1.865-7.9,7.591-6.036,12.79l22.643,63.116c1.425,3.973,5.192,6.623,9.413,6.623    c4.221,0,7.987-2.65,9.413-6.624l13.229-36.877l13.23,36.878c1.425,3.973,5.192,6.623,9.413,6.623c4.221,0,7.987-2.65,9.413-6.624    l22.642-63.116c1.865-5.198-0.837-10.924-6.036-12.789c-5.197-1.865-10.924,0.837-12.789,6.036l-13.229,36.877l-13.23-36.878    C203.704,72.65,199.937,70,195.716,70c-4.221,0-7.987,2.65-9.413,6.624l-13.229,36.877l-13.23-36.878    C157.979,71.425,152.253,68.721,147.055,70.587z" data-original="#000000" class="active-path" style="fill: rgb(255, 255, 255);"></path>
		<path id="XMLID_840_" d="M285.501,144V80c0-5.523-4.477-10-10-10s-10,4.477-10,10v64c0,5.523,4.477,10,10,10    S285.501,149.523,285.501,144z" data-original="#000000" class="active-path" style="fill: rgb(255, 255, 255);"></path>
		<path id="XMLID_841_" d="M323.001,144v-34.281l30.604,40.327c1.927,2.54,4.899,3.956,7.967,3.955c1.064,0,2.14-0.17,3.188-0.522    c4.07-1.37,6.811-5.184,6.811-9.478V80c0-5.523-4.477-10-10-10s-10,4.477-10,10v34.281l-30.604-40.327    c-2.596-3.42-7.088-4.802-11.155-3.433c-4.07,1.37-6.811,5.184-6.811,9.478v64c0,5.523,4.477,10,10,10    S323.001,149.523,323.001,144z" data-original="#000000" class="active-path" style="fill: rgb(255, 255, 255);"></path>
		<path id="XMLID_842_" d="M195.721,20c2.63,0,5.21-1.07,7.07-2.93c1.86-1.86,2.92-4.44,2.92-7.07c0-2.63-1.06-5.21-2.92-7.07    c-1.86-1.86-4.44-2.93-7.07-2.93c-2.64,0-5.21,1.07-7.08,2.93c-1.86,1.86-2.92,4.44-2.92,7.07c0,2.63,1.06,5.21,2.92,7.07    C190.501,18.93,193.081,20,195.721,20z" data-original="#000000" class="active-path" style="fill: rgb(255, 255, 255);"></path>
	</g>
</g>















</svg>
