<svg xmlns="http://www.w3.org/2000/svg" width="26" height="26" viewBox="0 0 26 26">
  <g fill="none" fill-rule="evenodd">
    <rect width="26" height="26"/>
    <path fill="#FFF" fill-rule="nonzero" d="M4.17272726,17.9454546 L2.53636362,17.9454546 L2.53636362,22.6363636 C2.53636362,23.0727273 2.86363634,23.5090909 3.4090909,23.5090909 L8.75454544,23.5090909 L8.75454544,21.8727273 L4.17272726,21.8727273 L4.17272726,17.9454546 Z M4.17272726,4.63636364 L8.75454544,4.63636364 L8.75454544,3 L3.4090909,3 C2.86363636,3 2.53636362,3.43636364 2.53636362,3.87272728 L2.53636362,8.78181818 L4.17272726,8.78181818 L4.17272726,4.63636364 Z M21.8454545,21.8727273 L17.2636364,21.8727273 L17.2636364,23.5090909 L22.6090909,23.5090909 C23.0454545,23.5090909 23.4818182,23.1818182 23.4818182,22.6363636 L23.4818182,17.9454546 L21.8454545,17.9454546 L21.8454545,21.8727273 Z M21.8454545,8.67272728 L23.4818182,8.67272728 L23.4818182,3.87272728 C23.4818182,3.43636364 23.1545455,3 22.6090909,3 L17.2636364,3 L17.2636364,4.63636364 L21.8454545,4.63636364 L21.8454545,8.67272728 Z M2.1,12.3818182 L23.9181818,12.3818182 L23.9181818,14.0181818 L2.1,14.0181818 L2.1,12.3818182 Z"/>
  </g>
</svg>
