<?xml version="1.0" encoding="iso-8859-1"?>
<!-- Generator: Adobe Illustrator 18.0.0, SVG Export Plug-In . SVG Version: 6.00 Build 0)  -->
<!DOCTYPE svg PUBLIC "-//W3C//DTD SVG 1.1//EN" "http://www.w3.org/Graphics/SVG/1.1/DTD/svg11.dtd">
<svg version="1.1" id="Capa_1" xmlns="http://www.w3.org/2000/svg" xmlns:xlink="http://www.w3.org/1999/xlink" x="0px" y="0px"
	 viewBox="0 0 490 490" style="enable-background:new 0 0 490 490;" xml:space="preserve">
<g>
	<path fill="#FFF" d="M82.718,117.502H4.146c-2.289,0-4.145,1.858-4.145,4.147v6.467c0,23.949,19.483,43.432,43.432,43.432
		c23.948,0,43.431-19.482,43.431-43.432v-6.467C86.863,119.359,85.007,117.502,82.718,117.502z"/>
	<path fill="#FFF" d="M183.501,117.502h-78.572c-2.29,0-4.145,1.858-4.145,4.147v6.467c0,23.949,19.483,43.432,43.431,43.432
		c23.948,0,43.431-19.482,43.431-43.432v-6.467C187.647,119.359,185.791,117.502,183.501,117.502z"/>
	<path fill="#FFF" d="M284.286,117.502h-78.574c-2.289,0-4.146,1.858-4.146,4.147v6.467c0,23.949,19.483,43.432,43.433,43.432
		s43.433-19.482,43.433-43.432v-6.467C288.432,119.359,286.575,117.502,284.286,117.502z"/>
	<path fill="#FFF" d="M385.071,117.502h-78.574c-2.29,0-4.146,1.858-4.146,4.147v6.467c0,23.949,19.483,43.432,43.431,43.432
		c23.949,0,43.434-19.482,43.434-43.432v-6.467C389.216,119.359,387.36,117.502,385.071,117.502z"/>
	<path fill="#FFF" d="M485.855,117.502h-78.573c-2.289,0-4.146,1.858-4.146,4.147v6.467c0,23.949,19.483,43.432,43.432,43.432
		c23.949,0,43.433-19.482,43.433-43.432v-6.467C490,119.359,488.144,117.502,485.855,117.502z"/>
	<path fill="#FFF" d="M489.093,94.979l-38.522-48.353c-0.787-0.986-1.98-1.563-3.243-1.563H42.668c-1.262,0-2.456,0.576-3.242,1.563
		L0.903,94.979c-0.992,1.244-1.184,2.947-0.492,4.383c0.691,1.434,2.143,2.346,3.734,2.346h481.705c1.592,0,3.043-0.912,3.734-2.346
		C490.276,97.926,490.085,96.223,489.093,94.979z"/>
	<path fill="#FFF" d="M370.694,363.744c-5.723,0-10.363-4.639-10.363-10.363v-19.77c0-5.725,4.641-10.363,10.363-10.363
		c5.723,0,10.363,4.639,10.363,10.363v19.77C381.058,359.106,376.417,363.744,370.694,363.744z"/>
	<path fill="#FFF" d="M469.499,190.785c0-1.922-0.91-3.768-2.438-4.938c-1.513-1.156-3.553-1.563-5.402-1.064
		c-4.929,1.33-10.006,2.006-15.092,2.006c-17.824,0-34.411-8.072-45.509-22.15c-1.188-1.506-2.968-2.369-4.883-2.369
		c-1.916,0-3.696,0.863-4.883,2.369c-11.098,14.078-27.686,22.15-45.511,22.15c-17.824,0-34.411-8.072-45.509-22.15
		c-1.187-1.506-2.967-2.369-4.883-2.369c-1.915,0-3.695,0.863-4.884,2.369c-11.096,14.078-27.683,22.15-45.508,22.15
		s-34.412-8.072-45.509-22.15c-1.188-1.506-2.968-2.369-4.883-2.369c-1.916,0-3.696,0.863-4.884,2.369
		c-11.097,14.078-27.685,22.15-45.508,22.15c-17.825,0-34.412-8.072-45.509-22.15c-1.187-1.506-2.966-2.369-4.883-2.369
		c-1.917,0-3.696,0.863-4.883,2.369c-11.097,14.078-27.685,22.15-45.509,22.15c-5.086,0-10.164-0.676-15.092-2.006
		c-1.844-0.5-3.892-0.094-5.401,1.064c-1.527,1.17-2.438,3.014-2.438,4.936l-0.043,242.754c0,3,1.217,5.94,3.338,8.061
		c2.154,2.152,5.017,3.34,8.061,3.34h245.226c1.431,0,2.59-1.16,2.59-2.592V235.604h117.724v206.742
		c0,1.432,1.159,2.592,2.591,2.592h58.155c3.044,0,5.906-1.188,8.06-3.34c2.122-2.121,3.34-5.061,3.34-8.063L469.499,190.785z
		 M201.777,333.844c0,1.432-1.16,2.592-2.591,2.592h-98.242c-1.431,0-2.591-1.16-2.591-2.592v-98.24c0-1.432,1.16-2.592,2.591-2.592
		h98.242c1.431,0,2.591,1.16,2.591,2.592V333.844z"/>
</g>
<g>
</g>
<g>
</g>
<g>
</g>
<g>
</g>
<g>
</g>
<g>
</g>
<g>
</g>
<g>
</g>
<g>
</g>
<g>
</g>
<g>
</g>
<g>
</g>
<g>
</g>
<g>
</g>
<g>
</g>
</svg>
