<svg height="512pt" viewBox="0 0 512 512" width="512pt" xmlns="http://www.w3.org/2000/svg"><path fill="#FFF" d="m256 0c-140.960938 0-256 115.050781-256 256 0 140.960938 115.050781 256 256 256 140.960938 0 256-115.050781 256-256 0-140.960938-115.050781-256-256-256zm0 482c-124.617188 0-226-101.382812-226-226s101.382812-226 226-226 226 101.382812 226 226-101.382812 226-226 226zm0 0"/><path fill="#FFF" d="m256 61c-107.523438 0-195 87.476562-195 195s87.476562 195 195 195 195-87.476562 195-195-87.476562-195-195-195zm164.3125 210c-3.101562 34.25-16.707031 65.511719-37.574219 90.527344l-20.671875-20.675782-21.214844 21.214844 20.675782 20.671875c-25.015625 20.863281-56.277344 34.472657-90.527344 37.574219v-29.3125h-30v29.3125c-34.25-3.101562-65.511719-16.707031-90.527344-37.574219l20.675782-20.671875-21.214844-21.214844-20.671875 20.675782c-20.867188-25.015625-34.472657-56.277344-37.574219-90.527344h29.3125v-30h-29.3125c3.101562-34.25 16.707031-65.511719 37.574219-90.527344l20.671875 20.675782 21.214844-21.214844-20.675782-20.671875c25.015625-20.867188 56.277344-34.472657 90.527344-37.574219v29.3125h30v-29.3125c34.25 3.101562 65.511719 16.707031 90.527344 37.574219l-20.675782 20.671875 21.214844 21.214844 20.671875-20.675782c20.867188 25.015625 34.472657 56.277344 37.574219 90.527344h-29.3125v30zm0 0"/><path fill="#FFF" d="m271 151h-30v120h120v-30h-90zm0 0"/></svg>