<svg xmlns="http://www.w3.org/2000/svg" width="49" height="49" viewBox="0 0 49 49">
  <g fill="none" fill-rule="evenodd">
    <rect width="49" height="49"/>
    <g fill="#FFF" fill-rule="nonzero" transform="translate(14 4)">
      <path d="M16.4616021,40.3569824 L9.26310198,40.3569824 L9.26310198,40.3430529 L4.44349018,40.3430529 L4.44349018,22.7244964 C1.60974569,20.7501937 0.123963507,17.4516021 -0.333570827,13.3511679 C-0.498505166,11.8730222 -0.516333001,10.3845089 -0.426508086,8.95094693 C-0.370053802,8.04996399 -0.281639656,7.3180871 -0.206591026,6.87662518 L-0.0385462002,5.88436054 L11.6421239,5.88436054 L11.6421239,5.89829004 L20.9437721,5.89829004 L21.0143103,6.31480146 L21.1117644,6.89024556 C21.1868574,7.33196897 21.2752936,8.06387091 21.3318045,8.96484494 C21.4217191,10.3983885 21.404058,11.8868839 21.2393867,13.3650108 C20.7825764,17.4654447 19.2980987,20.764029 16.466308,22.7383678 L16.4616021,40.3569824 Z M14.0827138,37.9779605 L14.0827138,21.4164082 L14.3289458,21.2713674 L14.6661047,21.0727719 C18.4290372,18.8350814 19.413301,13.7115809 18.8825092,8.28195508 L9.26310198,8.28195508 L9.26310198,8.26802557 L2.0227166,8.26802557 C1.4919236,13.6976506 2.47614113,18.8211238 6.23732848,21.0577815 L6.82251203,21.4024786 L6.82251203,37.964031 L11.6421239,37.964031 L11.6421239,37.9779605 L14.0827138,37.9779605 Z"/>
      <path d="M15.7699031,33.9941196 L15.7699031,36.3731415 L5.13067952,36.3731415 L5.13067952,33.9941196 L15.7699031,33.9941196 Z M20.5523696,9.76605175 L20.5523696,12.1450736 L0.352856246,12.1450736 L0.352856246,9.76605175 L20.5523696,9.76605175 Z M11.1560534,23.1290987 C11.5343456,23.1290987 11.8417802,23.4365335 11.8417802,23.8148256 L11.8417802,27.8404551 C11.8417802,28.2187473 11.5343455,28.526182 11.1560534,28.526182 L10.1484852,28.526182 C9.7701931,28.526182 9.46275847,28.2187473 9.46275833,27.8404551 L9.46275833,23.8148256 C9.46275833,23.4365335 9.77019298,23.1290989 10.148485,23.1290987 L11.1560534,23.1290987 Z M11.1560534,-0.5 C11.5343455,-0.5 11.8417802,-0.192565277 11.8417802,0.185726843 L11.8417802,4.21135637 C11.8417802,4.58964854 11.5343455,4.89708322 11.1560534,4.89708322 L10.1484852,4.89708322 C9.7701931,4.89708322 9.46275847,4.58964859 9.46275833,4.21135637 L9.46275833,0.185726843 C9.46275833,-0.192565344 9.77019307,-0.5 10.1484852,-0.5 L11.1560534,-0.5 Z M1.87456697,-0.18662504 C2.20294522,-0.376738836 2.62440397,-0.260837666 2.81336994,0.065558437 L4.82830904,3.5522391 C5.01842281,3.88061732 4.9025217,4.30207602 4.57501061,4.49168451 L3.70355037,4.99230733 C3.37517212,5.18242112 2.95371337,5.06651995 2.7647474,4.74012385 L0.740062306,1.23579823 C0.569749244,0.912203451 0.679043541,0.506253237 1.00165087,0.319480588 L1.87456697,-0.18662504 Z M17.2248915,4.99230746 L16.3519751,4.48620165 C16.02592,4.29743285 15.9100189,3.87597423 16.0999354,3.54793691 L18.115269,0.0605742637 C18.3040378,-0.265480827 18.7254964,-0.381381929 19.0541467,-0.191110608 L19.9267909,0.314837492 C20.2528459,0.503606272 20.3687471,0.925064838 20.1788306,1.2531022 L18.1688919,4.73090606 C17.9818648,5.07095526 17.5545063,5.18313688 17.2248915,4.99230746 Z"/>
    </g>
  </g>
</svg>
