<svg xmlns="http://www.w3.org/2000/svg" width="49" height="49" viewBox="0 0 49 49">
  <g fill="none" fill-rule="evenodd">
    <rect width="49" height="49"/>
    <g fill="#FFF" fill-rule="nonzero" transform="translate(13 9)">
      <path d="M17.4616021,35.3569824 L10.263102,35.3569824 L10.263102,35.3430529 L5.44349018,35.3430529 L5.44349018,17.7244964 C2.60974569,15.7501937 1.12396351,12.4516021 0.666429173,8.35116787 C0.501494834,6.87302215 0.483666999,5.38450891 0.573491914,3.95094693 C0.629946198,3.04996399 0.718360344,2.3180871 0.793408974,1.87662518 L0.9614538,0.884360535 L12.6421239,0.884360535 L12.6421239,0.898290045 L21.9437721,0.898290045 L22.0143103,1.31480146 L22.1117644,1.89024556 C22.1868574,2.33196897 22.2752936,3.06387091 22.3318045,3.96484494 C22.4217191,5.39838849 22.404058,6.88688388 22.2393867,8.36501076 C21.7825764,12.4654447 20.2980987,15.764029 17.466308,17.7383678 L17.4616021,35.3569824 Z M15.0827138,32.9779605 L15.0827138,16.4164082 L15.3289458,16.2713674 L15.6661047,16.0727719 C19.4290372,13.8350814 20.413301,8.71158094 19.8825092,3.28195508 L10.263102,3.28195508 L10.263102,3.26802557 L3.0227166,3.26802557 C2.4919236,8.69765064 3.47614113,13.8211238 7.23732848,16.0577815 L7.82251203,16.4024786 L7.82251203,32.964031 L12.6421239,32.964031 L12.6421239,32.9779605 L15.0827138,32.9779605 Z"/>
      <path d="M16.7699031,28.9941196 L16.7699031,31.3731415 L6.13067952,31.3731415 L6.13067952,28.9941196 L16.7699031,28.9941196 Z M21.5523696,4.76605175 L21.5523696,7.14507361 L1.35285625,7.14507361 L1.35285625,4.76605175 L21.5523696,4.76605175 Z M12.1560534,18.1290987 C12.5343456,18.1290987 12.8417802,18.4365335 12.8417802,18.8148256 L12.8417802,22.8404551 C12.8417802,23.2187473 12.5343455,23.526182 12.1560534,23.526182 L11.1484852,23.526182 C10.7701931,23.526182 10.4627585,23.2187473 10.4627583,22.8404551 L10.4627583,18.8148256 C10.4627583,18.4365335 10.770193,18.1290989 11.148485,18.1290987 L12.1560534,18.1290987 Z"/>
    </g>
  </g>
</svg>
