<svg width="21px" height="16px" viewBox="0 0 21 16" version="1.1" xmlns="http://www.w3.org/2000/svg" xmlns:xlink="http://www.w3.org/1999/xlink">
    <!-- Generator: Sketch 52.2 (67145) - http://www.bohemiancoding.com/sketch -->
    <title>微信</title>
    <desc>Created with Sketch.</desc>
    <g id="登录注册" stroke="none" stroke-width="1" fill="none" fill-rule="evenodd">
        <g id="手机号登录" transform="translate(-27.000000, -321.000000)" fill="#FFFFFF" fill-rule="nonzero">
            <g id="Group" transform="translate(27.000000, 319.000000)">
                <g id="微信" transform="translate(-0.000000, 2.000000)">
                    <path d="M13.8181818,4.82924259 L13.1021837,4.82924259 C11.6089029,4.80880789 10.2830928,5.2673868 9.18846516,6.24644978 C8.15815601,7.1431729 7.54773726,8.26828396 7.40029019,9.64402071 C7.3584225,10.1855405 7.42152742,10.7276613 7.52650004,11.2691811 C7.5689745,11.5402415 7.5689745,11.6027477 7.27408035,11.581712 C6.53805855,11.5402415 5.82266721,11.4777354 5.10727588,11.352723 C4.70680235,11.2902169 4.3706473,11.2902169 3.99201779,11.4987711 C3.4659412,11.7902662 2.91862738,12.0402909 2.37192035,12.3113513 C2.28757819,12.3534228 2.20323605,12.3738575 2.05639575,12.4363636 C2.09826344,12.2903156 2.09826344,12.2073747 2.11950068,12.1238328 C2.28757819,11.6237834 2.45565573,11.1020973 2.62434002,10.602649 C2.70868218,10.373059 2.62434002,10.2901181 2.47689295,10.1645048 C1.69839669,9.60255028 1.02487303,8.89334566 0.562508155,8.03869399 C-0.384065623,6.2674855 -0.111015503,4.07916855 1.19355735,2.49547858 C2.3925508,1.07827139 3.94954332,0.307161624 5.80142998,0.0775716497 C7.3584225,-0.130982585 8.87354734,0.0775716497 10.3037233,0.74470481 C11.9450579,1.51581458 13.1865258,2.68299709 13.7126024,4.4752413 C13.7338396,4.51731276 13.7550769,4.60025364 13.7550769,4.64172408 C13.7969446,4.70423025 13.8181818,4.74630171 13.8181818,4.82924259 Z M8.49431104,3.78767343 C8.51494149,4.2041809 8.87294056,4.5587832 9.46212206,4.60025364 C9.90385649,4.62128937 10.2612488,4.24565134 10.2612488,3.80810815 C10.2612488,3.37056497 9.92509373,3.01656368 9.46212206,2.99552794 C8.97791316,2.97449222 8.49431104,3.37056497 8.49431104,3.78767343 Z M5.48469184,3.78767343 C5.48469184,3.32909452 5.14853679,2.99552794 4.68556511,2.9744922 C4.20196299,2.9744922 3.73899133,3.37116597 3.71775411,3.76663771 C3.69651688,4.18314517 4.20196301,4.60025364 4.68556511,4.57921792 C5.14853677,4.57921792 5.4852986,4.24565134 5.48529862,3.78767343 L5.48469184,3.78767343 Z" id="Shape"></path>
                    <path d="M18.731857,15.2 C18.2169277,14.9718222 17.7471676,14.7814912 17.3219315,14.5341158 C16.91928,14.305938 16.5611524,14.2680912 16.0913924,14.3629824 C14.1445981,14.7814912 12.3100818,14.5154666 10.6543065,13.5835578 C9.35601352,12.8606291 8.52812589,11.8524782 8.32680014,10.5212583 C8.16999835,9.39901848 8.52812589,8.35302076 9.37859813,7.47760789 C10.4755654,6.35591658 11.906785,5.74707681 13.6077295,5.57594347 C15.5093545,5.38561248 17.2322383,5.74707681 18.7312117,6.77387687 C19.828179,7.51600319 20.5444341,8.44791201 20.7005906,9.66504306 C20.8348077,10.6539963 20.4547408,11.5480583 19.7391311,12.3088338 C19.3584189,12.7081449 18.9105981,13.0696093 18.4408381,13.4310736 C18.2614517,13.5643602 18.1943431,13.6976467 18.2840363,13.9066269 C18.4408381,14.2680912 18.5524706,14.6295555 18.6647484,14.9910199 C18.6866878,15.009669 18.6866878,15.0859111 18.731857,15.2 Z M12.5327016,9.22788513 C12.958583,9.22788513 13.3386499,8.96131204 13.3386499,8.65744065 C13.3386499,8.35302076 12.9805223,8.06725003 12.5552862,8.06725001 C12.2197433,8.04860087 11.8390311,8.3716699 11.8390311,8.65689215 C11.8390311,8.92346524 12.2197433,9.22733663 12.5327016,9.22733663 L12.5327016,9.22788513 Z M16.5159832,9.22788513 C16.9186347,9.22788513 17.3438708,8.9426629 17.3438708,8.65744065 C17.3438708,8.37221841 16.9179894,8.06725003 16.5159832,8.06725001 C16.1804403,8.06725001 15.8223127,8.3716699 15.8223127,8.65689215 C15.8442521,8.94211438 16.1804403,9.22733663 16.5159832,9.22733663 L16.5159832,9.22788513 Z" id="Shape"></path>
                </g>
            </g>
        </g>
    </g>
</svg>