<!--?xml version="1.0" encoding="iso-8859-1"?-->
<!-- Generator: Adobe Illustrator 18.0.0, SVG Export Plug-In . SVG Version: 6.00 Build 0)  -->

<svg version="1.1" id="Capa_1" xmlns="http://www.w3.org/2000/svg" xmlns:xlink="http://www.w3.org/1999/xlink" x="0px" y="0px" viewBox="0 0 89.457 89.457" style="enable-background:new 0 0 89.457 89.457;" xml:space="preserve" class="">
<g>
	<path style="fill: rgb(45, 63, 100);" d="M44.729,0C20.025,0,0,20.026,0,44.728c0,24.703,20.025,44.729,44.729,44.729
		c24.703,0,44.728-20.025,44.728-44.729C89.457,20.026,69.431,0,44.729,0z M81.79,64.182l-5.591,2.268l-0.147,6.031l-5.97,0.868
		l-1.579,5.823l-6.004-0.58l-2.927,5.275l-5.689-2.006l-4.111,4.414l-5.043-3.312l-5.044,3.312l-4.111-4.414l-5.689,2.006
		l-2.927-5.275l-6.005,0.579l-1.579-5.823l-5.97-0.869l-0.147-6.03l-5.59-2.268l1.301-5.891l-4.881-3.546l2.682-5.404L2.88,44.728
		l3.888-4.612l-2.682-5.404l4.881-3.545l-1.301-5.891l5.59-2.268l0.147-6.031l5.97-0.869l1.579-5.823l6.004,0.58l2.927-5.275
		l5.689,2.006l4.111-4.415l5.043,3.312l5.043-3.312l4.111,4.415l5.689-2.006l2.927,5.275l6.005-0.579l1.579,5.823l5.97,0.87
		l0.147,6.031l5.59,2.267l-1.301,5.891l4.881,3.545l-2.682,5.404l3.889,4.612l-3.889,4.613l2.682,5.404l-4.881,3.545L81.79,64.182z" data-original="#231F20" class="    "></path>
	<path style="fill:#FFFFFF;" d="M82.688,49.341l3.889-4.613l-3.889-4.612l2.682-5.404l-4.881-3.545l1.301-5.891l-5.59-2.267
		l-0.147-6.031l-5.97-0.87l-1.579-5.823L62.5,10.865l-2.927-5.275l-5.689,2.006l-4.111-4.415l-5.043,3.312l-5.043-3.312
		l-4.111,4.415l-5.689-2.006l-2.927,5.275l-6.004-0.58l-1.579,5.823l-5.97,0.869l-0.147,6.031l-5.59,2.268l1.301,5.891l-4.881,3.545
		l2.682,5.404L2.88,44.728l3.888,4.612l-2.682,5.404l4.881,3.546l-1.301,5.891l5.59,2.268l0.147,6.03l5.97,0.869l1.579,5.823
		l6.005-0.579l2.927,5.275l5.689-2.006l4.111,4.414l5.044-3.312l5.043,3.312l4.111-4.414l5.689,2.006l2.927-5.275l6.004,0.58
		l1.579-5.823l5.97-0.868l0.147-6.031l5.591-2.268l-1.301-5.892l4.881-3.545L82.688,49.341z M44.729,81.15
		c-20.115,0-36.422-16.307-36.422-36.422c0-20.115,16.307-36.421,36.422-36.421c20.115,0,36.421,16.306,36.421,36.421
		C81.15,64.843,64.843,81.15,44.729,81.15z" data-original="#FFFFFF" class="    active-path"></path>
	<path style="fill: rgb(45, 63, 100);" d="M44.729,14.375c-16.737,0-30.353,13.616-30.353,30.353c0,16.736,13.616,30.353,30.353,30.353
		c16.736,0,30.352-13.616,30.352-30.353C75.081,27.992,61.465,14.375,44.729,14.375z M58.024,55.319
		c0,8.813-5.662,10.828-11.196,10.741v4.471h-4.661v-4.594c-4.185-0.202-6.463-0.657-9.44-1.51v-5.878
		c2.181,0.12,7.66,0.478,12.73,0.478c2.295,0,4.934-0.502,4.934-3.438v-2.149c0-2.267-0.711-3.724-3.625-3.724h-4.989
		c-9.304,0-10.304-7.229-10.304-10.577v-3.448c0.049-7.777,4.741-10.135,10.694-10.304v-4.689h4.661v4.762
		c3.735,0.213,7.153,0.837,9.724,1.505v5.951c-3.146-0.21-10.206-0.521-12.185-0.521c-3.336-0.074-5.261,0.305-5.261,3.895v1.949
		c0,2.893,1.505,3.844,4.351,3.844h5.108c7.944,0,9.459,6.166,9.459,10.577V55.319z" data-original="#231F20" class="    "></path>
	<path style="fill: rgb(45, 63, 100);" d="M44.729,8.307c-20.115,0-36.422,16.306-36.422,36.421c0,20.115,16.307,36.422,36.422,36.422
		c20.115,0,36.421-16.307,36.421-36.422C81.15,24.613,64.843,8.307,44.729,8.307z M44.729,77.286
		c-17.952,0-32.557-14.605-32.557-32.558c0-17.952,14.605-32.557,32.557-32.557c17.952,0,32.557,14.605,32.557,32.557
		C77.285,62.68,62.68,77.286,44.729,77.286z" data-original="#231F20" class="    "></path>
	<path style="fill:#FFFFFF;" d="M44.729,12.171c-17.952,0-32.557,14.605-32.557,32.557c0,17.952,14.605,32.558,32.557,32.558
		c17.952,0,32.557-14.605,32.557-32.558C77.285,26.776,62.68,12.171,44.729,12.171z M44.729,75.081
		c-16.737,0-30.353-13.616-30.353-30.353c0-16.736,13.616-30.353,30.353-30.353c16.736,0,30.352,13.616,30.352,30.353
		C75.081,61.464,61.465,75.081,44.729,75.081z" data-original="#FFFFFF" class="    active-path"></path>
	<path style="fill:#FFFFFF;" d="M48.564,42.084h-5.108c-2.846,0-4.351-0.951-4.351-3.844v-1.949c0-3.59,1.925-3.969,5.261-3.895
		c1.979,0,9.04,0.311,12.185,0.521v-5.951c-2.57-0.668-5.989-1.292-9.724-1.505v-4.762h-4.661v4.689
		c-5.954,0.169-10.645,2.527-10.694,10.304v3.448c0,3.348,1,10.577,10.304,10.577h4.989c2.914,0,3.625,1.456,3.625,3.724v2.149
		c0,2.935-2.639,3.438-4.934,3.438c-5.07,0-10.549-0.357-12.73-0.478v5.878c2.977,0.853,5.256,1.308,9.44,1.51v4.594h4.661V66.06
		c5.534,0.087,11.196-1.928,11.196-10.741v-2.657C58.024,48.25,56.508,42.084,48.564,42.084z" data-original="#FFFFFF" class="    active-path"></path>
</g>
<g>
</g>
<g>
</g>
<g>
</g>
<g>
</g>
<g>
</g>
<g>
</g>
<g>
</g>
<g>
</g>
<g>
</g>
<g>
</g>
<g>
</g>
<g>
</g>
<g>
</g>
<g>
</g>
<g>
</g>
</svg>
